SplineFontDB: 3.2
FontName: AtkinsonHyperPro-Italic
FullName: Atkinson Hyperlegible Pro Italic
FamilyName: Atkinson Hyperlegible Pro
Weight: Regular
Copyright: Copyright 2020 Braille Institute of America, Inc.
UComments: "Update by Jacob Perez+AAoA-https://jacobxperez.github.io/atkinson-hyperlegible-pro/"
Version: 1.2.0
ItalicAngle: -12
UnderlinePosition: -106
UnderlineWidth: 57
Ascent: 800
Descent: 200
InvalidEm: 0
sfntRevision: 0x00010000
LayerCount: 2
Layer: 0 1 "Back" 1
Layer: 1 1 "Fore" 0
XUID: [1021 466 782043844 3810]
StyleMap: 0x0001
FSType: 0
OS2Version: 4
OS2_WeightWidthSlopeOnly: 0
OS2_UseTypoMetrics: 1
CreationTime: 1618935638
ModificationTime: 1696836658
PfmFamily: 81
TTFWeight: 400
TTFWidth: 5
LineGap: 0
VLineGap: 0
Panose: 0 0 0 0 0 0 0 0 0 0
OS2TypoAscent: 950
OS2TypoAOffset: 0
OS2TypoDescent: -290
OS2TypoDOffset: 0
OS2TypoLinegap: 0
OS2WinAscent: 950
OS2WinAOffset: 0
OS2WinDescent: 290
OS2WinDOffset: 0
HheadAscent: 950
HheadAOffset: 0
HheadDescent: -290
HheadDOffset: 0
OS2SubXSize: 650
OS2SubYSize: 699
OS2SubXOff: 0
OS2SubYOff: 140
OS2SupXSize: 650
OS2SupYSize: 699
OS2SupXOff: 0
OS2SupYOff: 479
OS2StrikeYSize: 49
OS2StrikeYPos: 258
OS2CapHeight: 668
OS2XHeight: 496
OS2Vendor: 'NONE'
OS2CodePages: 20000003.00000000
OS2UnicodeRanges: 800000ef.0000204b.00000000.00000000
Lookup: 4 0 1 "'liga' Standard Ligatures lookup 0" { "'liga' Standard Ligatures lookup 0-1"  } ['liga' ('DFLT' <'dflt' > 'grek' <'dflt' > 'latn' <'MOL ' 'dflt' > ) ]
Lookup: 1 0 0 "'zero' Slashed Zero lookup 0" { "'zero' Slashed Zero lookup 0-1"  } ['zero' ('DFLT' <'dflt' > 'grek' <'dflt' > 'latn' <'MOL ' 'dflt' > ) ]
Lookup: 1 0 0 "'aalt' Access All Alternates lookup 0" { "'aalt' Access All Alternates lookup 0 subtable"  } ['aalt' ('DFLT' <'dflt' > 'grek' <'dflt' > 'latn' <'dflt' > ) ]
Lookup: 3 0 0 "'aalt' Access All Alternates lookup 1" { "'aalt' Access All Alternates lookup 1 subtable"  } ['aalt' ('DFLT' <'dflt' > 'grek' <'dflt' > 'latn' <'dflt' > ) ]

StartChar: .notdef
Encoding: 256 -1 0
Width: 523
GlyphClass: 1
Flags: W
HStem: 0 21<77 447> 680 20<76 447>
VStem: 48 21<49 650> 455 20<47 652>
LayerCount: 2
Fore
SplineSet
48 0 m 1,0,-1
 48 700 l 1,1,-1
 475 700 l 1,2,-1
 475 0 l 1,3,-1
 48 0 l 1,0,-1
261 371 m 1,4,-1
 447 680 l 1,5,-1
 76 680 l 1,6,-1
 261 371 l 1,4,-1
455 47 m 1,7,-1
 455 652 l 1,8,-1
 274 350 l 1,9,-1
 455 47 l 1,7,-1
69 49 m 1,10,-1
 249 350 l 1,11,-1
 69 650 l 1,12,-1
 69 49 l 1,10,-1
77 21 m 1,13,-1
 447 21 l 1,14,-1
 262 329 l 1,15,-1
 77 21 l 1,13,-1
EndSplineSet
Validated: 1
EndChar

StartChar: zero
Encoding: 48 48 5
Width: 654
GlyphClass: 1
Flags: W
HStem: -12 75<222.281 386.982> 605 75<285.217 449.716>
VStem: 66 92<138.75 417.251> 514 92<251.175 529.875>
LayerCount: 2
Fore
SplineSet
293 -12 m 0,0,1
 182 -12 182 -12 124 56 c 128,-1,2
 66 124 66 124 66 251 c 0,3,4
 66 289 66 289 72 334 c 0,5,6
 93 501 93 501 171.5 590.5 c 128,-1,7
 250 680 250 680 378 680 c 0,8,9
 490 680 490 680 548 612.5 c 128,-1,10
 606 545 606 545 606 417 c 0,11,12
 606 379 606 379 600 334 c 0,13,14
 579 168 579 168 500.5 78 c 128,-1,15
 422 -12 422 -12 293 -12 c 0,0,1
465 172 m 1,16,17
 497 238 497 238 509 334 c 0,18,19
 511 352 511 352 512.5 371.5 c 128,-1,20
 514 391 514 391 514 411 c 0,21,22
 514 459 514 459 502 503.5 c 128,-1,23
 490 548 490 548 459 576.5 c 128,-1,24
 428 605 428 605 369 605 c 0,25,26
 312 605 312 605 270 574 c 1,27,-1
 465 172 l 1,16,17
302 63 m 0,28,29
 364 63 364 63 408 98 c 1,30,-1
 211 503 l 1,31,32
 193 471 193 471 181.5 428.5 c 128,-1,33
 170 386 170 386 163 334 c 0,34,35
 161 315 161 315 159.5 295.5 c 128,-1,36
 158 276 158 276 158 257 c 0,37,38
 158 204 158 204 171 160 c 128,-1,39
 184 116 184 116 215.5 89.5 c 128,-1,40
 247 63 247 63 302 63 c 0,28,29
EndSplineSet
Substitution2: "'zero' Slashed Zero lookup 0-1" zero.alt1
Substitution2: "'aalt' Access All Alternates lookup 0 subtable" zero.alt1
Substitution2: "'tnum' Tabular Numbers lookup 14 subtable" zero.tf
EndChar

StartChar: one
Encoding: 49 49 6
Width: 403
GlyphClass: 1
Flags: W
HStem: 0 21G<158 247.251> 503 68<101 246.095> 648 20G<320 385>
VStem: 327 58<635.256 668>
LayerCount: 2
Fore
SplineSet
158 0 m 1,0,-1
 265 503 l 1,1,-1
 87 503 l 1,2,-1
 101 571 l 1,3,4
 172 571 172 571 216.5 583 c 128,-1,5
 261 595 261 595 287 617 c 128,-1,6
 313 639 313 639 327 668 c 1,7,-1
 385 668 l 1,8,-1
 243 0 l 1,9,-1
 158 0 l 1,0,-1
EndSplineSet
Substitution2: "'tnum' Tabular Numbers lookup 14 subtable" one.tf
Substitution2: "'sups' Superscript lookup 9 subtable" uni00B9
AlternateSubs2: "'aalt' Access All Alternates lookup 1 subtable" uni00B9 one.tf
EndChar

StartChar: two
Encoding: 50 50 7
Width: 565
GlyphClass: 1
Flags: W
HStem: 0 77<131 463> 498 21G<109 187.5> 610 70<252.613 410.942>
VStem: 455 93<418.353 568.327>
LayerCount: 2
Fore
SplineSet
-18 0 m 1,0,-1
 -2 76 l 1,1,2
 62 112 62 112 127 151.5 c 128,-1,3
 192 191 192 191 251 233 c 128,-1,4
 310 275 310 275 356 319.5 c 128,-1,5
 402 364 402 364 428.5 409.5 c 128,-1,6
 455 455 455 455 455 501 c 0,7,8
 455 554 455 554 420 582 c 128,-1,9
 385 610 385 610 341 610 c 0,10,11
 295 610 295 610 248 586.5 c 128,-1,12
 201 563 201 563 174 498 c 1,13,-1
 96 522 l 1,14,15
 167 680 167 680 344 680 c 0,16,17
 399 680 399 680 445 662 c 128,-1,18
 491 644 491 644 519.5 606.5 c 128,-1,19
 548 569 548 569 548 510 c 0,20,21
 548 441 548 441 510.5 379.5 c 128,-1,22
 473 318 473 318 411 264.5 c 128,-1,23
 349 211 349 211 276 164 c 128,-1,24
 203 117 203 117 131 77 c 1,25,-1
 479 77 l 1,26,-1
 463 0 l 1,27,-1
 -18 0 l 1,0,-1
EndSplineSet
Substitution2: "'tnum' Tabular Numbers lookup 14 subtable" two.tf
Substitution2: "'sups' Superscript lookup 9 subtable" uni00B2
AlternateSubs2: "'aalt' Access All Alternates lookup 1 subtable" uni00B2 two.tf
EndChar

StartChar: three
Encoding: 51 51 8
Width: 580
GlyphClass: 1
Flags: W
HStem: -12 70<176.852 349.603> 315 75<230 354.75> 498 21G<106.6 177.5> 610 70<234.139 401.06>
VStem: 32 86<119.15 159.872> 416 89<119.39 262.215> 446 92<439.062 569.417>
LayerCount: 2
Fore
SplineSet
259 -12 m 0,0,1
 158 -12 158 -12 101.5 36.5 c 128,-1,2
 45 85 45 85 32 158 c 1,3,-1
 118 181 l 1,4,5
 126 126 126 126 161.5 92 c 128,-1,6
 197 58 197 58 261 58 c 0,7,8
 303 58 303 58 338 74 c 128,-1,9
 373 90 373 90 394.5 119 c 128,-1,10
 416 148 416 148 416 187 c 0,11,12
 416 234 416 234 396 260 c 128,-1,13
 376 286 376 286 345 297.5 c 128,-1,14
 314 309 314 309 279 312 c 128,-1,15
 244 315 244 315 214 315 c 1,16,-1
 230 390 l 1,17,18
 270 390 270 390 308.5 393.5 c 128,-1,19
 347 397 347 397 378 408 c 128,-1,20
 409 419 409 419 427.5 442.5 c 128,-1,21
 446 466 446 466 446 506 c 0,22,23
 446 558 446 558 408 584 c 128,-1,24
 370 610 370 610 318 610 c 0,25,26
 257 610 257 610 221.5 579.5 c 128,-1,27
 186 549 186 549 169 498 c 1,28,-1
 91 523 l 1,29,30
 112 593 112 593 172 636.5 c 128,-1,31
 232 680 232 680 323 680 c 0,32,33
 361 680 361 680 399 671.5 c 128,-1,34
 437 663 437 663 468.5 644.5 c 128,-1,35
 500 626 500 626 519 595.5 c 128,-1,36
 538 565 538 565 538 520 c 0,37,38
 538 453 538 453 500.5 410 c 128,-1,39
 463 367 463 367 403 347 c 1,40,41
 461 328 461 328 483 288 c 128,-1,42
 505 248 505 248 505 198 c 0,43,44
 505 145 505 145 478 97 c 128,-1,45
 451 49 451 49 396.5 18.5 c 128,-1,46
 342 -12 342 -12 259 -12 c 0,0,1
EndSplineSet
Substitution2: "'tnum' Tabular Numbers lookup 14 subtable" three.tf
Substitution2: "'sups' Superscript lookup 9 subtable" uni00B3
AlternateSubs2: "'aalt' Access All Alternates lookup 1 subtable" uni00B3 three.tf
EndChar

StartChar: four
Encoding: 52 52 9
Width: 636
GlyphClass: 1
Flags: W
HStem: 0 21G<320 411.242> 165 79<127 356 459 566> 648 20G<441.811 549>
LayerCount: 2
Fore
SplineSet
320 0 m 1,0,-1
 356 165 l 1,1,-1
 17 165 l 1,2,-1
 34 244 l 1,3,-1
 462 668 l 1,4,-1
 549 668 l 1,5,-1
 459 244 l 1,6,-1
 583 244 l 1,7,-1
 566 165 l 1,8,-1
 442 165 l 1,9,-1
 407 0 l 1,10,-1
 320 0 l 1,0,-1
127 244 m 1,11,-1
 372 244 l 1,12,-1
 438 552 l 1,13,-1
 127 244 l 1,11,-1
EndSplineSet
Substitution2: "'tnum' Tabular Numbers lookup 14 subtable" four.tf
Substitution2: "'sups' Superscript lookup 9 subtable" uni2074
AlternateSubs2: "'aalt' Access All Alternates lookup 1 subtable" four.tf uni2074
EndChar

StartChar: five
Encoding: 53 53 10
Width: 575
GlyphClass: 1
Flags: W
HStem: -12 72<171.213 332.694> 377 73<206.032 356.465> 587 81<229 543>
VStem: 25 83<124.398 155.94> 410 91<140.393 325.239>
LayerCount: 2
Fore
SplineSet
252 -12 m 0,0,1
 153 -12 153 -12 97.5 35.5 c 128,-1,2
 42 83 42 83 25 154 c 1,3,-1
 108 177 l 1,4,5
 124 118 124 118 158.5 90 c 128,-1,6
 193 62 193 62 242 60 c 0,7,8
 319 58 319 58 364.5 107 c 128,-1,9
 410 156 410 156 410 238 c 0,10,11
 410 310 410 310 372.5 343.5 c 128,-1,12
 335 377 335 377 274 377 c 0,13,14
 225 377 225 377 191.5 355.5 c 128,-1,15
 158 334 158 334 141 305 c 1,16,-1
 63 329 l 1,17,-1
 176 668 l 1,18,-1
 561 668 l 1,19,-1
 543 587 l 1,20,-1
 229 587 l 1,21,-1
 166 400 l 1,22,23
 220 450 220 450 301 450 c 0,24,25
 352 450 352 450 397.5 427 c 128,-1,26
 443 404 443 404 472 358.5 c 128,-1,27
 501 313 501 313 501 247 c 0,28,29
 501 170 501 170 469 111.5 c 128,-1,30
 437 53 437 53 381 20.5 c 128,-1,31
 325 -12 325 -12 252 -12 c 0,0,1
EndSplineSet
Substitution2: "'tnum' Tabular Numbers lookup 14 subtable" five.tf
Substitution2: "'aalt' Access All Alternates lookup 0 subtable" five.tf
EndChar

StartChar: six
Encoding: 54 54 11
Width: 605
GlyphClass: 1
Flags: W
HStem: -12 70<211.001 365.527> 370 75<237.372 389.393> 610 70<285.501 436.096>
VStem: 62 89<121.839 348.132> 444 90<140.579 313.915>
LayerCount: 2
Fore
SplineSet
281 -12 m 0,0,1
 170 -12 170 -12 116 55 c 128,-1,2
 62 122 62 122 62 238 c 0,3,4
 62 324 62 324 82.5 403 c 128,-1,5
 103 482 103 482 142.5 544.5 c 128,-1,6
 182 607 182 607 240 643.5 c 128,-1,7
 298 680 298 680 372 680 c 0,8,9
 447 680 447 680 492 649 c 128,-1,10
 537 618 537 618 553 573 c 1,11,-1
 465 548 l 1,12,13
 454 577 454 577 429 593.5 c 128,-1,14
 404 610 404 610 363 610 c 0,15,16
 287 610 287 610 235.5 543 c 128,-1,17
 184 476 184 476 164 361 c 1,18,19
 189 398 189 398 233 421.5 c 128,-1,20
 277 445 277 445 336 445 c 256,21,22
 395 445 395 445 439.5 419 c 128,-1,23
 484 393 484 393 509 347 c 128,-1,24
 534 301 534 301 534 240 c 0,25,26
 534 173 534 173 505 115.5 c 128,-1,27
 476 58 476 58 419.5 23 c 128,-1,28
 363 -12 363 -12 281 -12 c 0,0,1
284 58 m 0,29,30
 331 58 331 58 367 80.5 c 128,-1,31
 403 103 403 103 423.5 142.5 c 128,-1,32
 444 182 444 182 444 232 c 0,33,34
 444 294 444 294 408.5 332 c 128,-1,35
 373 370 373 370 310 370 c 0,36,37
 240 370 240 370 195.5 324.5 c 128,-1,38
 151 279 151 279 151 205 c 0,39,40
 151 144 151 144 187 101 c 128,-1,41
 223 58 223 58 284 58 c 0,29,30
EndSplineSet
Substitution2: "'tnum' Tabular Numbers lookup 14 subtable" six.tf
Substitution2: "'aalt' Access All Alternates lookup 0 subtable" six.tf
EndChar

StartChar: seven
Encoding: 55 55 12
Width: 537
GlyphClass: 1
Flags: W
HStem: 0 21G<31 153.003> 587 81<96 445>
LayerCount: 2
Fore
SplineSet
31 0 m 1,0,-1
 445 587 l 1,1,-1
 78 587 l 1,2,-1
 96 668 l 1,3,-1
 567 668 l 1,4,-1
 550 587 l 1,5,-1
 139 0 l 1,6,-1
 31 0 l 1,0,-1
EndSplineSet
Substitution2: "'tnum' Tabular Numbers lookup 14 subtable" seven.tf
Substitution2: "'aalt' Access All Alternates lookup 0 subtable" seven.tf
EndChar

StartChar: eight
Encoding: 56 56 13
Width: 617
GlyphClass: 1
Flags: W
HStem: -12 75<179.939 372.578> 317 74<245.586 374.018> 605 75<262.233 392.776>
VStem: 38 91<108.773 249.561> 137 74<425.405 554.261> 427 74<443.161 570.199> 444 90<128.424 269.732>
LayerCount: 2
Fore
SplineSet
266 -12 m 0,0,1
 200 -12 200 -12 148.5 9 c 128,-1,2
 97 30 97 30 67.5 69.5 c 128,-1,3
 38 109 38 109 38 166 c 0,4,5
 38 240 38 240 78.5 291 c 128,-1,6
 119 342 119 342 181 365 c 1,7,8
 137 411 137 411 137 479 c 0,9,10
 137 533 137 533 165 579 c 128,-1,11
 193 625 193 625 239 652.5 c 128,-1,12
 285 680 285 680 338 680 c 0,13,14
 385 680 385 680 422 658 c 128,-1,15
 459 636 459 636 480 599 c 128,-1,16
 501 562 501 562 501 516 c 0,17,18
 501 472 501 472 481.5 432.5 c 128,-1,19
 462 393 462 393 429 365 c 1,20,21
 477 346 477 346 505.5 307 c 128,-1,22
 534 268 534 268 534 212 c 0,23,24
 534 140 534 140 497 90 c 128,-1,25
 460 40 460 40 399.5 14 c 128,-1,26
 339 -12 339 -12 266 -12 c 0,0,1
307 391 m 0,27,28
 339 391 339 391 366 407 c 128,-1,29
 393 423 393 423 410 450 c 128,-1,30
 427 477 427 477 427 509 c 0,31,32
 427 550 427 550 399 577.5 c 128,-1,33
 371 605 371 605 329 605 c 0,34,35
 298 605 298 605 271 589 c 128,-1,36
 244 573 244 573 227.5 546.5 c 128,-1,37
 211 520 211 520 211 487 c 0,38,39
 211 447 211 447 238.5 419 c 128,-1,40
 266 391 266 391 307 391 c 0,27,28
274 63 m 0,41,42
 349 63 349 63 396.5 100.5 c 128,-1,43
 444 138 444 138 444 203 c 0,44,45
 444 256 444 256 405.5 286.5 c 128,-1,46
 367 317 367 317 299 317 c 0,47,48
 225 317 225 317 177 278 c 128,-1,49
 129 239 129 239 129 174 c 0,50,51
 129 122 129 122 168 92.5 c 128,-1,52
 207 63 207 63 274 63 c 0,41,42
EndSplineSet
Substitution2: "'tnum' Tabular Numbers lookup 14 subtable" eight.tf
Substitution2: "'aalt' Access All Alternates lookup 0 subtable" eight.tf
EndChar

StartChar: nine
Encoding: 57 57 14
Width: 601
GlyphClass: 1
Flags: W
HStem: 0 21G<151 274> 209 79<236.531 334.447> 596 84<268.433 432.606>
VStem: 92 87<346.33 508.537> 487 87<384.364 541.163>
LayerCount: 2
Fore
SplineSet
151 0 m 1,0,-1
 335 211 l 1,1,2
 327 210 327 210 318.5 209.5 c 128,-1,3
 310 209 310 209 302 209 c 0,4,5
 235 209 235 209 188 237.5 c 128,-1,6
 141 266 141 266 116.5 313.5 c 128,-1,7
 92 361 92 361 92 416 c 0,8,9
 92 489 92 489 127.5 548.5 c 128,-1,10
 163 608 163 608 223.5 644 c 128,-1,11
 284 680 284 680 359 680 c 0,12,13
 422 680 422 680 470.5 651.5 c 128,-1,14
 519 623 519 623 546.5 575 c 128,-1,15
 574 527 574 527 574 468 c 0,16,17
 574 437 574 437 564 403 c 128,-1,18
 554 369 554 369 531 335 c 0,19,20
 502 291 502 291 462.5 239.5 c 128,-1,21
 423 188 423 188 383.5 139.5 c 128,-1,22
 344 91 344 91 312.5 54 c 128,-1,23
 281 17 281 17 267 0 c 1,24,-1
 151 0 l 1,0,-1
312 288 m 0,25,26
 361 288 361 288 400.5 314 c 128,-1,27
 440 340 440 340 463.5 381 c 128,-1,28
 487 422 487 422 487 467 c 0,29,30
 487 498 487 498 473 527.5 c 128,-1,31
 459 557 459 557 429.5 576.5 c 128,-1,32
 400 596 400 596 353 596 c 0,33,34
 308 596 308 596 268 574.5 c 128,-1,35
 228 553 228 553 203.5 514 c 128,-1,36
 179 475 179 475 179 423 c 0,37,38
 179 365 179 365 216.5 326.5 c 128,-1,39
 254 288 254 288 312 288 c 0,25,26
EndSplineSet
Substitution2: "'tnum' Tabular Numbers lookup 14 subtable" nine.tf
Substitution2: "'aalt' Access All Alternates lookup 0 subtable" nine.tf
EndChar

StartChar: A
Encoding: 65 65 15
Width: 627
GlyphClass: 2
Flags: W
HStem: 0 21G<-52 67.3699 459.123 565> 146 80<184 430> 648 20G<328.263 459.263>
AnchorPoint: "Anchor-2" 565 0 basechar 0
AnchorPoint: "Anchor-1" 387 668 basechar 0
AnchorPoint: "Anchor-0" 261 0 basechar 0
LayerCount: 2
Fore
SplineSet
-52 0 m 1,0,-1
 340 668 l 1,1,-1
 456 668 l 1,2,-1
 565 0 l 1,3,-1
 462 0 l 1,4,-1
 441 146 l 1,5,-1
 139 146 l 1,6,-1
 56 0 l 1,7,-1
 -52 0 l 1,0,-1
184 226 m 1,8,-1
 430 226 l 1,9,-1
 381 573 l 1,10,-1
 184 226 l 1,8,-1
EndSplineSet
Substitution2: "Single Substitution lookup 12 subtable" ordfeminine
Substitution2: "'aalt' Access All Alternates lookup 0 subtable" ordfeminine
EndChar

StartChar: B
Encoding: 66 66 16
Width: 625
GlyphClass: 1
Flags: W
HStem: 0 79<127 395.398> 308 74<192 430.946> 588 80<235 472.335>
VStem: 468 104<146.801 271.383> 504 100<436.786 556.877>
AnchorPoint: "Anchor-1" 342 668 basechar 0
LayerCount: 2
Fore
SplineSet
14 0 m 1,0,-1
 156 668 l 1,1,-1
 407 668 l 2,2,3
 475 668 475 668 518.5 647 c 128,-1,4
 562 626 562 626 583 591.5 c 128,-1,5
 604 557 604 557 604 518 c 0,6,7
 604 470 604 470 575 424 c 128,-1,8
 546 378 546 378 490 352 c 1,9,10
 531 336 531 336 551.5 300.5 c 128,-1,11
 572 265 572 265 572 221 c 0,12,13
 572 183 572 183 555.5 144 c 128,-1,14
 539 105 539 105 505.5 72.5 c 128,-1,15
 472 40 472 40 420.5 20 c 128,-1,16
 369 0 369 0 300 0 c 2,17,-1
 14 0 l 1,0,-1
192 382 m 1,18,-1
 364 382 l 2,19,20
 410 382 410 382 441 399.5 c 128,-1,21
 472 417 472 417 488 444 c 128,-1,22
 504 471 504 471 504 499 c 0,23,24
 504 534 504 534 478.5 561 c 128,-1,25
 453 588 453 588 400 588 c 2,26,-1
 235 588 l 1,27,-1
 192 382 l 1,18,-1
127 79 m 1,28,-1
 308 79 l 2,29,30
 359 79 359 79 394.5 99.5 c 128,-1,31
 430 120 430 120 449 151 c 128,-1,32
 468 182 468 182 468 213 c 0,33,34
 468 251 468 251 439 279.5 c 128,-1,35
 410 308 410 308 348 308 c 2,36,-1
 176 308 l 1,37,-1
 127 79 l 1,28,-1
EndSplineSet
EndChar

StartChar: C
Encoding: 67 67 17
Width: 661
GlyphClass: 2
Flags: W
HStem: -12 79<239.359 429.318> 498 21G<558 625.333> 600 80<314.286 501.398>
VStem: 53 96<165.053 400.344>
AnchorPoint: "Anchor-1" 420 668 basechar 0
AnchorPoint: "Anchor-0" 295 0 basechar 0
LayerCount: 2
Fore
SplineSet
315 -12 m 0,0,1
 243 -12 243 -12 193 11 c 128,-1,2
 143 34 143 34 112 73 c 128,-1,3
 81 112 81 112 67 161.5 c 128,-1,4
 53 211 53 211 53 263 c 0,5,6
 53 346 53 346 80 421.5 c 128,-1,7
 107 497 107 497 156 555 c 128,-1,8
 205 613 205 613 272.5 646.5 c 128,-1,9
 340 680 340 680 421 680 c 0,10,11
 508 680 508 680 569.5 642.5 c 128,-1,12
 631 605 631 605 655 528 c 1,13,-1
 566 498 l 1,14,15
 550 548 550 548 509 574 c 128,-1,16
 468 600 468 600 411 600 c 0,17,18
 351 600 351 600 302.5 572 c 128,-1,19
 254 544 254 544 220 497 c 128,-1,20
 186 450 186 450 167.5 391.5 c 128,-1,21
 149 333 149 333 149 272 c 0,22,23
 149 212 149 212 170.5 165.5 c 128,-1,24
 192 119 192 119 232 93 c 128,-1,25
 272 67 272 67 325 67 c 0,26,27
 390 67 390 67 435 92 c 128,-1,28
 480 117 480 117 516 171 c 1,29,-1
 595 140 l 1,30,31
 548 64 548 64 476 26 c 128,-1,32
 404 -12 404 -12 315 -12 c 0,0,1
EndSplineSet
EndChar

StartChar: D
Encoding: 68 68 18
Width: 674
GlyphClass: 2
Flags: W
HStem: 0 79<127 355.686> 588 80<235 449.731>
AnchorPoint: "Anchor-1" 378 668 basechar 0
AnchorPoint: "Anchor-0" 285 0 basechar 0
LayerCount: 2
Fore
SplineSet
14 0 m 1,0,-1
 156 668 l 1,1,-1
 340 668 l 2,2,3
 518 668 518 668 589 581 c 128,-1,4
 660 494 660 494 631 319 c 0,5,6
 613 212 613 212 554 141 c 128,-1,7
 495 70 495 70 404 35 c 128,-1,8
 313 0 313 0 199 0 c 2,9,-1
 14 0 l 1,0,-1
127 79 m 1,10,-1
 213 79 l 2,11,12
 295 79 295 79 362 102.5 c 128,-1,13
 429 126 429 126 475 180 c 128,-1,14
 521 234 521 234 536 325 c 0,15,16
 560 466 560 466 508.5 527 c 128,-1,17
 457 588 457 588 320 588 c 2,18,-1
 235 588 l 1,19,-1
 127 79 l 1,10,-1
EndSplineSet
EndChar

StartChar: E
Encoding: 69 69 19
Width: 565
GlyphClass: 2
Flags: W
HStem: 0 81<127 469> 304 80<192 439> 587 81<235 594>
AnchorPoint: "Anchor-2" 438 0 basechar 0
AnchorPoint: "Anchor-1" 380 668 basechar 0
AnchorPoint: "Anchor-0" 230 0 basechar 0
LayerCount: 2
Fore
SplineSet
14 0 m 1,0,-1
 156 668 l 1,1,-1
 611 668 l 1,2,-1
 594 587 l 1,3,-1
 235 587 l 1,4,-1
 192 384 l 1,5,-1
 457 384 l 1,6,-1
 439 304 l 1,7,-1
 175 304 l 1,8,-1
 127 81 l 1,9,-1
 486 81 l 1,10,-1
 469 0 l 1,11,-1
 14 0 l 1,0,-1
EndSplineSet
EndChar

StartChar: F
Encoding: 70 70 20
Width: 546
GlyphClass: 1
Flags: W
HStem: 0 21G<14 114.276> 304 80<192 514> 587 81<235 574>
AnchorPoint: "Anchor-1" 374 668 basechar 0
LayerCount: 2
Fore
SplineSet
14 0 m 1,0,-1
 156 668 l 1,1,-1
 592 668 l 1,2,-1
 574 587 l 1,3,-1
 235 587 l 1,4,-1
 192 384 l 1,5,-1
 531 384 l 1,6,-1
 514 304 l 1,7,-1
 175 304 l 1,8,-1
 110 0 l 1,9,-1
 14 0 l 1,0,-1
EndSplineSet
EndChar

StartChar: G
Encoding: 71 71 21
Width: 712
GlyphClass: 2
Flags: W
HStem: -12 79<238.348 415.356> 0 21G<523.537 585.302> 264 80<368 547> 498 21G<561 625.333> 600 80<313.4 503.511>
VStem: 54 96<163.287 404.444> 525 56<0 32.5405>
AnchorPoint: "Anchor-1" 445 668 basechar 0
AnchorPoint: "Anchor-0" 303 0 basechar 0
LayerCount: 2
Fore
SplineSet
300 -12 m 0,0,1
 222 -12 222 -12 167 23 c 128,-1,2
 112 58 112 58 83 120.5 c 128,-1,3
 54 183 54 183 54 265 c 0,4,5
 54 349 54 349 80.5 424 c 128,-1,6
 107 499 107 499 155.5 556.5 c 128,-1,7
 204 614 204 614 271 647 c 128,-1,8
 338 680 338 680 418 680 c 0,9,10
 511 680 511 680 572 642 c 128,-1,11
 633 604 633 604 655 528 c 1,12,-1
 566 498 l 1,13,14
 556 536 556 536 518 568 c 128,-1,15
 480 600 480 600 411 600 c 0,16,17
 350 600 350 600 302 572.5 c 128,-1,18
 254 545 254 545 220 498 c 128,-1,19
 186 451 186 451 168 393 c 128,-1,20
 150 335 150 335 150 273 c 0,21,22
 150 177 150 177 197.5 123 c 128,-1,23
 245 69 245 69 317 67 c 0,24,25
 367 65 367 65 412 80.5 c 128,-1,26
 457 96 457 96 491.5 135.5 c 128,-1,27
 526 175 526 175 542 243 c 2,28,-1
 547 264 l 1,29,-1
 351 264 l 1,30,-1
 368 344 l 1,31,-1
 655 344 l 1,32,-1
 581 0 l 1,33,-1
 525 0 l 1,34,-1
 519 82 l 1,35,36
 435 -12 435 -12 300 -12 c 0,0,1
EndSplineSet
EndChar

StartChar: H
Encoding: 72 72 22
Width: 694
GlyphClass: 1
Flags: W
HStem: 0 21G<14 114.276 460 560.251> 304 80<192 524> 648 20G<151.749 252 597.775 698>
LayerCount: 2
Fore
SplineSet
14 0 m 1,0,-1
 156 668 l 1,1,-1
 252 668 l 1,2,-1
 192 384 l 1,3,-1
 542 384 l 1,4,-1
 602 668 l 1,5,-1
 698 668 l 1,6,-1
 556 0 l 1,7,-1
 460 0 l 1,8,-1
 524 304 l 1,9,-1
 175 304 l 1,10,-1
 110 0 l 1,11,-1
 14 0 l 1,0,-1
EndSplineSet
EndChar

StartChar: I
Encoding: 73 73 23
Width: 414
GlyphClass: 2
Flags: W
HStem: 0 75<20 113 209 285> 593 75<146 223 318 412>
AnchorPoint: "Anchor-2" 196 0 basechar 0
AnchorPoint: "Anchor-1" 287 668 basechar 0
AnchorPoint: "Anchor-0" 150 0 basechar 0
LayerCount: 2
Fore
SplineSet
4 0 m 1,0,-1
 20 75 l 1,1,-1
 113 75 l 1,2,-1
 223 593 l 1,3,-1
 130 593 l 1,4,-1
 146 668 l 1,5,-1
 427 668 l 1,6,-1
 412 593 l 1,7,-1
 318 593 l 1,8,-1
 209 75 l 1,9,-1
 301 75 l 1,10,-1
 285 0 l 1,11,-1
 4 0 l 1,0,-1
EndSplineSet
EndChar

StartChar: J
Encoding: 74 74 24
Width: 509
GlyphClass: 1
Flags: W
HStem: -12 77<107.091 252.021> 648 20G<412.736 513>
LayerCount: 2
Fore
SplineSet
163 -12 m 0,0,1
 75 -12 75 -12 29 43.5 c 128,-1,2
 -17 99 -17 99 -7 190 c 1,3,-1
 83 214 l 1,4,5
 81 201 81 201 79.5 189 c 128,-1,6
 78 177 78 177 78 166 c 0,7,8
 78 117 78 117 102 91 c 128,-1,9
 126 65 126 65 175 65 c 0,10,11
 207 65 207 65 235 77 c 128,-1,12
 263 89 263 89 285 121 c 128,-1,13
 307 153 307 153 320 213 c 2,14,-1
 417 668 l 1,15,-1
 513 668 l 1,16,-1
 416 212 l 2,17,18
 399 131 399 131 369 85 c 128,-1,19
 339 39 339 39 303 18.5 c 128,-1,20
 267 -2 267 -2 230.5 -7 c 128,-1,21
 194 -12 194 -12 163 -12 c 0,0,1
EndSplineSet
EndChar

StartChar: K
Encoding: 75 75 25
Width: 623
GlyphClass: 2
Flags: W
HStem: 0 21G<14 114.286 435.815 551> 648 20G<151.749 252 517.895 670>
AnchorPoint: "Anchor-1" 401 668 basechar 0
AnchorPoint: "Anchor-0" 259 0 basechar 0
LayerCount: 2
Fore
SplineSet
14 0 m 1,0,-1
 156 668 l 1,1,-1
 252 668 l 1,2,-1
 183 345 l 1,3,-1
 540 668 l 1,4,-1
 670 668 l 1,5,-1
 351 385 l 1,6,-1
 551 0 l 1,7,-1
 446 0 l 1,8,-1
 281 324 l 1,9,-1
 155 210 l 1,10,-1
 110 0 l 1,11,-1
 14 0 l 1,0,-1
EndSplineSet
EndChar

StartChar: L
Encoding: 76 76 26
Width: 541
GlyphClass: 2
Flags: W
HStem: 0 81<127 469> 648 20G<151.749 252>
AnchorPoint: "Anchor-1" 224 668 basechar 0
AnchorPoint: "Anchor-0" 218 0 basechar 0
LayerCount: 2
Fore
SplineSet
14 0 m 1,0,-1
 156 668 l 1,1,-1
 252 668 l 1,2,-1
 127 81 l 1,3,-1
 486 81 l 1,4,-1
 469 0 l 1,5,-1
 14 0 l 1,0,-1
EndSplineSet
EndChar

StartChar: M
Encoding: 77 77 27
Width: 824
GlyphClass: 1
Flags: W
HStem: 0 21G<14 114.278 302.496 411.055 590 690.251> 648 20G<151.749 314.288 655.225 828>
AnchorPoint: "Anchor-1" 473 668 basechar 0
LayerCount: 2
Fore
SplineSet
14 0 m 1,0,-1
 156 668 l 1,1,-1
 312 668 l 1,2,-1
 374 126 l 1,3,-1
 666 668 l 1,4,-1
 828 668 l 1,5,-1
 686 0 l 1,6,-1
 590 0 l 1,7,-1
 709 559 l 1,8,-1
 400 0 l 1,9,-1
 305 0 l 1,10,-1
 233 575 l 1,11,-1
 110 0 l 1,12,-1
 14 0 l 1,0,-1
EndSplineSet
EndChar

StartChar: N
Encoding: 78 78 28
Width: 693
GlyphClass: 2
Flags: W
HStem: 0 21G<14 114.271 411.576 559.251> 648 20G<151.749 299.481 596.749 697>
AnchorPoint: "Anchor-1" 436 668 basechar 0
AnchorPoint: "Anchor-0" 264 0 basechar 0
LayerCount: 2
Fore
SplineSet
14 0 m 1,0,-1
 156 668 l 1,1,-1
 293 668 l 1,2,-1
 479 94 l 1,3,-1
 601 668 l 1,4,-1
 697 668 l 1,5,-1
 555 0 l 1,6,-1
 418 0 l 1,7,-1
 233 576 l 1,8,-1
 110 0 l 1,9,-1
 14 0 l 1,0,-1
EndSplineSet
EndChar

StartChar: O
Encoding: 79 79 29
Width: 728
GlyphClass: 2
Flags: W
HStem: -12 79<239.011 427.429> 600 80<318.327 506.59>
VStem: 55 95<162.166 403.618> 596 95<266.193 504.46>
AnchorPoint: "Anchor-2" 604 10 basechar 0
AnchorPoint: "Anchor-1" 438 668 basechar 0
AnchorPoint: "Anchor-0" 311 0 basechar 0
LayerCount: 2
Fore
SplineSet
312 -12 m 0,0,1
 231 -12 231 -12 173.5 24.5 c 128,-1,2
 116 61 116 61 85.5 124.5 c 128,-1,3
 55 188 55 188 55 268 c 0,4,5
 55 355 55 355 82 429.5 c 128,-1,6
 109 504 109 504 158.5 560.5 c 128,-1,7
 208 617 208 617 278 648.5 c 128,-1,8
 348 680 348 680 433 680 c 0,9,10
 515 680 515 680 572.5 643 c 128,-1,11
 630 606 630 606 660.5 543 c 128,-1,12
 691 480 691 480 691 401 c 0,13,14
 691 315 691 315 663.5 240 c 128,-1,15
 636 165 636 165 585.5 108.5 c 128,-1,16
 535 52 535 52 465.5 20 c 128,-1,17
 396 -12 396 -12 312 -12 c 0,0,1
325 67 m 0,18,19
 388 67 388 67 438.5 94.5 c 128,-1,20
 489 122 489 122 524 169 c 128,-1,21
 559 216 559 216 577.5 275.5 c 128,-1,22
 596 335 596 335 596 399 c 0,23,24
 596 464 596 464 572.5 509 c 128,-1,25
 549 554 549 554 509 577 c 128,-1,26
 469 600 469 600 420 600 c 0,27,28
 357 600 357 600 307 573 c 128,-1,29
 257 546 257 546 222 500 c 128,-1,30
 187 454 187 454 168.5 394.5 c 128,-1,31
 150 335 150 335 150 269 c 0,32,33
 150 204 150 204 173.5 158.5 c 128,-1,34
 197 113 197 113 236.5 90 c 128,-1,35
 276 67 276 67 325 67 c 0,18,19
EndSplineSet
Substitution2: "Single Substitution lookup 12 subtable" ordmasculine
Substitution2: "'aalt' Access All Alternates lookup 0 subtable" ordmasculine
EndChar

StartChar: P
Encoding: 80 80 30
Width: 597
GlyphClass: 1
Flags: W
HStem: 0 21G<14 114.226> 265 81<184 435.645> 588 80<235 464.979>
VStem: 503 98<406.168 553.717>
AnchorPoint: "Anchor-1" 349 668 basechar 0
LayerCount: 2
Fore
SplineSet
14 0 m 1,0,-1
 156 668 l 1,1,-1
 342 668 l 2,2,3
 385 668 385 668 430.5 662.5 c 128,-1,4
 476 657 476 657 514.5 639.5 c 128,-1,5
 553 622 553 622 577 588 c 128,-1,6
 601 554 601 554 601 497 c 0,7,8
 601 410 601 410 561.5 359 c 128,-1,9
 522 308 522 308 451.5 286.5 c 128,-1,10
 381 265 381 265 287 265 c 2,11,-1
 166 265 l 1,12,-1
 110 0 l 1,13,-1
 14 0 l 1,0,-1
184 346 m 1,14,-1
 311 346 l 2,15,16
 370 346 370 346 413 359 c 128,-1,17
 456 372 456 372 479.5 403 c 128,-1,18
 503 434 503 434 503 488 c 0,19,20
 503 548 503 548 461.5 568 c 128,-1,21
 420 588 420 588 351 588 c 2,22,-1
 235 588 l 1,23,-1
 184 346 l 1,14,-1
EndSplineSet
EndChar

StartChar: Q
Encoding: 81 81 31
Width: 748
GlyphClass: 1
Flags: W
HStem: 5 79<242.011 431.331> 617 79<321.327 509.59>
VStem: 58 95<179.166 420.119> 599 95<284.943 522.387>
LayerCount: 2
Fore
SplineSet
617 -55 m 1,0,-1
 517 62 l 1,1,2
 477 35 477 35 427 20 c 128,-1,3
 377 5 377 5 315 5 c 0,4,5
 234 5 234 5 176.5 41.5 c 128,-1,6
 119 78 119 78 88.5 141.5 c 128,-1,7
 58 205 58 205 58 285 c 0,8,9
 58 372 58 372 85 446.5 c 128,-1,10
 112 521 112 521 161.5 577 c 128,-1,11
 211 633 211 633 281 664.5 c 128,-1,12
 351 696 351 696 436 696 c 0,13,14
 518 696 518 696 575.5 659 c 128,-1,15
 633 622 633 622 663.5 559.5 c 128,-1,16
 694 497 694 497 694 418 c 0,17,18
 694 367 694 367 681.5 313 c 128,-1,19
 669 259 669 259 645 210 c 128,-1,20
 621 161 621 161 588 123 c 1,21,-1
 687 7 l 1,22,-1
 617 -55 l 1,0,-1
328 84 m 0,23,24
 404 84 404 84 464 124 c 1,25,-1
 328 284 l 1,26,-1
 399 344 l 1,27,-1
 531 190 l 1,28,29
 564 237 564 237 581.5 298.5 c 128,-1,30
 599 360 599 360 599 415 c 0,31,32
 599 481 599 481 575.5 526 c 128,-1,33
 552 571 552 571 512 594 c 128,-1,34
 472 617 472 617 423 617 c 0,35,36
 360 617 360 617 310 590 c 128,-1,37
 260 563 260 563 225 516.5 c 128,-1,38
 190 470 190 470 171.5 410.5 c 128,-1,39
 153 351 153 351 153 286 c 256,40,41
 153 221 153 221 176.5 175.5 c 128,-1,42
 200 130 200 130 239.5 107 c 128,-1,43
 279 84 279 84 328 84 c 0,23,24
EndSplineSet
EndChar

StartChar: R
Encoding: 82 82 32
Width: 610
GlyphClass: 2
Flags: W
HStem: 0 21G<14 114.27 402.822 518> 281 79<187 270> 588 80<235 467.876>
VStem: 503 98<414.113 556.37>
AnchorPoint: "Anchor-1" 374 668 basechar 0
AnchorPoint: "Anchor-0" 252 0 basechar 0
LayerCount: 2
Fore
SplineSet
14 0 m 1,0,-1
 156 668 l 1,1,-1
 360 668 l 2,2,3
 433 668 433 668 487 653 c 128,-1,4
 541 638 541 638 571 603 c 128,-1,5
 601 568 601 568 601 508 c 0,6,7
 601 408 601 408 539.5 353 c 128,-1,8
 478 298 478 298 371 288 c 1,9,-1
 518 0 l 1,10,-1
 413 0 l 1,11,-1
 270 281 l 1,12,-1
 170 281 l 1,13,-1
 110 0 l 1,14,-1
 14 0 l 1,0,-1
187 360 m 1,15,-1
 311 360 l 2,16,17
 368 360 368 360 411.5 371 c 128,-1,18
 455 382 455 382 479 411 c 128,-1,19
 503 440 503 440 503 495 c 0,20,21
 503 551 503 551 462.5 569.5 c 128,-1,22
 422 588 422 588 352 588 c 2,23,-1
 235 588 l 1,24,-1
 187 360 l 1,15,-1
EndSplineSet
EndChar

StartChar: S
Encoding: 83 83 33
Width: 609
GlyphClass: 2
Flags: W
HStem: -12 79<200.902 384.485> 601 79<229.674 415.29>
VStem: 87 95<441.809 558.467> 446 98<121.118 243.68>
AnchorPoint: "Anchor-1" 356 668 basechar 0
AnchorPoint: "Anchor-0" 277 0 basechar 0
LayerCount: 2
Fore
SplineSet
285 -12 m 0,0,1
 232 -12 232 -12 182 5 c 128,-1,2
 132 22 132 22 93.5 57.5 c 128,-1,3
 55 93 55 93 36 147 c 1,4,-1
 127 172 l 1,5,6
 146 118 146 118 193.5 92.5 c 128,-1,7
 241 67 241 67 293 67 c 0,8,9
 332 67 332 67 367 80.5 c 128,-1,10
 402 94 402 94 424 120.5 c 128,-1,11
 446 147 446 147 446 184 c 0,12,13
 446 220 446 220 426.5 241.5 c 128,-1,14
 407 263 407 263 375 277 c 128,-1,15
 343 291 343 291 305 302 c 128,-1,16
 267 313 267 313 228.5 326 c 128,-1,17
 190 339 190 339 158 359 c 128,-1,18
 126 379 126 379 106.5 411.5 c 128,-1,19
 87 444 87 444 87 495 c 0,20,21
 87 557 87 557 121.5 598 c 128,-1,22
 156 639 156 639 210 659.5 c 128,-1,23
 264 680 264 680 324 680 c 0,24,25
 373 680 373 680 420 666 c 128,-1,26
 467 652 467 652 504.5 624.5 c 128,-1,27
 542 597 542 597 561 555 c 1,28,-1
 469 529 l 1,29,30
 451 564 451 564 408.5 582.5 c 128,-1,31
 366 601 366 601 320 601 c 0,32,33
 284 601 284 601 252.5 590 c 128,-1,34
 221 579 221 579 201.5 556 c 128,-1,35
 182 533 182 533 182 498 c 0,36,37
 182 465 182 465 201.5 444 c 128,-1,38
 221 423 221 423 253.5 409.5 c 128,-1,39
 286 396 286 396 324.5 385 c 128,-1,40
 363 374 363 374 401.5 360.5 c 128,-1,41
 440 347 440 347 472.5 327 c 128,-1,42
 505 307 505 307 524.5 276 c 128,-1,43
 544 245 544 245 544 197 c 0,44,45
 544 147 544 147 522 108 c 128,-1,46
 500 69 500 69 463 42.5 c 128,-1,47
 426 16 426 16 380 2 c 128,-1,48
 334 -12 334 -12 285 -12 c 0,0,1
EndSplineSet
EndChar

StartChar: T
Encoding: 84 84 34
Width: 558
GlyphClass: 2
Flags: W
HStem: 0 21G<169 270.191> 587 81<90 293 389 611>
AnchorPoint: "Anchor-1" 356 668 basechar 0
AnchorPoint: "Anchor-0" 218 0 basechar 0
LayerCount: 2
Fore
SplineSet
169 0 m 1,0,-1
 293 587 l 1,1,-1
 73 587 l 1,2,-1
 90 668 l 1,3,-1
 628 668 l 1,4,-1
 611 587 l 1,5,-1
 389 587 l 1,6,-1
 266 0 l 1,7,-1
 169 0 l 1,0,-1
EndSplineSet
EndChar

StartChar: U
Encoding: 85 85 35
Width: 693
GlyphClass: 2
Flags: W
HStem: -12 81<198.491 404.436> 648 20G<152.722 253 596.707 697>
VStem: 61 98<107.6 316.375>
AnchorPoint: "Anchor-2" 352 0 basechar 0
AnchorPoint: "Anchor-1" 415 668 basechar 0
AnchorPoint: "Anchor-0" 294 0 basechar 0
LayerCount: 2
Fore
SplineSet
286 -12 m 0,0,1
 174 -12 174 -12 117.5 33 c 128,-1,2
 61 78 61 78 61 175 c 0,3,4
 61 198 61 198 64.5 224.5 c 128,-1,5
 68 251 68 251 74 280 c 2,6,-1
 157 668 l 1,7,-1
 253 668 l 1,8,-1
 169 272 l 2,9,10
 164 247 164 247 161.5 225.5 c 128,-1,11
 159 204 159 204 159 186 c 0,12,13
 159 125 159 125 190 97 c 128,-1,14
 221 69 221 69 291 69 c 0,15,16
 352 69 352 69 396 87 c 128,-1,17
 440 105 440 105 469.5 149.5 c 128,-1,18
 499 194 499 194 516 272 c 2,19,-1
 601 668 l 1,20,-1
 697 668 l 1,21,-1
 614 280 l 2,22,23
 593 180 593 180 557 121 c 128,-1,24
 521 62 521 62 476 33.5 c 128,-1,25
 431 5 431 5 382 -3.5 c 128,-1,26
 333 -12 333 -12 286 -12 c 0,0,1
EndSplineSet
EndChar

StartChar: V
Encoding: 86 86 36
Width: 592
GlyphClass: 1
Flags: W
HStem: 0 21G<175.365 301.138> 648 20G<90 191.222 540.247 662>
VStem: 90 99<614.864 668>
LayerCount: 2
Fore
SplineSet
178 0 m 1,0,-1
 90 668 l 1,1,-1
 189 668 l 1,2,-1
 251 110 l 1,3,-1
 551 668 l 1,4,-1
 662 668 l 1,5,-1
 290 0 l 1,6,-1
 178 0 l 1,0,-1
EndSplineSet
EndChar

StartChar: W
Encoding: 87 87 37
Width: 844
GlyphClass: 1
Flags: W
HStem: 0 21G<115.222 235.893 482.601 613.281> 648 20G<90 190.444 427.333 549.181 794.926 914>
VStem: 90 100<488.154 668> 116 86<128 179.846> 472 77<200.364 551> 483 71<117 350.636>
AnchorPoint: "Anchor-1" 488 668 basechar 0
LayerCount: 2
Fore
SplineSet
116 0 m 1,0,-1
 90 668 l 1,1,-1
 190 668 l 1,2,-1
 202 128 l 1,3,-1
 436 668 l 1,4,-1
 549 668 l 1,5,-1
 554 117 l 1,6,-1
 804 668 l 1,7,-1
 914 668 l 1,8,-1
 604 0 l 1,9,-1
 483 0 l 1,10,-1
 472 551 l 1,11,-1
 227 0 l 1,12,-1
 116 0 l 1,0,-1
EndSplineSet
EndChar

StartChar: X
Encoding: 88 88 38
Width: 624
GlyphClass: 1
Flags: W
HStem: 0 21G<-52 91.4848 439 552> 648 20G<116 227.878 547.469 691>
LayerCount: 2
Fore
SplineSet
-52 0 m 1,0,-1
 274 351 l 1,1,-1
 116 668 l 1,2,-1
 218 668 l 1,3,-1
 339 423 l 1,4,-1
 566 668 l 1,5,-1
 691 668 l 1,6,-1
 383 336 l 1,7,-1
 552 0 l 1,8,-1
 449 0 l 1,9,-1
 317 264 l 1,10,-1
 73 0 l 1,11,-1
 -52 0 l 1,0,-1
EndSplineSet
EndChar

StartChar: Y
Encoding: 89 89 39
Width: 598
GlyphClass: 2
Flags: W
HStem: 0 21G<177 278.25> 648 20G<90 192.172 538.332 668>
AnchorPoint: "Anchor-1" 362 668 basechar 0
AnchorPoint: "Anchor-0" 246 0 basechar 0
LayerCount: 2
Fore
SplineSet
177 0 m 1,0,-1
 229 240 l 1,1,-1
 90 668 l 1,2,-1
 186 668 l 1,3,-1
 290 331 l 1,4,-1
 554 668 l 1,5,-1
 668 668 l 1,6,-1
 325 240 l 1,7,-1
 274 0 l 1,8,-1
 177 0 l 1,0,-1
EndSplineSet
EndChar

StartChar: Z
Encoding: 90 90 40
Width: 613
GlyphClass: 2
Flags: W
HStem: 0 81<123 506> 587 81<145 500>
AnchorPoint: "Anchor-1" 388 668 basechar 0
AnchorPoint: "Anchor-0" 254 0 basechar 0
LayerCount: 2
Fore
SplineSet
-18 0 m 1,0,-1
 -1 81 l 1,1,-1
 500 587 l 1,2,-1
 128 587 l 1,3,-1
 145 668 l 1,4,-1
 640 668 l 1,5,-1
 623 587 l 1,6,-1
 123 81 l 1,7,-1
 524 81 l 1,8,-1
 506 0 l 1,9,-1
 -18 0 l 1,0,-1
EndSplineSet
EndChar

StartChar: a
Encoding: 97 97 41
Width: 521
GlyphClass: 2
Flags: W
HStem: -12 69<120.824 257.897> 0 21G<327.73 408.5> 436 68<205.059 355.656>
VStem: 5 94<75.8781 182.127> 329 79<0 62.4489> 377 85<308.437 414.041>
AnchorPoint: "Anchor-2" 408 0 basechar 0
AnchorPoint: "Anchor-1" 311 496 basechar 0
AnchorPoint: "Anchor-0" 208 0 basechar 0
LayerCount: 2
Fore
SplineSet
154 -12 m 0,0,1
 90 -12 90 -12 47.5 23 c 128,-1,2
 5 58 5 58 5 117 c 0,3,4
 5 167 5 167 31.5 200 c 128,-1,5
 58 233 58 233 100.5 253 c 128,-1,6
 143 273 143 273 192.5 283.5 c 128,-1,7
 242 294 242 294 289 299 c 128,-1,8
 336 304 336 304 370 308 c 1,9,10
 373 322 373 322 375 334 c 128,-1,11
 377 346 377 346 377 357 c 0,12,13
 377 436 377 436 285 436 c 0,14,15
 239 436 239 436 207 415.5 c 128,-1,16
 175 395 175 395 158 359 c 1,17,-1
 83 382 l 1,18,19
 109 438 109 438 159 471 c 128,-1,20
 209 504 209 504 281 504 c 0,21,22
 368 504 368 504 415 469 c 128,-1,23
 462 434 462 434 462 361 c 0,24,25
 462 344 462 344 459.5 327 c 128,-1,26
 457 310 457 310 450.5 279 c 128,-1,27
 444 248 444 248 431 188 c 0,28,29
 418 126 418 126 413.5 80.5 c 128,-1,30
 409 35 409 35 408 0 c 1,31,-1
 329 0 l 1,32,-1
 325 63 l 1,33,34
 292 26 292 26 252.5 7 c 128,-1,35
 213 -12 213 -12 154 -12 c 0,0,1
181 57 m 0,36,37
 249 57 249 57 297.5 102.5 c 128,-1,38
 346 148 346 148 359 224 c 2,39,-1
 362 241 l 1,40,41
 279 233 279 233 220 222.5 c 128,-1,42
 161 212 161 212 130 190 c 128,-1,43
 99 168 99 168 99 125 c 0,44,45
 99 91 99 91 123 74 c 128,-1,46
 147 57 147 57 181 57 c 0,36,37
EndSplineSet
Substitution2: "Single Substitution lookup 12 subtable" ordfeminine
Substitution2: "'aalt' Access All Alternates lookup 0 subtable" ordfeminine
EndChar

StartChar: b
Encoding: 98 98 42
Width: 555
GlyphClass: 1
Flags: W
HStem: -12 72<190.8 329.228> 0 21G<7 81> 432 72<241.367 375.104> 648 20G<144.749 235>
VStem: 419 90<175.311 383.983>
AnchorPoint: "Anchor-1" 333 496 basechar 0
AnchorPoint: "Anchor-0" 266 -12 basechar 0
LayerCount: 2
Fore
SplineSet
266 -12 m 0,0,1
 210 -12 210 -12 172.5 13.5 c 128,-1,2
 135 39 135 39 112 82 c 1,3,-1
 71 0 l 1,4,-1
 7 0 l 1,5,-1
 149 668 l 1,6,-1
 235 668 l 1,7,-1
 184 430 l 1,8,9
 218 474 218 474 255 489 c 128,-1,10
 292 504 292 504 324 504 c 0,11,12
 395 504 395 504 435 473 c 128,-1,13
 475 442 475 442 492 393.5 c 128,-1,14
 509 345 509 345 509 293 c 0,15,16
 509 239 509 239 493.5 185.5 c 128,-1,17
 478 132 478 132 447.5 87 c 128,-1,18
 417 42 417 42 371.5 15 c 128,-1,19
 326 -12 326 -12 266 -12 c 0,0,1
257 60 m 0,20,21
 300 60 300 60 330.5 82.5 c 128,-1,22
 361 105 361 105 380.5 140 c 128,-1,23
 400 175 400 175 409.5 215 c 128,-1,24
 419 255 419 255 419 291 c 0,25,26
 419 353 419 353 392 392.5 c 128,-1,27
 365 432 365 432 307 432 c 0,28,29
 266 432 266 432 234.5 411.5 c 128,-1,30
 203 391 203 391 181.5 358 c 128,-1,31
 160 325 160 325 149 286 c 128,-1,32
 138 247 138 247 138 211 c 0,33,34
 138 172 138 172 151 137.5 c 128,-1,35
 164 103 164 103 190.5 81.5 c 128,-1,36
 217 60 217 60 257 60 c 0,20,21
EndSplineSet
EndChar

StartChar: c
Encoding: 99 99 43
Width: 495
GlyphClass: 2
Flags: W
HStem: -12 74<162.374 318.755> 430 74<213.851 366.033>
VStem: 26 92<109.917 313.975>
AnchorPoint: "Anchor-1" 301 496 basechar 0
AnchorPoint: "Anchor-0" 195 0 basechar 0
LayerCount: 2
Fore
SplineSet
222 -12 m 0,0,1
 129 -12 129 -12 77.5 43 c 128,-1,2
 26 98 26 98 26 192 c 0,3,4
 26 277 26 277 59.5 347.5 c 128,-1,5
 93 418 93 418 154.5 461 c 128,-1,6
 216 504 216 504 298 504 c 0,7,8
 366 504 366 504 412 475.5 c 128,-1,9
 458 447 458 447 483 393 c 1,10,-1
 400 364 l 1,11,12
 390 394 390 394 361 412 c 128,-1,13
 332 430 332 430 294 430 c 0,14,15
 237 430 237 430 198 397 c 128,-1,16
 159 364 159 364 138.5 311 c 128,-1,17
 118 258 118 258 118 197 c 0,18,19
 118 140 118 140 145.5 101 c 128,-1,20
 173 62 173 62 241 62 c 0,21,22
 282 62 282 62 312.5 79.5 c 128,-1,23
 343 97 343 97 365 127 c 1,24,-1
 436 99 l 1,25,26
 402 44 402 44 345.5 16 c 128,-1,27
 289 -12 289 -12 222 -12 c 0,0,1
EndSplineSet
EndChar

StartChar: d
Encoding: 100 100 44
Width: 555
GlyphClass: 2
Flags: W
HStem: -12 72<163.435 297.71> 0 21G<359.361 442.5> 432 72<207.255 348.861> 648 20G<476.778 567>
VStem: 27 90<109.02 316.004> 398 44<0 281>
AnchorPoint: "Anchor-1" 271 496 basechar 0
AnchorPoint: "Anchor-0" 225 0 basechar 0
LayerCount: 2
Fore
SplineSet
205 -12 m 0,0,1
 149 -12 149 -12 109 15 c 128,-1,2
 69 42 69 42 48 89.5 c 128,-1,3
 27 137 27 137 27 198 c 0,4,5
 27 258 27 258 44 312.5 c 128,-1,6
 61 367 61 367 92.5 410.5 c 128,-1,7
 124 454 124 454 169 479 c 128,-1,8
 214 504 214 504 271 504 c 0,9,10
 330 504 330 504 370 473.5 c 128,-1,11
 410 443 410 443 424 398 c 1,12,-1
 481 668 l 1,13,-1
 567 668 l 1,14,15
 567 668 567 668 561.5 641.5 c 128,-1,16
 556 615 556 615 546.5 570.5 c 128,-1,17
 537 526 537 526 525.5 473 c 128,-1,18
 514 420 514 420 502.5 365.5 c 128,-1,19
 491 311 491 311 481 264.5 c 128,-1,20
 471 218 471 218 465 188 c 0,21,22
 460 163 460 163 451.5 114 c 128,-1,23
 443 65 443 65 442 0 c 1,24,-1
 361 0 l 1,25,-1
 356 61 l 1,26,27
 331 29 331 29 295.5 8.5 c 128,-1,28
 260 -12 260 -12 205 -12 c 0,0,1
226 60 m 0,29,30
 278 60 278 60 316.5 90.5 c 128,-1,31
 355 121 355 121 376.5 171.5 c 128,-1,32
 398 222 398 222 398 281 c 0,33,34
 398 350 398 350 368 391 c 128,-1,35
 338 432 338 432 280 432 c 0,36,37
 228 432 228 432 191.5 397.5 c 128,-1,38
 155 363 155 363 136 309.5 c 128,-1,39
 117 256 117 256 117 199 c 0,40,41
 117 129 117 129 149.5 94.5 c 128,-1,42
 182 60 182 60 226 60 c 0,29,30
EndSplineSet
EndChar

StartChar: e
Encoding: 101 101 45
Width: 542
GlyphClass: 2
Flags: W
HStem: -12 74<167.259 335.597> 225 68<128 421.924> 432 72<214.021 374.11>
VStem: 27 88<114.416 223.113> 422 87<293.224 384.176>
AnchorPoint: "Anchor-2" 337 10 basechar 0
AnchorPoint: "Anchor-1" 321 496 basechar 0
AnchorPoint: "Anchor-0" 218 0 basechar 0
LayerCount: 2
Fore
SplineSet
238 -12 m 0,0,1
 140 -12 140 -12 83.5 45 c 128,-1,2
 27 102 27 102 27 199 c 0,3,4
 27 286 27 286 61.5 355 c 128,-1,5
 96 424 96 424 159.5 464 c 128,-1,6
 223 504 223 504 309 504 c 0,7,8
 376 504 376 504 420 477 c 128,-1,9
 464 450 464 450 486.5 403.5 c 128,-1,10
 509 357 509 357 509 300 c 0,11,12
 509 264 509 264 500 225 c 1,13,-1
 116 225 l 1,14,15
 115 218 115 218 115 211 c 128,-1,16
 115 204 115 204 115 197 c 0,17,18
 115 146 115 146 134.5 116.5 c 128,-1,19
 154 87 154 87 185 74.5 c 128,-1,20
 216 62 216 62 248 62 c 0,21,22
 290 62 290 62 320 75.5 c 128,-1,23
 350 89 350 89 371 111 c 1,24,-1
 449 87 l 1,25,26
 415 43 415 43 362.5 15.5 c 128,-1,27
 310 -12 310 -12 238 -12 c 0,0,1
128 293 m 1,28,-1
 421 293 l 1,29,30
 422 298 422 298 422 302 c 128,-1,31
 422 306 422 306 422 310 c 0,32,33
 422 340 422 340 409.5 368 c 128,-1,34
 397 396 397 396 369.5 414 c 128,-1,35
 342 432 342 432 297 432 c 0,36,37
 260 432 260 432 225 416 c 128,-1,38
 190 400 190 400 164 369 c 128,-1,39
 138 338 138 338 128 293 c 1,28,-1
EndSplineSet
EndChar

StartChar: f
Encoding: 102 102 46
Width: 320
GlyphClass: 1
Flags: W
HStem: 0 21G<37 127.252> 428 68<59 128 228 315> 635 71<264.138 359>
AnchorPoint: "Anchor-1" 170 668 basechar 0
LayerCount: 2
Fore
SplineSet
37 0 m 1,0,-1
 128 428 l 1,1,-1
 44 428 l 1,2,-1
 59 496 l 1,3,-1
 142 496 l 1,4,-1
 154 549 l 2,5,6
 166 600 166 600 179 631 c 128,-1,7
 192 662 192 662 210 678 c 128,-1,8
 228 694 228 694 255 699.5 c 128,-1,9
 282 705 282 705 323 706 c 2,10,-1
 374 706 l 1,11,-1
 359 635 l 1,12,-1
 335 635 l 2,13,14
 311 635 311 635 293 631 c 128,-1,15
 275 627 275 627 263 612 c 128,-1,16
 251 597 251 597 243 563 c 2,17,-1
 228 496 l 1,18,-1
 330 496 l 1,19,-1
 315 428 l 1,20,-1
 214 428 l 1,21,-1
 123 0 l 1,22,-1
 37 0 l 1,0,-1
EndSplineSet
EndChar

StartChar: g
Encoding: 103 103 47
Width: 555
GlyphClass: 2
Flags: W
HStem: -190 73<114.117 274.567> 16 73<173.682 305.669> 432 74<201.255 346.808> 476 20G<455.744 528>
VStem: 32 89<142.909 334.88>
AnchorPoint: "Anchor-1" 314 496 basechar 0
AnchorPoint: "Anchor-0" 172 -251 basechar 0
LayerCount: 2
Fore
SplineSet
180 -190 m 0,0,1
 117 -190 117 -190 65.5 -160 c 128,-1,2
 14 -130 14 -130 -4 -78 c 1,3,-1
 86 -53 l 1,4,5
 91 -77 91 -77 116 -97 c 128,-1,6
 141 -117 141 -117 186 -117 c 0,7,8
 239 -117 239 -117 270 -98.5 c 128,-1,9
 301 -80 301 -80 317 -48 c 128,-1,10
 333 -16 333 -16 342 23 c 2,11,-1
 355 80 l 1,12,13
 330 48 330 48 294 32 c 128,-1,14
 258 16 258 16 219 16 c 0,15,16
 173 16 173 16 130 38.5 c 128,-1,17
 87 61 87 61 59.5 107 c 128,-1,18
 32 153 32 153 32 222 c 0,19,20
 32 299 32 299 60.5 363.5 c 128,-1,21
 89 428 89 428 141.5 467 c 128,-1,22
 194 506 194 506 266 506 c 0,23,24
 319 506 319 506 363 482.5 c 128,-1,25
 407 459 407 459 426 418 c 1,26,-1
 466 496 l 1,27,-1
 528 496 l 1,28,29
 504 384 504 384 480.5 272 c 128,-1,30
 457 160 457 160 433 47 c 0,31,32
 428 25 428 25 421 -6 c 128,-1,33
 414 -37 414 -37 399.5 -69 c 128,-1,34
 385 -101 385 -101 358.5 -128.5 c 128,-1,35
 332 -156 332 -156 288.5 -173 c 128,-1,36
 245 -190 245 -190 180 -190 c 0,0,1
248 89 m 0,37,38
 295 89 295 89 329 120.5 c 128,-1,39
 363 152 363 152 381.5 199.5 c 128,-1,40
 400 247 400 247 400 296 c 0,41,42
 400 363 400 363 363 397.5 c 128,-1,43
 326 432 326 432 276 432 c 0,44,45
 225 432 225 432 190.5 402 c 128,-1,46
 156 372 156 372 138.5 325 c 128,-1,47
 121 278 121 278 121 226 c 0,48,49
 121 162 121 162 156 125.5 c 128,-1,50
 191 89 191 89 248 89 c 0,37,38
EndSplineSet
EndChar

StartChar: h
Encoding: 104 104 48
Width: 548
GlyphClass: 1
Flags: W
HStem: 0 21G<7 97.2023 333 422.306> 430 74<249.934 382.575> 648 20G<144.749 235>
VStem: 333 85<0 32.5161> 401 88<230.688 412.962>
LayerCount: 2
Fore
SplineSet
7 0 m 1,0,-1
 149 668 l 1,1,-1
 235 668 l 1,2,-1
 184 427 l 1,3,4
 209 459 209 459 248.5 481.5 c 128,-1,5
 288 504 288 504 355 504 c 0,6,7
 418 504 418 504 453.5 470.5 c 128,-1,8
 489 437 489 437 489 366 c 0,9,10
 489 332 489 332 480 288 c 2,11,-1
 418 0 l 1,12,-1
 333 0 l 1,13,-1
 392 280 l 2,14,15
 401 324 401 324 401 352 c 0,16,17
 401 395 401 395 381 412.5 c 128,-1,18
 361 430 361 430 318 430 c 0,19,20
 282 430 282 430 248 414 c 128,-1,21
 214 398 214 398 187.5 360 c 128,-1,22
 161 322 161 322 147 257 c 2,23,-1
 93 0 l 1,24,-1
 7 0 l 1,0,-1
EndSplineSet
EndChar

StartChar: i
Encoding: 105 105 49
Width: 270
GlyphClass: 1
Flags: W
HStem: 0 21G<46 136.234> 428 68<71 137> 591 125<182.722 272.92>
VStem: 167 125<606.722 696.92>
AnchorPoint: "Anchor-2" 132 0 basechar 0
LayerCount: 2
Fore
SplineSet
229 591 m 0,0,1
 204 591 204 591 185.5 609.5 c 128,-1,2
 167 628 167 628 167 653 c 0,3,4
 167 679 167 679 185.5 697.5 c 128,-1,5
 204 716 204 716 229 716 c 0,6,7
 255 716 255 716 273.5 697.5 c 128,-1,8
 292 679 292 679 292 653 c 0,9,10
 292 628 292 628 273.5 609.5 c 128,-1,11
 255 591 255 591 229 591 c 0,0,1
46 0 m 1,12,-1
 137 428 l 1,13,-1
 57 428 l 1,14,-1
 71 496 l 1,15,-1
 237 496 l 1,16,-1
 132 0 l 1,17,-1
 46 0 l 1,12,-1
EndSplineSet
Substitution2: "Single Substitution lookup 4 subtable" dotlessi
Substitution2: "Single Substitution lookup 3 subtable" dotlessi
EndChar

StartChar: j
Encoding: 106 106 50
Width: 258
GlyphClass: 1
Flags: W
HStem: -161 75<-138 -0.919434> 476 20G<128.735 219> 591 126<167.08 254.92>
VStem: 148 126<610.08 697.92>
LayerCount: 2
Fore
SplineSet
211 591 m 256,0,1
 185 591 185 591 166.5 609.5 c 128,-1,2
 148 628 148 628 148 654 c 256,3,4
 148 680 148 680 166.5 698.5 c 128,-1,5
 185 717 185 717 211 717 c 256,6,7
 237 717 237 717 255.5 698.5 c 128,-1,8
 274 680 274 680 274 654 c 256,9,10
 274 628 274 628 255.5 609.5 c 128,-1,11
 237 591 237 591 211 591 c 256,0,1
-85 -161 m 0,12,13
 -101 -161 -101 -161 -118 -160.5 c 128,-1,14
 -135 -160 -135 -160 -154 -159 c 1,15,-1
 -138 -86 l 1,16,-1
 -106 -86 l 2,17,18
 -53 -86 -53 -86 -27 -78.5 c 128,-1,19
 -1 -71 -1 -71 10.5 -49.5 c 128,-1,20
 22 -28 22 -28 30 13 c 2,21,-1
 133 496 l 1,22,-1
 219 496 l 1,23,-1
 115 8 l 2,24,25
 105 -41 105 -41 93.5 -73.5 c 128,-1,26
 82 -106 82 -106 62 -125 c 128,-1,27
 42 -144 42 -144 7 -152.5 c 128,-1,28
 -28 -161 -28 -161 -85 -161 c 0,12,13
EndSplineSet
EndChar

StartChar: k
Encoding: 107 107 51
Width: 487
GlyphClass: 2
Flags: W
HStem: 0 21G<7 97.2169 310.741 415> 476 20G<365.725 500> 648 20G<144.749 235>
AnchorPoint: "Anchor-1" 360 796 basechar 0
AnchorPoint: "Anchor-0" 221 0 basechar 0
LayerCount: 2
Fore
SplineSet
7 0 m 1,0,-1
 149 668 l 1,1,-1
 235 668 l 1,2,-1
 153 285 l 1,3,-1
 388 496 l 1,4,-1
 500 496 l 1,5,-1
 266 289 l 1,6,-1
 415 0 l 1,7,-1
 321 0 l 1,8,-1
 202 232 l 1,9,-1
 128 166 l 1,10,-1
 93 0 l 1,11,-1
 7 0 l 1,0,-1
EndSplineSet
EndChar

StartChar: l
Encoding: 108 108 52
Width: 259
GlyphClass: 2
Flags: W
HStem: 0 75<127.285 182> 648 20G<144.764 235>
VStem: 27 91<50 191.188> 149 86<635 668>
AnchorPoint: "Anchor-1" 205 668 basechar 0
AnchorPoint: "Anchor-0" 97 0 basechar 0
LayerCount: 2
Fore
SplineSet
126 0 m 2,0,1
 68 0 68 0 47.5 16.5 c 128,-1,2
 27 33 27 33 27 67 c 0,3,4
 27 94 27 94 34 125 c 2,5,-1
 149 668 l 1,6,-1
 235 668 l 1,7,-1
 123 140 l 2,8,9
 121 129 121 129 119.5 120 c 128,-1,10
 118 111 118 111 118 104 c 0,11,12
 118 89 118 89 127 82 c 128,-1,13
 136 75 136 75 161 75 c 2,14,-1
 198 75 l 1,15,-1
 182 0 l 1,16,-1
 126 0 l 2,0,1
EndSplineSet
EndChar

StartChar: m
Encoding: 109 109 53
Width: 846
GlyphClass: 1
Flags: W
HStem: 0 21G<8 98.2222 319 409.222 630 720.2> 431 73<247.101 372.233 551.504 684.389> 476 20G<108.766 178.739>
VStem: 113 64<462.933 496> 700 88<239.195 414.496>
AnchorPoint: "Anchor-1" 469 496 basechar 0
LayerCount: 2
Fore
SplineSet
8 0 m 1,0,-1
 113 496 l 1,1,-1
 177 496 l 1,2,-1
 183 427 l 1,3,4
 212 462 212 462 248.5 483 c 128,-1,5
 285 504 285 504 341 504 c 0,6,7
 400 504 400 504 430.5 480.5 c 128,-1,8
 461 457 461 457 475 416 c 1,9,10
 512 465 512 465 555.5 484.5 c 128,-1,11
 599 504 599 504 651 504 c 0,12,13
 664 504 664 504 686.5 501 c 128,-1,14
 709 498 709 498 732.5 486 c 128,-1,15
 756 474 756 474 772 447 c 128,-1,16
 788 420 788 420 788 372 c 0,17,18
 788 342 788 342 779 300 c 2,19,-1
 716 0 l 1,20,-1
 630 0 l 1,21,-1
 691 289 l 2,22,23
 700 330 700 330 700 359 c 0,24,25
 700 394 700 394 683.5 412.5 c 128,-1,26
 667 431 667 431 625 431 c 0,27,28
 562 431 562 431 520.5 388.5 c 128,-1,29
 479 346 479 346 462 270 c 2,30,-1
 405 0 l 1,31,-1
 319 0 l 1,32,-1
 380 289 l 2,33,34
 389 328 389 328 389 357 c 0,35,36
 389 394 389 394 371.5 412.5 c 128,-1,37
 354 431 354 431 313 431 c 0,38,39
 258 431 258 431 213.5 392 c 128,-1,40
 169 353 169 353 151 270 c 2,41,-1
 94 0 l 1,42,-1
 8 0 l 1,0,-1
EndSplineSet
EndChar

StartChar: n
Encoding: 110 110 54
Width: 550
GlyphClass: 2
Flags: W
HStem: 0 21G<8 98.2023 334 423.321> 430 74<249.918 383.575> 476 20G<108.766 178.739>
VStem: 113 64<462.933 496> 334 85<0 32.4032> 402 88<229.875 412.497>
AnchorPoint: "Anchor-1" 328 496 basechar 0
AnchorPoint: "Anchor-0" 212 0 basechar 0
LayerCount: 2
Fore
SplineSet
8 0 m 1,0,-1
 113 496 l 1,1,-1
 177 496 l 1,2,-1
 183 427 l 1,3,4
 208 459 208 459 248.5 481.5 c 128,-1,5
 289 504 289 504 356 504 c 0,6,7
 419 504 419 504 454.5 470 c 128,-1,8
 490 436 490 436 490 365 c 0,9,10
 490 331 490 331 481 287 c 2,11,-1
 419 0 l 1,12,-1
 334 0 l 1,13,-1
 393 279 l 2,14,15
 402 323 402 323 402 351 c 0,16,17
 402 395 402 395 382 412.5 c 128,-1,18
 362 430 362 430 319 430 c 0,19,20
 283 430 283 430 249 414 c 128,-1,21
 215 398 215 398 188.5 360 c 128,-1,22
 162 322 162 322 148 257 c 2,23,-1
 94 0 l 1,24,-1
 8 0 l 1,0,-1
EndSplineSet
EndChar

StartChar: o
Encoding: 111 111 55
Width: 547
GlyphClass: 2
Flags: W
HStem: -12 74<163.257 316.021> 430 74<208.823 368.708>
VStem: 27 88<112.609 315.157> 413 89<181.97 387.243>
AnchorPoint: "Anchor-2" 441 10 basechar 0
AnchorPoint: "Anchor-1" 321 496 basechar 0
AnchorPoint: "Anchor-0" 221 0 basechar 0
LayerCount: 2
Fore
SplineSet
230 -12 m 0,0,1
 130 -12 130 -12 78.5 47 c 128,-1,2
 27 106 27 106 27 199 c 0,3,4
 27 286 27 286 62 355 c 128,-1,5
 97 424 97 424 159.5 464 c 128,-1,6
 222 504 222 504 303 504 c 0,7,8
 354 504 354 504 399.5 482 c 128,-1,9
 445 460 445 460 473.5 414.5 c 128,-1,10
 502 369 502 369 502 298 c 0,11,12
 502 235 502 235 482 179 c 128,-1,13
 462 123 462 123 426 80 c 128,-1,14
 390 37 390 37 340 12.5 c 128,-1,15
 290 -12 290 -12 230 -12 c 0,0,1
237 62 m 0,16,17
 295 62 295 62 334 97 c 128,-1,18
 373 132 373 132 393 186.5 c 128,-1,19
 413 241 413 241 413 301 c 0,20,21
 413 374 413 374 377.5 402 c 128,-1,22
 342 430 342 430 290 430 c 0,23,24
 231 430 231 430 192 396 c 128,-1,25
 153 362 153 362 134 309 c 128,-1,26
 115 256 115 256 115 198 c 0,27,28
 115 137 115 137 146 99.5 c 128,-1,29
 177 62 177 62 237 62 c 0,16,17
EndSplineSet
Substitution2: "Single Substitution lookup 12 subtable" ordmasculine
Substitution2: "'aalt' Access All Alternates lookup 0 subtable" ordmasculine
EndChar

StartChar: p
Encoding: 112 112 56
Width: 556
GlyphClass: 1
Flags: W
HStem: -162 21G<-26 64.2353> -12 71<192.532 329.429> 432 72<239.693 375.575> 476 20G<109.745 178.515>
VStem: 114 63<463.1 496> 420 90<176.694 383.923>
AnchorPoint: "Anchor-1" 328 496 basechar 0
LayerCount: 2
Fore
SplineSet
-26 -162 m 1,0,-1
 114 496 l 1,1,-1
 177 496 l 1,2,-1
 182 430 l 1,3,4
 202 459 202 459 238.5 481.5 c 128,-1,5
 275 504 275 504 331 504 c 0,6,7
 392 504 392 504 431.5 475.5 c 128,-1,8
 471 447 471 447 490.5 399 c 128,-1,9
 510 351 510 351 510 293 c 0,10,11
 510 240 510 240 495 186.5 c 128,-1,12
 480 133 480 133 450.5 88 c 128,-1,13
 421 43 421 43 375.5 15.5 c 128,-1,14
 330 -12 330 -12 269 -12 c 0,15,16
 210 -12 210 -12 170.5 16 c 128,-1,17
 131 44 131 44 114 93 c 1,18,-1
 60 -162 l 1,19,-1
 -26 -162 l 1,0,-1
260 59 m 0,20,21
 299 59 299 59 328.5 80 c 128,-1,22
 358 101 358 101 378.5 135.5 c 128,-1,23
 399 170 399 170 409.5 212.5 c 128,-1,24
 420 255 420 255 420 297 c 0,25,26
 420 360 420 360 390 396 c 128,-1,27
 360 432 360 432 307 432 c 0,28,29
 255 432 255 432 217.5 398.5 c 128,-1,30
 180 365 180 365 159.5 314 c 128,-1,31
 139 263 139 263 139 209 c 0,32,33
 139 147 139 147 171 103 c 128,-1,34
 203 59 203 59 260 59 c 0,20,21
EndSplineSet
EndChar

StartChar: q
Encoding: 113 113 57
Width: 555
GlyphClass: 1
Flags: W
HStem: -174 82<426.487 533.872> -12 72<161.576 297.463> 433 72<208.021 344.364> 476 20G<457.744 530>
VStem: 28 90<107.388 317.588> 328 90<-83.253 48.2344>
LayerCount: 2
Fore
SplineSet
207 -12 m 0,0,1
 126 -12 126 -12 77 44 c 128,-1,2
 28 100 28 100 28 198 c 0,3,4
 28 259 28 259 45 314.5 c 128,-1,5
 62 370 62 370 93.5 413 c 128,-1,6
 125 456 125 456 170 480.5 c 128,-1,7
 215 505 215 505 271 505 c 0,8,9
 330 505 330 505 369 480.5 c 128,-1,10
 408 456 408 456 428 418 c 1,11,-1
 468 496 l 1,12,-1
 530 496 l 1,13,14
 505 380 505 380 481 263 c 128,-1,15
 457 146 457 146 432 30 c 0,16,17
 427 6 427 6 422.5 -15 c 128,-1,18
 418 -36 418 -36 418 -50 c 0,19,20
 418 -69 418 -69 430 -80.5 c 128,-1,21
 442 -92 442 -92 469 -92 c 0,22,23
 500 -92 500 -92 551 -76 c 1,24,-1
 534 -154 l 1,25,26
 524 -161 524 -161 499.5 -167.5 c 128,-1,27
 475 -174 475 -174 447 -174 c 256,28,29
 419 -174 419 -174 391.5 -165 c 128,-1,30
 364 -156 364 -156 346 -134 c 128,-1,31
 328 -112 328 -112 328 -72 c 0,32,33
 328 -58 328 -58 330.5 -42.5 c 128,-1,34
 333 -27 333 -27 338.5 -3.5 c 128,-1,35
 344 20 344 20 352 59 c 1,36,37
 335 30 335 30 296.5 9 c 128,-1,38
 258 -12 258 -12 207 -12 c 0,0,1
232 60 m 0,39,40
 281 60 281 60 317.5 92 c 128,-1,41
 354 124 354 124 375 174.5 c 128,-1,42
 396 225 396 225 396 281 c 0,43,44
 396 353 396 353 363.5 393 c 128,-1,45
 331 433 331 433 276 433 c 0,46,47
 239 433 239 433 209.5 412.5 c 128,-1,48
 180 392 180 392 159.5 358 c 128,-1,49
 139 324 139 324 128.5 282 c 128,-1,50
 118 240 118 240 118 198 c 0,51,52
 118 134 118 134 146.5 97 c 128,-1,53
 175 60 175 60 232 60 c 0,39,40
EndSplineSet
EndChar

StartChar: r
Encoding: 114 114 58
Width: 353
GlyphClass: 2
Flags: W
HStem: 0 21G<8 98.1951> 415 89<267.967 364> 476 20G<108.766 177.72>
VStem: 113 63<462.933 496>
AnchorPoint: "Anchor-1" 240 496 basechar 0
AnchorPoint: "Anchor-0" 51 0 basechar 0
LayerCount: 2
Fore
SplineSet
8 0 m 1,0,-1
 113 496 l 1,1,-1
 176 496 l 1,2,-1
 184 403 l 1,3,4
 215 447 215 447 256.5 475.5 c 128,-1,5
 298 504 298 504 372 504 c 2,6,-1
 383 504 l 1,7,-1
 364 415 l 1,8,9
 336 416 336 416 312 412 c 0,10,11
 236 400 236 400 195.5 344.5 c 128,-1,12
 155 289 155 289 137 205 c 2,13,-1
 94 0 l 1,14,-1
 8 0 l 1,0,-1
EndSplineSet
EndChar

StartChar: s
Encoding: 115 115 59
Width: 479
GlyphClass: 2
Flags: W
HStem: -12 68<139.484 292.178> 435 69<155.519 317.903>
VStem: 49 85<326.413 413.12> 325 88<86.6224 181.532>
AnchorPoint: "Anchor-1" 260 496 basechar 0
AnchorPoint: "Anchor-0" 207 0 basechar 0
LayerCount: 2
Fore
SplineSet
213 -12 m 0,0,1
 138 -12 138 -12 87 17 c 128,-1,2
 36 46 36 46 10 113 c 1,3,-1
 96 142 l 1,4,5
 104 98 104 98 140 77 c 128,-1,6
 176 56 176 56 216 56 c 0,7,8
 257 56 257 56 291 77 c 128,-1,9
 325 98 325 98 325 137 c 0,10,11
 325 165 325 165 305 180.5 c 128,-1,12
 285 196 285 196 253.5 206 c 128,-1,13
 222 216 222 216 187 225.5 c 128,-1,14
 152 235 152 235 120.5 250.5 c 128,-1,15
 89 266 89 266 69 293 c 128,-1,16
 49 320 49 320 49 365 c 0,17,18
 49 412 49 412 77 442.5 c 128,-1,19
 105 473 105 473 148.5 488.5 c 128,-1,20
 192 504 192 504 240 504 c 0,21,22
 281 504 281 504 320 492.5 c 128,-1,23
 359 481 359 481 389 458.5 c 128,-1,24
 419 436 419 436 431 402 c 1,25,-1
 351 374 l 1,26,27
 341 404 341 404 306 419.5 c 128,-1,28
 271 435 271 435 233 435 c 256,29,30
 195 435 195 435 164.5 419 c 128,-1,31
 134 403 134 403 134 370 c 0,32,33
 134 343 134 343 154 327.5 c 128,-1,34
 174 312 174 312 206 302 c 128,-1,35
 238 292 238 292 273.5 282.5 c 128,-1,36
 309 273 309 273 341 257 c 128,-1,37
 373 241 373 241 393 214.5 c 128,-1,38
 413 188 413 188 413 143 c 0,39,40
 413 92 413 92 386 57.5 c 128,-1,41
 359 23 359 23 314 5.5 c 128,-1,42
 269 -12 269 -12 213 -12 c 0,0,1
EndSplineSet
EndChar

StartChar: t
Encoding: 116 116 60
Width: 324
GlyphClass: 2
Flags: W
HStem: 0 75<160.285 222> 428 68<63 132 232 313>
VStem: 59 92<50 189.18>
AnchorPoint: "Anchor-1" 213 620 basechar 0
AnchorPoint: "Anchor-0" 109 0 basechar 0
LayerCount: 2
Fore
SplineSet
160 0 m 2,0,1
 102 0 102 0 80.5 16.5 c 128,-1,2
 59 33 59 33 59 67 c 0,3,4
 59 89 59 89 69 135 c 2,5,-1
 132 428 l 1,6,-1
 49 428 l 1,7,-1
 63 496 l 1,8,-1
 146 496 l 1,9,-1
 173 620 l 1,10,-1
 259 620 l 1,11,-1
 232 496 l 1,12,-1
 327 496 l 1,13,-1
 313 428 l 1,14,-1
 218 428 l 1,15,-1
 160 159 l 2,16,17
 156 141 156 141 153.5 126.5 c 128,-1,18
 151 112 151 112 151 104 c 0,19,20
 151 88 151 88 160 81.5 c 128,-1,21
 169 75 169 75 194 75 c 2,22,-1
 238 75 l 1,23,-1
 222 0 l 1,24,-1
 160 0 l 2,0,1
EndSplineSet
EndChar

StartChar: u
Encoding: 117 117 61
Width: 540
GlyphClass: 2
Flags: W
HStem: -11 73<143.071 271.142> 0 21G<341.286 412.234> 476 20G<106.768 197 423.692 513>
VStem: 40 86<81.0458 263.312> 343 65<0 33.0667>
AnchorPoint: "Anchor-2" 408 0 basechar 0
AnchorPoint: "Anchor-1" 308 496 basechar 0
AnchorPoint: "Anchor-0" 217 0 basechar 0
LayerCount: 2
Fore
SplineSet
173 -11 m 0,0,1
 100 -11 100 -11 70 29 c 128,-1,2
 40 69 40 69 40 128 c 0,3,4
 40 164 40 164 49 203 c 2,5,-1
 111 496 l 1,6,-1
 197 496 l 1,7,-1
 135 205 l 2,8,9
 131 187 131 187 128.5 169.5 c 128,-1,10
 126 152 126 152 126 137 c 0,11,12
 126 104 126 104 142.5 83 c 128,-1,13
 159 62 159 62 203 62 c 0,14,15
 262 62 262 62 307 102.5 c 128,-1,16
 352 143 352 143 372 236 c 2,17,-1
 428 496 l 1,18,-1
 513 496 l 1,19,-1
 408 0 l 1,20,-1
 343 0 l 1,21,-1
 337 70 l 1,22,23
 305 28 305 28 267.5 8.5 c 128,-1,24
 230 -11 230 -11 173 -11 c 0,0,1
EndSplineSet
EndChar

StartChar: v
Encoding: 118 118 62
Width: 444
GlyphClass: 1
Flags: W
HStem: 0 21G<112.097 215.411> 476 20G<43 132.435 378.016 487>
LayerCount: 2
Fore
SplineSet
115 0 m 1,0,-1
 43 496 l 1,1,-1
 130 496 l 1,2,-1
 177 110 l 1,3,-1
 389 496 l 1,4,-1
 487 496 l 1,5,-1
 204 0 l 1,6,-1
 115 0 l 1,0,-1
EndSplineSet
EndChar

StartChar: w
Encoding: 119 119 63
Width: 658
GlyphClass: 1
Flags: W
HStem: 0 21G<78.5081 163.65 368.85 462.04> 476 20G<43 130.95 309.391 410.093 595.383 701>
VStem: 43 87<402.162 496>
AnchorPoint: "Anchor-1" 360 496 basechar 0
LayerCount: 2
Fore
SplineSet
80 0 m 1,0,-1
 43 496 l 1,1,-1
 130 496 l 1,2,-1
 147 138 l 1,3,-1
 319 496 l 1,4,-1
 409 496 l 1,5,-1
 429 130 l 1,6,-1
 605 496 l 1,7,-1
 701 496 l 1,8,-1
 452 0 l 1,9,-1
 370 0 l 1,10,-1
 347 400 l 1,11,-1
 154 0 l 1,12,-1
 80 0 l 1,0,-1
EndSplineSet
EndChar

StartChar: x
Encoding: 120 120 64
Width: 462
GlyphClass: 1
Flags: W
HStem: 0 21G<-63 64.4865 299.054 399> 476 20G<61 161.058 377.404 505>
LayerCount: 2
Fore
SplineSet
-63 0 m 1,0,-1
 179 262 l 1,1,-1
 61 496 l 1,2,-1
 151 496 l 1,3,-1
 237 325 l 1,4,-1
 396 496 l 1,5,-1
 505 496 l 1,6,-1
 275 248 l 1,7,-1
 399 0 l 1,8,-1
 309 0 l 1,9,-1
 217 185 l 1,10,-1
 46 0 l 1,11,-1
 -63 0 l 1,0,-1
EndSplineSet
EndChar

StartChar: y
Encoding: 121 121 65
Width: 435
GlyphClass: 2
Flags: W
HStem: -161 75<-46 76.7178> 476 20G<43 134.073 367.326 478>
VStem: 43 89<448.438 496>
AnchorPoint: "Anchor-1" 266 496 basechar 0
AnchorPoint: "Anchor-0" 165 0 basechar 0
LayerCount: 2
Fore
SplineSet
-62 -161 m 1,0,-1
 -46 -86 l 1,1,-1
 -12 -86 l 2,2,3
 29 -86 29 -86 50 -80 c 128,-1,4
 71 -74 71 -74 84.5 -55.5 c 128,-1,5
 98 -37 98 -37 116 0 c 1,6,-1
 43 496 l 1,7,-1
 132 496 l 1,8,-1
 172 110 l 1,9,-1
 378 496 l 1,10,-1
 478 496 l 1,11,-1
 191 -21 l 2,12,13
 166 -67 166 -67 147 -94.5 c 128,-1,14
 128 -122 128 -122 107.5 -136.5 c 128,-1,15
 87 -151 87 -151 57.5 -156 c 128,-1,16
 28 -161 28 -161 -19 -161 c 2,17,-1
 -62 -161 l 1,0,-1
EndSplineSet
EndChar

StartChar: z
Encoding: 122 122 66
Width: 467
GlyphClass: 2
Flags: W
HStem: 0 73<101 375> 424 73<99 355>
AnchorPoint: "Anchor-1" 289 496 basechar 0
AnchorPoint: "Anchor-0" 181 0 basechar 0
LayerCount: 2
Fore
SplineSet
-21 0 m 1,0,-1
 -6 73 l 1,1,-1
 355 424 l 1,2,-1
 83 424 l 1,3,-1
 99 497 l 1,4,-1
 476 497 l 1,5,-1
 460 424 l 1,6,-1
 101 73 l 1,7,-1
 390 73 l 1,8,-1
 375 0 l 1,9,-1
 -21 0 l 1,0,-1
EndSplineSet
EndChar

StartChar: circumflex
Encoding: 258 710 67
Width: 429
GlyphClass: 1
Flags: W
HStem: 575 120<345 347.422>
VStem: 114 323
LayerCount: 2
Fore
SplineSet
114 575 m 1,0,-1
 247 676 l 2,1,2
 271 695 271 695 301 695 c 0,3,4
 329 695 329 695 346 676 c 2,5,-1
 437 575 l 1,6,-1
 345 575 l 1,7,-1
 290 636 l 1,8,-1
 210 575 l 1,9,-1
 114 575 l 1,0,-1
EndSplineSet
EndChar

StartChar: caron
Encoding: 259 711 68
Width: 429
GlyphClass: 1
Flags: W
HStem: 562 120<225.578 227>
VStem: 136 323
LayerCount: 2
Fore
SplineSet
273 562 m 0,0,1
 243 562 243 562 227 581 c 2,2,-1
 136 682 l 1,3,-1
 227 682 l 1,4,-1
 281 621 l 1,5,-1
 362 682 l 1,6,-1
 459 682 l 1,7,-1
 326 581 l 2,8,9
 301 562 301 562 273 562 c 0,0,1
EndSplineSet
EndChar

StartChar: breve
Encoding: 260 728 69
Width: 400
GlyphClass: 1
Flags: W
HStem: 562 67<222.885 332.433>
VStem: 136 69<646.532 682>
LayerCount: 2
Fore
SplineSet
265 562 m 0,0,1
 223 562 223 562 194 580.5 c 128,-1,2
 165 599 165 599 150.5 627 c 128,-1,3
 136 655 136 655 136 682 c 1,4,-1
 205 682 l 1,5,6
 209 663 209 663 224.5 646 c 128,-1,7
 240 629 240 629 272 629 c 256,8,9
 304 629 304 629 326 645.5 c 128,-1,10
 348 662 348 662 361 682 c 1,11,-1
 430 682 l 1,12,13
 418 653 418 653 395.5 625 c 128,-1,14
 373 597 373 597 340.5 579.5 c 128,-1,15
 308 562 308 562 265 562 c 0,0,1
EndSplineSet
EndChar

StartChar: dotaccent
Encoding: 261 729 70
Width: 216
GlyphClass: 1
Flags: W
HStem: 583 108<144.501 220.014>
VStem: 128 108<599.501 675.014>
LayerCount: 2
Fore
SplineSet
182 583 m 0,0,1
 160 583 160 583 144 599 c 128,-1,2
 128 615 128 615 128 637 c 0,3,4
 128 660 128 660 144 675.5 c 128,-1,5
 160 691 160 691 182 691 c 0,6,7
 205 691 205 691 220.5 675.5 c 128,-1,8
 236 660 236 660 236 637 c 0,9,10
 236 615 236 615 220.5 599 c 128,-1,11
 205 583 205 583 182 583 c 0,0,1
EndSplineSet
EndChar

StartChar: ring
Encoding: 262 730 71
Width: 329
GlyphClass: 1
Flags: W
HStem: 552 58<203.348 282.728> 712 58<203.348 282.728>
VStem: 134 57<622.61 699.718> 295 57<622.673 699.327>
LayerCount: 2
Fore
SplineSet
245 552 m 0,0,1
 214 552 214 552 189 567 c 128,-1,2
 164 582 164 582 149 607 c 128,-1,3
 134 632 134 632 134 661 c 0,4,5
 134 691 134 691 149 715.5 c 128,-1,6
 164 740 164 740 189 755 c 128,-1,7
 214 770 214 770 245 770 c 0,8,9
 291 770 291 770 321.5 737.5 c 128,-1,10
 352 705 352 705 352 661 c 256,11,12
 352 617 352 617 321.5 584.5 c 128,-1,13
 291 552 291 552 245 552 c 0,0,1
243 610 m 256,14,15
 265 610 265 610 280 625 c 128,-1,16
 295 640 295 640 295 661 c 256,17,18
 295 682 295 682 280 697 c 128,-1,19
 265 712 265 712 243 712 c 256,20,21
 221 712 221 712 206 697 c 128,-1,22
 191 682 191 682 191 661 c 256,23,24
 191 640 191 640 206 625 c 128,-1,25
 221 610 221 610 243 610 c 256,14,15
EndSplineSet
EndChar

StartChar: ogonek
Encoding: 263 731 72
Width: 270
GlyphClass: 1
Flags: W
HStem: -173 57<50.8564 121.099> -20 20G<52 155>
VStem: -30 77<-110.566 -51.1006>
LayerCount: 2
Fore
SplineSet
54 -173 m 0,0,1
 13 -173 13 -173 -8.5 -153.5 c 128,-1,2
 -30 -134 -30 -134 -30 -106 c 0,3,4
 -30 -72 -30 -72 -1 -43 c 128,-1,5
 28 -14 28 -14 76 0 c 1,6,-1
 155 0 l 1,7,8
 108 -17 108 -17 77.5 -40 c 128,-1,9
 47 -63 47 -63 47 -89 c 0,10,11
 47 -101 47 -101 58.5 -108.5 c 128,-1,12
 70 -116 70 -116 88 -116 c 0,13,14
 108 -116 108 -116 132 -107 c 1,15,-1
 121 -161 l 1,16,17
 82 -173 82 -173 54 -173 c 0,0,1
EndSplineSet
EndChar

StartChar: quoteleft
Encoding: 264 8216 73
Width: 238
GlyphClass: 1
Flags: W
HStem: 418 250
VStem: 95 129<438.626 530.944>
LayerCount: 2
Fore
SplineSet
161 418 m 0,0,1
 131 418 131 418 113 438 c 128,-1,2
 95 458 95 458 95 483 c 0,3,4
 95 501 95 501 105 517 c 2,5,-1
 196 668 l 1,6,-1
 257 668 l 1,7,-1
 181 543 l 1,8,9
 224 527 224 527 224 482 c 0,10,11
 224 454 224 454 205.5 436 c 128,-1,12
 187 418 187 418 161 418 c 0,0,1
EndSplineSet
EndChar

StartChar: quoteright
Encoding: 265 8217 74
Width: 238
GlyphClass: 1
Flags: W
HStem: 429 251
VStem: 123 130<567.531 660.405>
LayerCount: 2
Fore
SplineSet
91 429 m 1,0,-1
 166 555 l 1,1,2
 147 562 147 562 135 578 c 128,-1,3
 123 594 123 594 123 617 c 0,4,5
 123 643 123 643 143 661.5 c 128,-1,6
 163 680 163 680 188 680 c 0,7,8
 217 680 217 680 235 661 c 128,-1,9
 253 642 253 642 253 616 c 0,10,11
 253 598 253 598 237 572 c 2,12,-1
 152 429 l 1,13,-1
 91 429 l 1,0,-1
EndSplineSet
EndChar

StartChar: quotesinglbase
Encoding: 266 8218 75
Width: 239
GlyphClass: 1
Flags: W
HStem: -133 251
VStem: 4 130<7.10938 98.4043>
LayerCount: 2
Fore
SplineSet
-28 -133 m 1,0,-1
 47 -8 l 1,1,2
 29 0 29 0 16.5 15.5 c 128,-1,3
 4 31 4 31 4 53 c 0,4,5
 4 78 4 78 22 98 c 128,-1,6
 40 118 40 118 67 118 c 0,7,8
 96 118 96 118 115 99 c 128,-1,9
 134 80 134 80 134 53 c 0,10,11
 134 43 134 43 130 32.5 c 128,-1,12
 126 22 126 22 121 14 c 2,13,-1
 33 -133 l 1,14,-1
 -28 -133 l 1,0,-1
EndSplineSet
EndChar

StartChar: quotedblleft
Encoding: 267 8220 76
Width: 395
GlyphClass: 1
Flags: W
HStem: 418 250
VStem: 95 129<438.626 530.944> 252 129<438.626 530.944>
LayerCount: 2
Fore
SplineSet
161 418 m 0,0,1
 131 418 131 418 113 438 c 128,-1,2
 95 458 95 458 95 483 c 0,3,4
 95 501 95 501 105 517 c 2,5,-1
 196 668 l 1,6,-1
 257 668 l 1,7,-1
 181 543 l 1,8,9
 224 527 224 527 224 482 c 0,10,11
 224 454 224 454 205.5 436 c 128,-1,12
 187 418 187 418 161 418 c 0,0,1
318 418 m 0,13,14
 288 418 288 418 270 438 c 128,-1,15
 252 458 252 458 252 483 c 0,16,17
 252 501 252 501 262 517 c 2,18,-1
 353 668 l 1,19,-1
 414 668 l 1,20,-1
 338 543 l 1,21,22
 381 527 381 527 381 482 c 0,23,24
 381 454 381 454 362.5 436 c 128,-1,25
 344 418 344 418 318 418 c 0,13,14
EndSplineSet
EndChar

StartChar: quotedblright
Encoding: 268 8221 77
Width: 394
GlyphClass: 1
Flags: W
HStem: 429 250
VStem: 122 129<566.056 658.374> 279 129<566.056 658.374>
LayerCount: 2
Fore
SplineSet
246 429 m 1,0,-1
 322 554 l 1,1,2
 279 570 279 570 279 615 c 0,3,4
 279 643 279 643 298 661 c 128,-1,5
 317 679 317 679 342 679 c 0,6,7
 372 679 372 679 390 659 c 128,-1,8
 408 639 408 639 408 614 c 0,9,10
 408 596 408 596 398 580 c 2,11,-1
 307 429 l 1,12,-1
 246 429 l 1,0,-1
89 429 m 1,13,-1
 165 554 l 1,14,15
 122 570 122 570 122 615 c 0,16,17
 122 643 122 643 141 661 c 128,-1,18
 160 679 160 679 185 679 c 0,19,20
 215 679 215 679 233 659 c 128,-1,21
 251 639 251 639 251 614 c 0,22,23
 251 596 251 596 241 580 c 2,24,-1
 150 429 l 1,25,-1
 89 429 l 1,13,-1
EndSplineSet
EndChar

StartChar: dagger
Encoding: 270 8224 79
Width: 541
GlyphClass: 1
Flags: W
HStem: 0 21G<168 254.221> 417 79<84 257 355 527> 648 20G<306.698 391>
LayerCount: 2
Fore
SplineSet
168 0 m 1,0,-1
 257 417 l 1,1,-1
 67 417 l 1,2,-1
 84 496 l 1,3,-1
 274 496 l 1,4,-1
 311 668 l 1,5,-1
 391 668 l 1,6,-1
 355 496 l 1,7,-1
 544 496 l 1,8,-1
 527 417 l 1,9,-1
 338 417 l 1,10,-1
 250 0 l 1,11,-1
 168 0 l 1,0,-1
EndSplineSet
EndChar

StartChar: daggerdbl
Encoding: 271 8225 80
Width: 541
GlyphClass: 1
Flags: W
HStem: 0 21G<168 254.162> 173 79<32 205 303 475> 417 79<84 257 354 527> 648 20G<306.698 391>
LayerCount: 2
Fore
SplineSet
168 0 m 1,0,-1
 205 173 l 1,1,-1
 15 173 l 1,2,-1
 32 252 l 1,3,-1
 222 252 l 1,4,-1
 257 417 l 1,5,-1
 67 417 l 1,6,-1
 84 496 l 1,7,-1
 274 496 l 1,8,-1
 311 668 l 1,9,-1
 391 668 l 1,10,-1
 354 496 l 1,11,-1
 544 496 l 1,12,-1
 527 417 l 1,13,-1
 337 417 l 1,14,-1
 303 252 l 1,15,-1
 492 252 l 1,16,-1
 475 173 l 1,17,-1
 286 173 l 1,18,-1
 250 0 l 1,19,-1
 168 0 l 1,0,-1
EndSplineSet
EndChar

StartChar: bullet
Encoding: 272 8226 81
Width: 446
GlyphClass: 1
Flags: W
HStem: 88 332<132.674 297.326>
VStem: 49 332<172.189 336.326>
LayerCount: 2
Fore
SplineSet
215 88 m 256,0,1
 169 88 169 88 131.5 110.5 c 128,-1,2
 94 133 94 133 71.5 171 c 128,-1,3
 49 209 49 209 49 254 c 0,4,5
 49 300 49 300 71.5 337.5 c 128,-1,6
 94 375 94 375 131.5 397.5 c 128,-1,7
 169 420 169 420 215 420 c 256,8,9
 261 420 261 420 298.5 397.5 c 128,-1,10
 336 375 336 375 358.5 337.5 c 128,-1,11
 381 300 381 300 381 254 c 0,12,13
 381 209 381 209 358.5 171 c 128,-1,14
 336 133 336 133 298.5 110.5 c 128,-1,15
 261 88 261 88 215 88 c 256,0,1
EndSplineSet
EndChar

StartChar: ellipsis
Encoding: 273 8230 82
Width: 699
GlyphClass: 1
Flags: W
HStem: -12 129<23.5955 113.404 254.08 344.404 484.596 574.405>
VStem: 4 129<7.59546 97.4043> 235 129<7.59546 97.4043> 465 129<7.59546 97.4043>
LayerCount: 2
Fore
SplineSet
530 -12 m 0,0,1
 503 -12 503 -12 484 7 c 128,-1,2
 465 26 465 26 465 52 c 0,3,4
 465 79 465 79 484 98 c 128,-1,5
 503 117 503 117 530 117 c 0,6,7
 556 117 556 117 575 98 c 128,-1,8
 594 79 594 79 594 52 c 0,9,10
 594 26 594 26 575 7 c 128,-1,11
 556 -12 556 -12 530 -12 c 0,0,1
68 -12 m 0,12,13
 42 -12 42 -12 23 7 c 128,-1,14
 4 26 4 26 4 52 c 0,15,16
 4 79 4 79 23 98 c 128,-1,17
 42 117 42 117 68 117 c 0,18,19
 95 117 95 117 114 98 c 128,-1,20
 133 79 133 79 133 52 c 0,21,22
 133 26 133 26 114 7 c 128,-1,23
 95 -12 95 -12 68 -12 c 0,12,13
299 -12 m 256,24,25
 272 -12 272 -12 253.5 7 c 128,-1,26
 235 26 235 26 235 52 c 0,27,28
 235 79 235 79 253.5 98 c 128,-1,29
 272 117 272 117 299 117 c 256,30,31
 326 117 326 117 345 98 c 128,-1,32
 364 79 364 79 364 52 c 0,33,34
 364 26 364 26 345 7 c 128,-1,35
 326 -12 326 -12 299 -12 c 256,24,25
EndSplineSet
EndChar

StartChar: perthousand
Encoding: 274 8240 83
Width: 1406
GlyphClass: 1
Flags: W
HStem: -12 74<690.997 820.399 1092 1221.4> 0 21G<234 336.012> 277 74<690.997 820.399 1092 1221.4> 316 75<203.311 332.399> 605 75<203.311 332.399> 648 20G<687.988 790>
VStem: 86 74<434.173 561.827> 375 74<433.482 562.518> 574 74<104.601 234.336> 863 74<104.601 234.336> 975 74<104.601 234.336> 1264 74<104.601 234.336>
LayerCount: 2
Fore
SplineSet
268 316 m 256,0,1
 218 316 218 316 176.5 340.5 c 128,-1,2
 135 365 135 365 110.5 406.5 c 128,-1,3
 86 448 86 448 86 498 c 256,4,5
 86 548 86 548 110.5 589.5 c 128,-1,6
 135 631 135 631 176.5 655.5 c 128,-1,7
 218 680 218 680 268 680 c 256,8,9
 318 680 318 680 359 655.5 c 128,-1,10
 400 631 400 631 424.5 589.5 c 128,-1,11
 449 548 449 548 449 498 c 256,12,13
 449 448 449 448 424.5 406.5 c 128,-1,14
 400 365 400 365 359 340.5 c 128,-1,15
 318 316 318 316 268 316 c 256,0,1
234 0 m 1,16,-1
 702 668 l 1,17,-1
 790 668 l 1,18,-1
 322 0 l 1,19,-1
 234 0 l 1,16,-1
268 391 m 256,20,21
 312 391 312 391 343.5 422.5 c 128,-1,22
 375 454 375 454 375 498 c 256,23,24
 375 542 375 542 343.5 573.5 c 128,-1,25
 312 605 312 605 268 605 c 256,26,27
 224 605 224 605 192 573.5 c 128,-1,28
 160 542 160 542 160 498 c 256,29,30
 160 454 160 454 192 422.5 c 128,-1,31
 224 391 224 391 268 391 c 256,20,21
756 -12 m 256,32,33
 706 -12 706 -12 664.5 12.5 c 128,-1,34
 623 37 623 37 598.5 78 c 128,-1,35
 574 119 574 119 574 169 c 0,36,37
 574 220 574 220 598.5 261 c 128,-1,38
 623 302 623 302 664.5 326.5 c 128,-1,39
 706 351 706 351 756 351 c 256,40,41
 806 351 806 351 847 326.5 c 128,-1,42
 888 302 888 302 912.5 261 c 128,-1,43
 937 220 937 220 937 169 c 0,44,45
 937 119 937 119 912.5 78 c 128,-1,46
 888 37 888 37 847 12.5 c 128,-1,47
 806 -12 806 -12 756 -12 c 256,32,33
1157 -12 m 256,48,49
 1107 -12 1107 -12 1065.5 12.5 c 128,-1,50
 1024 37 1024 37 999.5 78 c 128,-1,51
 975 119 975 119 975 169 c 0,52,53
 975 220 975 220 999.5 261 c 128,-1,54
 1024 302 1024 302 1065.5 326.5 c 128,-1,55
 1107 351 1107 351 1157 351 c 256,56,57
 1207 351 1207 351 1248 326.5 c 128,-1,58
 1289 302 1289 302 1313.5 261 c 128,-1,59
 1338 220 1338 220 1338 169 c 0,60,61
 1338 119 1338 119 1313.5 78 c 128,-1,62
 1289 37 1289 37 1248 12.5 c 128,-1,63
 1207 -12 1207 -12 1157 -12 c 256,48,49
756 62 m 0,64,65
 800 62 800 62 831.5 93.5 c 128,-1,66
 863 125 863 125 863 169 c 0,67,68
 863 214 863 214 831.5 245.5 c 128,-1,69
 800 277 800 277 756 277 c 0,70,71
 711 277 711 277 679.5 245.5 c 128,-1,72
 648 214 648 214 648 169 c 0,73,74
 648 125 648 125 679.5 93.5 c 128,-1,75
 711 62 711 62 756 62 c 0,64,65
1157 62 m 0,76,77
 1201 62 1201 62 1232.5 93.5 c 128,-1,78
 1264 125 1264 125 1264 169 c 0,79,80
 1264 214 1264 214 1232.5 245.5 c 128,-1,81
 1201 277 1201 277 1157 277 c 0,82,83
 1112 277 1112 277 1080.5 245.5 c 128,-1,84
 1049 214 1049 214 1049 169 c 0,85,86
 1049 125 1049 125 1080.5 93.5 c 128,-1,87
 1112 62 1112 62 1157 62 c 0,76,77
EndSplineSet
EndChar

StartChar: guilsinglleft
Encoding: 275 8249 84
Width: 355
GlyphClass: 1
Flags: W
VStem: 45 276
LayerCount: 2
Fore
SplineSet
148 40 m 1,0,-1
 45 250 l 1,1,-1
 217 461 l 1,2,-1
 321 461 l 1,3,-1
 140 240 l 1,4,-1
 237 40 l 1,5,-1
 148 40 l 1,0,-1
EndSplineSet
EndChar

StartChar: guilsinglright
Encoding: 276 8250 85
Width: 347
GlyphClass: 1
Flags: W
VStem: 9 276
LayerCount: 2
Fore
SplineSet
9 40 m 1,0,-1
 190 261 l 1,1,-1
 93 461 l 1,2,-1
 182 461 l 1,3,-1
 285 251 l 1,4,-1
 113 40 l 1,5,-1
 9 40 l 1,0,-1
EndSplineSet
EndChar

StartChar: fraction
Encoding: 277 8260 86
Width: 444
GlyphClass: 1
Flags: W
HStem: 0 21G<-47 55.012> 648 20G<406.988 509>
LayerCount: 2
Fore
SplineSet
-47 0 m 1,0,-1
 421 668 l 1,1,-1
 509 668 l 1,2,-1
 41 0 l 1,3,-1
 -47 0 l 1,0,-1
EndSplineSet
EndChar

StartChar: ordfeminine
Encoding: 170 170 87
Width: 363
GlyphClass: 1
Flags: W
HStem: 396 51<145.855 232.007> 643 48<175.124 266.594>
VStem: 72 73<448.244 508.558> 255 59<403 441> 275 67<576.088 633.781>
LayerCount: 2
Fore
SplineSet
159 396 m 0,0,1
 120 396 120 396 96 416 c 128,-1,2
 72 436 72 436 72 468 c 0,3,4
 72 508 72 508 100.5 529.5 c 128,-1,5
 129 551 129 551 174.5 561 c 128,-1,6
 220 571 220 571 272 577 c 1,7,8
 275 589 275 589 275 601 c 0,9,10
 275 618 275 618 264 630.5 c 128,-1,11
 253 643 253 643 221 643 c 0,12,13
 204 643 204 643 189 634 c 128,-1,14
 174 625 174 625 165 606 c 1,15,-1
 108 624 l 1,16,17
 141 691 141 691 231 691 c 0,18,19
 283 691 283 691 312.5 669.5 c 128,-1,20
 342 648 342 648 342 605 c 0,21,22
 342 598 342 598 341 589.5 c 128,-1,23
 340 581 340 581 338 572 c 0,24,25
 328 530 328 530 321 488.5 c 128,-1,26
 314 447 314 447 314 403 c 1,27,-1
 255 403 l 1,28,-1
 252 441 l 1,29,30
 235 414 235 414 209.5 405 c 128,-1,31
 184 396 184 396 159 396 c 0,0,1
179 447 m 0,32,33
 220 447 220 447 235.5 468 c 128,-1,34
 251 489 251 489 259 518 c 2,35,-1
 262 529 l 1,36,-1
 239 526 l 2,37,38
 184 520 184 520 164.5 508.5 c 128,-1,39
 145 497 145 497 145 476 c 0,40,41
 145 447 145 447 179 447 c 0,32,33
EndSplineSet
EndChar

StartChar: guillemotleft
Encoding: 171 171 88
Width: 563
GlyphClass: 1
Flags: W
LayerCount: 2
Fore
SplineSet
356 40 m 1,0,-1
 253 250 l 1,1,-1
 425 461 l 1,2,-1
 529 461 l 1,3,-1
 348 240 l 1,4,-1
 445 40 l 1,5,-1
 356 40 l 1,0,-1
148 40 m 1,6,-1
 45 250 l 1,7,-1
 217 461 l 1,8,-1
 321 461 l 1,9,-1
 140 240 l 1,10,-1
 237 40 l 1,11,-1
 148 40 l 1,6,-1
EndSplineSet
EndChar

StartChar: logicalnot
Encoding: 172 172 89
Width: 667
GlyphClass: 1
Flags: W
HStem: 317 79<75 490>
VStem: 490 81<90 317>
LayerCount: 2
Fore
SplineSet
490 90 m 1,0,-1
 490 317 l 1,1,-1
 75 317 l 1,2,-1
 75 396 l 1,3,-1
 571 396 l 1,4,-1
 571 90 l 1,5,-1
 490 90 l 1,0,-1
EndSplineSet
EndChar

StartChar: registered
Encoding: 174 174 90
Width: 814
GlyphClass: 1
Flags: W
HStem: -12 61<306.396 525.604> 301 58<357 399> 469 61<357 466.247> 619 61<307.197 524.803>
VStem: 70 62<224.376 442.762> 281 76<162 301 359 469> 491 76<372.484 456.897> 700 62<224.376 442.762>
LayerCount: 2
Fore
SplineSet
416 -12 m 256,0,1
 344 -12 344 -12 281.5 15 c 128,-1,2
 219 42 219 42 171.5 89.5 c 128,-1,3
 124 137 124 137 97 199.5 c 128,-1,4
 70 262 70 262 70 333 c 0,5,6
 70 405 70 405 97 468 c 128,-1,7
 124 531 124 531 171.5 578.5 c 128,-1,8
 219 626 219 626 281.5 653 c 128,-1,9
 344 680 344 680 416 680 c 256,10,11
 488 680 488 680 550.5 653 c 128,-1,12
 613 626 613 626 660.5 578.5 c 128,-1,13
 708 531 708 531 735 468 c 128,-1,14
 762 405 762 405 762 333 c 0,15,16
 762 262 762 262 735 199.5 c 128,-1,17
 708 137 708 137 660.5 89.5 c 128,-1,18
 613 42 613 42 550.5 15 c 128,-1,19
 488 -12 488 -12 416 -12 c 256,0,1
416 49 m 256,20,21
 475 49 475 49 526.5 71 c 128,-1,22
 578 93 578 93 617 132.5 c 128,-1,23
 656 172 656 172 678 223.5 c 128,-1,24
 700 275 700 275 700 333 c 0,25,26
 700 392 700 392 678 443.5 c 128,-1,27
 656 495 656 495 617 534.5 c 128,-1,28
 578 574 578 574 526.5 596.5 c 128,-1,29
 475 619 475 619 416 619 c 256,30,31
 357 619 357 619 305.5 596.5 c 128,-1,32
 254 574 254 574 215 534.5 c 128,-1,33
 176 495 176 495 154 443.5 c 128,-1,34
 132 392 132 392 132 333 c 0,35,36
 132 275 132 275 154 223.5 c 128,-1,37
 176 172 176 172 215 132.5 c 128,-1,38
 254 93 254 93 305.5 71 c 128,-1,39
 357 49 357 49 416 49 c 256,20,21
281 162 m 1,40,-1
 281 530 l 1,41,-1
 393 530 l 2,42,43
 448 530 448 530 486.5 521 c 128,-1,44
 525 512 525 512 546 487.5 c 128,-1,45
 567 463 567 463 567 414 c 0,46,47
 567 399 567 399 561 378.5 c 128,-1,48
 555 358 555 358 536 340 c 128,-1,49
 517 322 517 322 479 311 c 1,50,-1
 587 162 l 1,51,-1
 501 162 l 1,52,-1
 399 301 l 1,53,-1
 357 301 l 1,54,-1
 357 162 l 1,55,-1
 281 162 l 1,40,-1
357 359 m 1,56,-1
 410 359 l 2,57,58
 453 359 453 359 472 373 c 128,-1,59
 491 387 491 387 491 413 c 0,60,61
 491 447 491 447 467 458 c 128,-1,62
 443 469 443 469 405 469 c 2,63,-1
 357 469 l 1,64,-1
 357 359 l 1,56,-1
EndSplineSet
EndChar

StartChar: macron
Encoding: 175 175 91
Width: 382
GlyphClass: 1
Flags: W
HStem: 601 67<133 395>
VStem: 119 290
LayerCount: 2
Fore
SplineSet
119 601 m 1,0,-1
 133 668 l 1,1,-1
 409 668 l 1,2,-1
 395 601 l 1,3,-1
 119 601 l 1,0,-1
EndSplineSet
EndChar

StartChar: degree
Encoding: 176 176 92
Width: 358
GlyphClass: 1
Flags: W
HStem: 408 63<172.033 274.555> 617 63<171.524 275.061>
VStem: 87 63<493.033 595.555> 296 63<492.524 596.061>
LayerCount: 2
Fore
SplineSet
223 408 m 0,0,1
 186 408 186 408 155 426.5 c 128,-1,2
 124 445 124 445 105.5 476 c 128,-1,3
 87 507 87 507 87 544 c 0,4,5
 87 582 87 582 105.5 612.5 c 128,-1,6
 124 643 124 643 155 661.5 c 128,-1,7
 186 680 186 680 223 680 c 0,8,9
 261 680 261 680 291.5 661.5 c 128,-1,10
 322 643 322 643 340.5 612.5 c 128,-1,11
 359 582 359 582 359 544 c 0,12,13
 359 507 359 507 340.5 476 c 128,-1,14
 322 445 322 445 291.5 426.5 c 128,-1,15
 261 408 261 408 223 408 c 0,0,1
223 471 m 0,16,17
 254 471 254 471 275 492.5 c 128,-1,18
 296 514 296 514 296 544 c 0,19,20
 296 575 296 575 275 596 c 128,-1,21
 254 617 254 617 223 617 c 0,22,23
 193 617 193 617 171.5 596 c 128,-1,24
 150 575 150 575 150 544 c 0,25,26
 150 514 150 514 171.5 492.5 c 128,-1,27
 193 471 193 471 223 471 c 0,16,17
EndSplineSet
EndChar

StartChar: plusminus
Encoding: 177 177 93
Width: 653
GlyphClass: 1
Flags: W
HStem: 0 79<65 538> 270 79<65 262 341 538> 476 20G<262 341>
VStem: 262 79<124 270 349 496>
LayerCount: 2
Fore
SplineSet
262 124 m 1,0,-1
 262 270 l 1,1,-1
 65 270 l 1,2,-1
 65 349 l 1,3,-1
 262 349 l 1,4,-1
 262 496 l 1,5,-1
 341 496 l 1,6,-1
 341 349 l 1,7,-1
 538 349 l 1,8,-1
 538 270 l 1,9,-1
 341 270 l 1,10,-1
 341 124 l 1,11,-1
 262 124 l 1,0,-1
65 0 m 1,12,-1
 65 79 l 1,13,-1
 538 79 l 1,14,-1
 538 0 l 1,15,-1
 65 0 l 1,12,-1
EndSplineSet
EndChar

StartChar: uni00B2
Encoding: 178 178 94
Width: 384
GlyphClass: 1
Flags: W
HStem: 403 58<168 335> 676 21G<119 184.5> 736 50<202.597 299.32>
VStem: 312 70<619.301 724.016>
LayerCount: 2
Fore
SplineSet
59 403 m 1,0,-1
 71 457 l 1,1,2
 165 509 165 509 217 547.5 c 128,-1,3
 269 586 269 586 290.5 619 c 128,-1,4
 312 652 312 652 312 684 c 0,5,6
 312 708 312 708 296.5 722 c 128,-1,7
 281 736 281 736 257 736 c 0,8,9
 234 736 234 736 212 722 c 128,-1,10
 190 708 190 708 179 676 c 1,11,-1
 119 695 l 1,12,13
 136 737 136 737 171.5 761.5 c 128,-1,14
 207 786 207 786 258 786 c 256,15,16
 309 786 309 786 345.5 762.5 c 128,-1,17
 382 739 382 739 382 689 c 0,18,19
 382 631 382 631 326.5 571.5 c 128,-1,20
 271 512 271 512 168 461 c 1,21,-1
 347 461 l 1,22,-1
 335 403 l 1,23,-1
 59 403 l 1,0,-1
EndSplineSet
EndChar

StartChar: uni00B3
Encoding: 179 179 95
Width: 394
GlyphClass: 1
Flags: W
HStem: 396 51<170.194 278.861> 483 20G<87 154.5> 572 54<205 284.592> 736 50<199.297 303.885>
VStem: 298 69<464.332 554.637> 317 68<644.11 725.027>
LayerCount: 2
Fore
SplineSet
220 396 m 0,0,1
 171 396 171 396 136 420 c 128,-1,2
 101 444 101 444 87 486 c 1,3,-1
 151 503 l 1,4,5
 158 479 158 479 175.5 463 c 128,-1,6
 193 447 193 447 223 447 c 0,7,8
 255 447 255 447 276.5 464 c 128,-1,9
 298 481 298 481 298 513 c 0,10,11
 298 539 298 539 285 551.5 c 128,-1,12
 272 564 272 564 253.5 568 c 128,-1,13
 235 572 235 572 217 572 c 2,14,-1
 194 572 l 1,15,-1
 205 626 l 1,16,-1
 221 626 l 2,17,18
 239 627 239 627 261.5 630.5 c 128,-1,19
 284 634 284 634 300.5 645.5 c 128,-1,20
 317 657 317 657 317 682 c 0,21,22
 317 712 317 712 299.5 724 c 128,-1,23
 282 736 282 736 258 736 c 0,24,25
 230 736 230 736 211 724 c 128,-1,26
 192 712 192 712 178 683 c 1,27,-1
 120 701 l 1,28,29
 141 745 141 745 178 765.5 c 128,-1,30
 215 786 215 786 261 786 c 0,31,32
 292 786 292 786 320.5 777 c 128,-1,33
 349 768 349 768 367 747 c 128,-1,34
 385 726 385 726 385 689 c 0,35,36
 385 661 385 661 368 638 c 128,-1,37
 351 615 351 615 317 602 c 1,38,39
 345 589 345 589 356 565.5 c 128,-1,40
 367 542 367 542 367 519 c 0,41,42
 367 479 367 479 346.5 451.5 c 128,-1,43
 326 424 326 424 292.5 410 c 128,-1,44
 259 396 259 396 220 396 c 0,0,1
EndSplineSet
EndChar

StartChar: acute
Encoding: 180 180 96
Width: 271
GlyphClass: 1
Flags: W
HStem: 572 135
VStem: 113 184
LayerCount: 2
Fore
SplineSet
113 572 m 1,0,1
 113 572 113 572 128.5 589 c 128,-1,2
 144 606 144 606 166 629 c 128,-1,3
 188 652 188 652 207.5 672 c 128,-1,4
 227 692 227 692 234 698 c 0,5,6
 245 707 245 707 259 707 c 0,7,8
 276 707 276 707 288 695 c 0,9,10
 297 685 297 685 297 669 c 0,11,12
 297 652 297 652 285 641 c 0,13,14
 278 635 278 635 262 623.5 c 128,-1,15
 246 612 246 612 228.5 600 c 128,-1,16
 211 588 211 588 199 580 c 128,-1,17
 187 572 187 572 187 572 c 1,18,-1
 113 572 l 1,0,1
EndSplineSet
EndChar

StartChar: uni03BC
Encoding: 278 956 97
Width: 543
GlyphClass: 1
Flags: W
HStem: -162 21G<-26 66.1748> -12 69<151.477 282.044> 0 21G<344.529 415.283> 475 20G<109.738 202 426.769 517>
VStem: 346 65<0 32.6887>
LayerCount: 2
Fore
SplineSet
-26 -162 m 1,0,-1
 114 495 l 1,1,-1
 202 495 l 1,2,-1
 138 196 l 2,3,4
 125 131 125 131 141 94 c 128,-1,5
 157 57 157 57 224 57 c 0,6,7
 254 57 254 57 283 72 c 128,-1,8
 312 87 312 87 336.5 126 c 128,-1,9
 361 165 361 165 376 235 c 2,10,-1
 431 495 l 1,11,-1
 517 495 l 1,12,-1
 411 0 l 1,13,-1
 346 0 l 1,14,-1
 341 68 l 1,15,16
 314 31 314 31 282 9.5 c 128,-1,17
 250 -12 250 -12 195 -12 c 0,18,19
 168 -12 168 -12 143 2 c 128,-1,20
 118 16 118 16 105 44 c 1,21,-1
 62 -162 l 1,22,-1
 -26 -162 l 1,0,-1
EndSplineSet
EndChar

StartChar: paragraph
Encoding: 182 182 98
Width: 522
GlyphClass: 1
Flags: W
HStem: -162 21G<91 178.252 268 355.226> 600 68<336 429 512 553>
LayerCount: 2
Fore
SplineSet
91 -162 m 1,0,-1
 188 294 l 1,1,2
 136 306 136 306 105 345.5 c 128,-1,3
 74 385 74 385 74 438 c 0,4,5
 74 448 74 448 75 458 c 128,-1,6
 76 468 76 468 78 478 c 0,7,8
 90 531 90 531 124.5 574 c 128,-1,9
 159 617 159 617 207.5 642.5 c 128,-1,10
 256 668 256 668 308 668 c 2,11,-1
 568 668 l 1,12,-1
 553 600 l 1,13,-1
 512 600 l 1,14,-1
 351 -162 l 1,15,-1
 268 -162 l 1,16,-1
 429 600 l 1,17,-1
 336 600 l 1,18,-1
 174 -162 l 1,19,-1
 91 -162 l 1,0,-1
EndSplineSet
EndChar

StartChar: periodcentered
Encoding: 183 183 99
Width: 235
GlyphClass: 1
Flags: W
HStem: 183 129<72.5955 162.404>
VStem: 53 129<202.596 292.405>
LayerCount: 2
Fore
SplineSet
117 183 m 0,0,1
 91 183 91 183 72 202 c 128,-1,2
 53 221 53 221 53 248 c 0,3,4
 53 274 53 274 72 293 c 128,-1,5
 91 312 91 312 117 312 c 0,6,7
 144 312 144 312 163 293 c 128,-1,8
 182 274 182 274 182 248 c 0,9,10
 182 221 182 221 163 202 c 128,-1,11
 144 183 144 183 117 183 c 0,0,1
EndSplineSet
EndChar

StartChar: cedilla
Encoding: 184 184 100
Width: 294
GlyphClass: 1
Flags: W
HStem: -181 41<-11.4551 106.638>
VStem: 113 63<-132.12 -86.0335>
LayerCount: 2
Fore
SplineSet
63 -181 m 0,0,1
 26 -181 26 -181 -24 -163 c 1,2,-1
 -1 -126 l 1,3,4
 16 -133 16 -133 30 -136.5 c 128,-1,5
 44 -140 44 -140 56 -140 c 0,6,7
 83 -140 83 -140 98 -128 c 128,-1,8
 113 -116 113 -116 113 -104 c 0,9,10
 113 -95 113 -95 105 -88.5 c 128,-1,11
 97 -82 97 -82 78 -82 c 0,12,13
 63 -82 63 -82 56 -84.5 c 128,-1,14
 49 -87 49 -87 43 -87 c 0,15,16
 25 -87 25 -87 25 -70 c 0,17,18
 25 -64 25 -64 30 -57 c 2,19,-1
 98 25 l 1,20,-1
 128 4 l 1,21,-1
 87 -45 l 1,22,23
 94 -44 94 -44 99.5 -43.5 c 128,-1,24
 105 -43 105 -43 111 -43 c 0,25,26
 144 -43 144 -43 160 -59 c 128,-1,27
 176 -75 176 -75 176 -96 c 0,28,29
 176 -125 176 -125 147.5 -153 c 128,-1,30
 119 -181 119 -181 63 -181 c 0,0,1
EndSplineSet
EndChar

StartChar: uni00B9
Encoding: 185 185 101
Width: 257
GlyphClass: 1
Flags: W
HStem: 682 48<126 198.444>
VStem: 116 172
LayerCount: 2
Fore
SplineSet
139 403 m 1,0,-1
 199 682 l 1,1,-1
 116 682 l 1,2,-1
 126 730 l 1,3,4
 166 730 166 730 191.5 740.5 c 128,-1,5
 217 751 217 751 231 779 c 1,6,-1
 288 779 l 1,7,-1
 208 403 l 1,8,-1
 139 403 l 1,0,-1
EndSplineSet
EndChar

StartChar: ordmasculine
Encoding: 186 186 102
Width: 383
GlyphClass: 1
Flags: W
HStem: 399 53<172.593 264.899> 639 53<186.407 278.689>
VStem: 87 69<470.065 607.389> 295 69<483.094 621.232>
LayerCount: 2
Fore
SplineSet
210 399 m 0,0,1
 161 399 161 399 124 429 c 128,-1,2
 87 459 87 459 87 523 c 0,3,4
 87 581 87 581 109.5 618.5 c 128,-1,5
 132 656 132 656 167.5 674 c 128,-1,6
 203 692 203 692 241 692 c 0,7,8
 291 692 291 692 327.5 661.5 c 128,-1,9
 364 631 364 631 364 567 c 0,10,11
 364 509 364 509 341.5 472 c 128,-1,12
 319 435 319 435 283.5 417 c 128,-1,13
 248 399 248 399 210 399 c 0,0,1
216 452 m 0,14,15
 249 452 249 452 272 481.5 c 128,-1,16
 295 511 295 511 295 563 c 0,17,18
 295 599 295 599 278.5 619 c 128,-1,19
 262 639 262 639 235 639 c 0,20,21
 203 639 203 639 179.5 610 c 128,-1,22
 156 581 156 581 156 529 c 0,23,24
 156 492 156 492 172.5 472 c 128,-1,25
 189 452 189 452 216 452 c 0,14,15
EndSplineSet
EndChar

StartChar: guillemotright
Encoding: 187 187 103
Width: 555
GlyphClass: 1
Flags: W
LayerCount: 2
Fore
SplineSet
217 40 m 1,0,-1
 398 261 l 1,1,-1
 301 461 l 1,2,-1
 390 461 l 1,3,-1
 493 251 l 1,4,-1
 321 40 l 1,5,-1
 217 40 l 1,0,-1
9 40 m 1,6,-1
 190 261 l 1,7,-1
 93 461 l 1,8,-1
 182 461 l 1,9,-1
 285 251 l 1,10,-1
 113 40 l 1,11,-1
 9 40 l 1,6,-1
EndSplineSet
EndChar

StartChar: onequarter
Encoding: 188 188 104
Width: 824
GlyphClass: 1
Flags: W
HStem: 0 21G<100 202.012 574 648.186> 86 57<492 592 674 727> 571 47<122 194.444> 648 20G<220 284 553.988 656>
LayerCount: 2
Fore
SplineSet
100 0 m 1,0,-1
 568 668 l 1,1,-1
 656 668 l 1,2,-1
 188 0 l 1,3,-1
 100 0 l 1,0,-1
136 292 m 1,4,-1
 195 571 l 1,5,-1
 112 571 l 1,6,-1
 122 618 l 1,7,8
 162 618 162 618 187.5 628.5 c 128,-1,9
 213 639 213 639 227 667 c 1,10,-1
 284 667 l 1,11,-1
 204 292 l 1,12,-1
 136 292 l 1,4,-1
574 0 m 1,13,-1
 592 86 l 1,14,-1
 399 86 l 1,15,-1
 411 140 l 1,16,-1
 647 375 l 1,17,-1
 724 375 l 1,18,-1
 674 143 l 1,19,-1
 739 143 l 1,20,-1
 727 86 l 1,21,-1
 662 86 l 1,22,-1
 644 0 l 1,23,-1
 574 0 l 1,13,-1
492 143 m 1,24,-1
 604 143 l 1,25,-1
 636 289 l 1,26,-1
 492 143 l 1,24,-1
EndSplineSet
Ligature2: "'frac' Diagonal Fractions lookup 10 subtable" one slash four
EndChar

StartChar: onehalf
Encoding: 189 189 105
Width: 802
GlyphClass: 1
Flags: W
HStem: 0 58<520 687> 333 49<554.597 651.117> 571 47<122 193.695> 648 20G<220 284 546.988 649>
VStem: 664 71<215.722 320.107>
LayerCount: 2
Fore
SplineSet
93 0 m 1,0,-1
 561 668 l 1,1,-1
 649 668 l 1,2,-1
 181 0 l 1,3,-1
 93 0 l 1,0,-1
135 292 m 1,4,-1
 194 571 l 1,5,-1
 112 571 l 1,6,-1
 122 618 l 1,7,8
 162 618 162 618 187.5 628.5 c 128,-1,9
 213 639 213 639 227 667 c 1,10,-1
 284 667 l 1,11,-1
 204 292 l 1,12,-1
 135 292 l 1,4,-1
411 0 m 1,13,-1
 422 54 l 1,14,15
 516 106 516 106 568.5 144.5 c 128,-1,16
 621 183 621 183 642.5 215.5 c 128,-1,17
 664 248 664 248 664 280 c 0,18,19
 664 304 664 304 648 318.5 c 128,-1,20
 632 333 632 333 608 333 c 0,21,22
 586 333 586 333 564 319 c 128,-1,23
 542 305 542 305 531 273 c 1,24,-1
 471 292 l 1,25,26
 488 334 488 334 523.5 358 c 128,-1,27
 559 382 559 382 610 382 c 256,28,29
 661 382 661 382 698 359 c 128,-1,30
 735 336 735 336 735 286 c 0,31,32
 735 227 735 227 678.5 168 c 128,-1,33
 622 109 622 109 520 58 c 1,34,-1
 699 58 l 1,35,-1
 687 0 l 1,36,-1
 411 0 l 1,13,-1
EndSplineSet
Ligature2: "'frac' Diagonal Fractions lookup 10 subtable" one slash two
EndChar

StartChar: threequarters
Encoding: 190 190 106
Width: 906
GlyphClass: 1
Flags: W
HStem: 0 21G<193 295.012 656 730.419> 86 57<574 675 756 809> 291 51<165.194 273.861> 467 54<200 279.592> 631 50<194.297 298.885> 648 20G<646.988 749>
VStem: 293 69<359.332 449.637> 312 68<539.11 620.027>
LayerCount: 2
Fore
SplineSet
215 291 m 0,0,1
 166 291 166 291 131 315 c 128,-1,2
 96 339 96 339 82 381 c 1,3,-1
 146 398 l 1,4,5
 153 374 153 374 170.5 358 c 128,-1,6
 188 342 188 342 218 342 c 0,7,8
 250 342 250 342 271.5 359 c 128,-1,9
 293 376 293 376 293 408 c 0,10,11
 293 434 293 434 280 446.5 c 128,-1,12
 267 459 267 459 248.5 463 c 128,-1,13
 230 467 230 467 212 467 c 2,14,-1
 189 467 l 1,15,-1
 200 521 l 1,16,-1
 216 521 l 2,17,18
 234 522 234 522 256.5 525.5 c 128,-1,19
 279 529 279 529 295.5 540.5 c 128,-1,20
 312 552 312 552 312 577 c 0,21,22
 312 607 312 607 294.5 619 c 128,-1,23
 277 631 277 631 253 631 c 0,24,25
 225 631 225 631 206 619 c 128,-1,26
 187 607 187 607 173 578 c 1,27,-1
 115 596 l 1,28,29
 136 640 136 640 173 660.5 c 128,-1,30
 210 681 210 681 256 681 c 0,31,32
 287 681 287 681 315.5 672 c 128,-1,33
 344 663 344 663 362 642 c 128,-1,34
 380 621 380 621 380 584 c 0,35,36
 380 556 380 556 363 533 c 128,-1,37
 346 510 346 510 312 497 c 1,38,39
 340 484 340 484 351 460.5 c 128,-1,40
 362 437 362 437 362 414 c 0,41,42
 362 374 362 374 341.5 346.5 c 128,-1,43
 321 319 321 319 287.5 305 c 128,-1,44
 254 291 254 291 215 291 c 0,0,1
193 0 m 1,45,-1
 661 668 l 1,46,-1
 749 668 l 1,47,-1
 281 0 l 1,48,-1
 193 0 l 1,45,-1
656 0 m 1,49,-1
 675 86 l 1,50,-1
 482 86 l 1,51,-1
 493 140 l 1,52,-1
 730 375 l 1,53,-1
 806 375 l 1,54,-1
 756 143 l 1,55,-1
 821 143 l 1,56,-1
 809 86 l 1,57,-1
 745 86 l 1,58,-1
 726 0 l 1,59,-1
 656 0 l 1,49,-1
574 143 m 1,60,-1
 687 143 l 1,61,-1
 718 289 l 1,62,-1
 574 143 l 1,60,-1
EndSplineSet
Ligature2: "'frac' Diagonal Fractions lookup 10 subtable" three slash four
EndChar

StartChar: less
Encoding: 60 60 107
Width: 613
GlyphClass: 1
Flags: W
HStem: 0 21G<466.587 511> 476 20G<466.587 511>
LayerCount: 2
Fore
SplineSet
511 0 m 1,0,-1
 38 213 l 1,1,-1
 38 283 l 1,2,-1
 511 496 l 1,3,-1
 511 406 l 1,4,-1
 143 248 l 1,5,-1
 511 90 l 1,6,-1
 511 0 l 1,0,-1
EndSplineSet
EndChar

StartChar: equal
Encoding: 61 61 108
Width: 658
GlyphClass: 1
Flags: W
HStem: 121 79<63 559> 307 79<63 559>
LayerCount: 2
Fore
SplineSet
63 307 m 1,0,-1
 63 386 l 1,1,-1
 559 386 l 1,2,-1
 559 307 l 1,3,-1
 63 307 l 1,0,-1
63 121 m 1,4,-1
 63 200 l 1,5,-1
 559 200 l 1,6,-1
 559 121 l 1,7,-1
 63 121 l 1,4,-1
EndSplineSet
EndChar

StartChar: greater
Encoding: 62 62 109
Width: 613
GlyphClass: 1
Flags: W
HStem: 0 21G<83 127.413> 476 20G<83 127.413>
LayerCount: 2
Fore
SplineSet
83 0 m 1,0,-1
 83 90 l 1,1,-1
 451 248 l 1,2,-1
 83 406 l 1,3,-1
 83 496 l 1,4,-1
 556 283 l 1,5,-1
 556 213 l 1,6,-1
 83 0 l 1,0,-1
EndSplineSet
EndChar

StartChar: question
Encoding: 63 63 110
Width: 527
GlyphClass: 1
Flags: W
HStem: -12 129<143.626 235.861> 500 21G<101.833 184.5> 609 70<234.771 402.092>
VStem: 123 130<8.62598 98.4348> 170 85<190 265.127> 433 91<471.184 579.567>
LayerCount: 2
Fore
SplineSet
170 190 m 1,0,1
 172 199 172 199 174 208.5 c 128,-1,2
 176 218 176 218 177 227 c 0,3,4
 190 284 190 284 213.5 319 c 128,-1,5
 237 354 237 354 270 377.5 c 128,-1,6
 303 401 303 401 342 421 c 0,7,8
 377 439 377 439 405 464.5 c 128,-1,9
 433 490 433 490 433 527 c 0,10,11
 433 565 433 565 403 587 c 128,-1,12
 373 609 373 609 329 609 c 0,13,14
 203 609 203 609 166 500 c 1,15,-1
 89 524 l 1,16,17
 118 604 118 604 182.5 641.5 c 128,-1,18
 247 679 247 679 332 679 c 0,19,20
 376 679 376 679 420 665 c 128,-1,21
 464 651 464 651 494 619.5 c 128,-1,22
 524 588 524 588 524 533 c 0,23,24
 524 487 524 487 503.5 454 c 128,-1,25
 483 421 483 421 449 396.5 c 128,-1,26
 415 372 415 372 372 351 c 0,27,28
 314 323 314 323 292.5 292.5 c 128,-1,29
 271 262 271 262 263 224 c 0,30,31
 261 216 261 216 259 207 c 128,-1,32
 257 198 257 198 255 190 c 1,33,-1
 170 190 l 1,0,1
188 -12 m 0,34,35
 158 -12 158 -12 140.5 8 c 128,-1,36
 123 28 123 28 123 52 c 0,37,38
 123 81 123 81 143 99 c 128,-1,39
 163 117 163 117 188 117 c 0,40,41
 214 117 214 117 233.5 98 c 128,-1,42
 253 79 253 79 253 53 c 0,43,44
 253 26 253 26 233.5 7 c 128,-1,45
 214 -12 214 -12 188 -12 c 0,34,35
EndSplineSet
EndChar

StartChar: at
Encoding: 64 64 111
Width: 784
GlyphClass: 1
Flags: W
HStem: -12 60<297.36 516.85> 155 73<307.087 400.871> 155 64<525.993 634.827> 446 73<361.473 475> 619 61<301.896 521.293>
VStem: 65 62<214.91 444.859> 213 81<240.639 372.664> 682 62<273.435 464.814>
LayerCount: 2
Fore
SplineSet
414 -12 m 256,0,1
 344 -12 344 -12 281 10 c 128,-1,2
 218 32 218 32 169 75.5 c 128,-1,3
 120 119 120 119 92.5 183.5 c 128,-1,4
 65 248 65 248 65 334 c 0,5,6
 65 406 65 406 92 468.5 c 128,-1,7
 119 531 119 531 166.5 578.5 c 128,-1,8
 214 626 214 626 276.5 653 c 128,-1,9
 339 680 339 680 411 680 c 0,10,11
 468 680 468 680 526.5 659.5 c 128,-1,12
 585 639 585 639 634.5 599 c 128,-1,13
 684 559 684 559 714 500.5 c 128,-1,14
 744 442 744 442 744 366 c 256,15,16
 744 290 744 290 717 243.5 c 128,-1,17
 690 197 690 197 649 176 c 128,-1,18
 608 155 608 155 567 155 c 0,19,20
 525 155 525 155 493 174 c 128,-1,21
 461 193 461 193 454 225 c 1,22,23
 428 190 428 190 393.5 172.5 c 128,-1,24
 359 155 359 155 326 155 c 0,25,26
 281 155 281 155 247 185.5 c 128,-1,27
 213 216 213 216 213 275 c 0,28,29
 213 344 213 344 243.5 399 c 128,-1,30
 274 454 274 454 328 486.5 c 128,-1,31
 382 519 382 519 452 519 c 0,32,33
 483 519 483 519 513 513.5 c 128,-1,34
 543 508 543 508 569 499 c 1,35,-1
 528 303 l 2,36,37
 525 290 525 290 522.5 278.5 c 128,-1,38
 520 267 520 267 520 258 c 0,39,40
 520 242 520 242 536 230.5 c 128,-1,41
 552 219 552 219 574 219 c 0,42,43
 610 219 610 219 634 240 c 128,-1,44
 658 261 658 261 670 295 c 128,-1,45
 682 329 682 329 682 368 c 0,46,47
 682 419 682 419 661 464 c 128,-1,48
 640 509 640 509 603 544 c 128,-1,49
 566 579 566 579 517 599 c 128,-1,50
 468 619 468 619 411 619 c 0,51,52
 353 619 353 619 301.5 597 c 128,-1,53
 250 575 250 575 210.5 536 c 128,-1,54
 171 497 171 497 149 445 c 128,-1,55
 127 393 127 393 127 334 c 0,56,57
 127 243 127 243 166.5 179 c 128,-1,58
 206 115 206 115 271 81.5 c 128,-1,59
 336 48 336 48 412 48 c 0,60,61
 483 48 483 48 547 85 c 1,62,-1
 547 16 l 1,63,64
 484 -12 484 -12 414 -12 c 256,0,1
346 228 m 0,65,66
 376 228 376 228 409 256 c 128,-1,67
 442 284 442 284 453 339 c 0,68,69
 464 390 464 390 468.5 411.5 c 128,-1,70
 473 433 473 433 474 437.5 c 128,-1,71
 475 442 475 442 475 442 c 1,72,73
 465 444 465 444 454.5 445 c 128,-1,74
 444 446 444 446 432 446 c 0,75,76
 389 446 389 446 358 422.5 c 128,-1,77
 327 399 327 399 310.5 363 c 128,-1,78
 294 327 294 327 294 287 c 0,79,80
 294 258 294 258 309.5 243 c 128,-1,81
 325 228 325 228 346 228 c 0,65,66
EndSplineSet
EndChar

StartChar: colon
Encoding: 58 58 112
Width: 208
GlyphClass: 1
Flags: W
HStem: -12 129<8.59546 98.4043> 375 129<90.5955 180.404>
VStem: -11 129<7.59546 97.4043> 71 129<394.596 484.405>
LayerCount: 2
Fore
SplineSet
135 375 m 0,0,1
 109 375 109 375 90 394 c 128,-1,2
 71 413 71 413 71 440 c 0,3,4
 71 466 71 466 90 485 c 128,-1,5
 109 504 109 504 135 504 c 0,6,7
 162 504 162 504 181 485 c 128,-1,8
 200 466 200 466 200 440 c 0,9,10
 200 413 200 413 181 394 c 128,-1,11
 162 375 162 375 135 375 c 0,0,1
53 -12 m 0,12,13
 27 -12 27 -12 8 7 c 128,-1,14
 -11 26 -11 26 -11 52 c 0,15,16
 -11 79 -11 79 8 98 c 128,-1,17
 27 117 27 117 53 117 c 0,18,19
 80 117 80 117 99 98 c 128,-1,20
 118 79 118 79 118 52 c 0,21,22
 118 26 118 26 99 7 c 128,-1,23
 80 -12 80 -12 53 -12 c 0,12,13
EndSplineSet
EndChar

StartChar: bracketleft
Encoding: 91 91 114
Width: 317
GlyphClass: 1
Flags: W
HStem: -161 74<79 188> 593 75<224 348>
LayerCount: 2
Fore
SplineSet
-20 -161 m 1,0,-1
 156 668 l 1,1,-1
 363 668 l 1,2,-1
 348 593 l 1,3,-1
 224 593 l 1,4,-1
 79 -87 l 1,5,-1
 204 -87 l 1,6,-1
 188 -161 l 1,7,-1
 -20 -161 l 1,0,-1
EndSplineSet
EndChar

StartChar: backslash
Encoding: 92 92 115
Width: 519
GlyphClass: 1
Flags: W
HStem: 0 21G<347.216 442> 648 20G<95 189.784>
LayerCount: 2
Fore
SplineSet
355 0 m 1,0,-1
 95 668 l 1,1,-1
 182 668 l 1,2,-1
 442 0 l 1,3,-1
 355 0 l 1,0,-1
EndSplineSet
EndChar

StartChar: bracketright
Encoding: 93 93 116
Width: 317
GlyphClass: 1
Flags: W
HStem: -161 74<-47 78> 593 75<113 223>
LayerCount: 2
Fore
SplineSet
-63 -161 m 1,0,-1
 -47 -87 l 1,1,-1
 78 -87 l 1,2,-1
 223 593 l 1,3,-1
 98 593 l 1,4,-1
 113 668 l 1,5,-1
 320 668 l 1,6,-1
 145 -161 l 1,7,-1
 -63 -161 l 1,0,-1
EndSplineSet
EndChar

StartChar: asciicircum
Encoding: 94 94 117
Width: 552
GlyphClass: 1
Flags: W
HStem: 648 20G<221.636 318.364>
LayerCount: 2
Fore
SplineSet
47 311 m 1,0,-1
 232 668 l 1,1,-1
 308 668 l 1,2,-1
 493 311 l 1,3,-1
 404 311 l 1,4,-1
 270 569 l 1,5,-1
 136 311 l 1,6,-1
 47 311 l 1,0,-1
EndSplineSet
EndChar

StartChar: underscore
Encoding: 95 95 118
Width: 413
GlyphClass: 1
Flags: W
HStem: -79 79<-32 344>
LayerCount: 2
Fore
SplineSet
-32 -79 m 1,0,-1
 -32 0 l 1,1,-1
 344 0 l 1,2,-1
 344 -79 l 1,3,-1
 -32 -79 l 1,0,-1
EndSplineSet
EndChar

StartChar: grave
Encoding: 96 96 119
Width: 272
GlyphClass: 1
Flags: W
HStem: 571 136
VStem: 134 144
LayerCount: 2
Fore
SplineSet
210 571 m 1,0,1
 210 571 210 571 196 585.5 c 128,-1,2
 182 600 182 600 165.5 618 c 128,-1,3
 149 636 149 636 141 647 c 0,4,5
 134 657 134 657 134 669 c 0,6,7
 134 690 134 690 149 700 c 0,8,9
 159 707 159 707 172 707 c 0,10,11
 192 707 192 707 202 692 c 0,12,13
 208 684 208 684 220.5 664.5 c 128,-1,14
 233 645 233 645 246 623.5 c 128,-1,15
 259 602 259 602 268.5 586.5 c 128,-1,16
 278 571 278 571 278 571 c 1,17,-1
 210 571 l 1,0,1
EndSplineSet
EndChar

StartChar: exclam
Encoding: 33 33 120
Width: 284
GlyphClass: 1
Flags: W
HStem: -12 129<47.1107 136.405> 648 20G<172.723 268>
VStem: 27 129<8.11072 97.4043> 95 54<195 220.301>
LayerCount: 2
Fore
SplineSet
95 195 m 1,0,-1
 140 495 l 1,1,-1
 177 668 l 1,2,-1
 268 668 l 1,3,-1
 232 495 l 1,4,-1
 149 195 l 1,5,-1
 95 195 l 1,0,-1
91 -12 m 0,6,7
 66 -12 66 -12 46.5 6.5 c 128,-1,8
 27 25 27 25 27 53 c 0,9,10
 27 79 27 79 45.5 98 c 128,-1,11
 64 117 64 117 92 117 c 0,12,13
 118 117 118 117 137 98 c 128,-1,14
 156 79 156 79 156 52 c 0,15,16
 156 27 156 27 137.5 7.5 c 128,-1,17
 119 -12 119 -12 91 -12 c 0,6,7
EndSplineSet
EndChar

StartChar: quotedbl
Encoding: 34 34 121
Width: 334
GlyphClass: 1
Flags: W
HStem: 447 221<109 161 250 302>
VStem: 109 52<447 557.5> 250 52<447 557.5>
LayerCount: 2
Fore
SplineSet
250 447 m 1,0,-1
 236 668 l 1,1,-1
 316 668 l 1,2,-1
 302 447 l 1,3,-1
 250 447 l 1,0,-1
109 447 m 1,4,-1
 95 668 l 1,5,-1
 175 668 l 1,6,-1
 161 447 l 1,7,-1
 109 447 l 1,4,-1
EndSplineSet
EndChar

StartChar: numbersign
Encoding: 35 35 122
Width: 634
GlyphClass: 1
Flags: W
HStem: 0 21G<136 220.791 341 425.791> 172 81<48 161 254 365 459 571> 415 81<82 195 288 399 493 605> 648 20G<227.209 312 432.209 517>
LayerCount: 2
Fore
SplineSet
136 0 m 1,0,-1
 161 172 l 1,1,-1
 37 172 l 1,2,-1
 48 253 l 1,3,-1
 172 253 l 1,4,-1
 195 415 l 1,5,-1
 71 415 l 1,6,-1
 82 496 l 1,7,-1
 206 496 l 1,8,-1
 230 668 l 1,9,-1
 312 668 l 1,10,-1
 288 496 l 1,11,-1
 411 496 l 1,12,-1
 435 668 l 1,13,-1
 517 668 l 1,14,-1
 493 496 l 1,15,-1
 616 496 l 1,16,-1
 605 415 l 1,17,-1
 481 415 l 1,18,-1
 459 253 l 1,19,-1
 582 253 l 1,20,-1
 571 172 l 1,21,-1
 447 172 l 1,22,-1
 423 0 l 1,23,-1
 341 0 l 1,24,-1
 365 172 l 1,25,-1
 242 172 l 1,26,-1
 218 0 l 1,27,-1
 136 0 l 1,0,-1
254 253 m 1,28,-1
 377 253 l 1,29,-1
 399 415 l 1,30,-1
 276 415 l 1,31,-1
 254 253 l 1,28,-1
EndSplineSet
EndChar

StartChar: dollar
Encoding: 36 36 123
Width: 610
GlyphClass: 1
Flags: W
HStem: -5 79<275 387.641> 608 80<230.397 336>
VStem: 88 95<449.35 565.147> 448 98<127.481 250.398>
LayerCount: 2
Fore
SplineSet
190 -80 m 1,0,-1
 208 4 l 1,1,2
 150 18 150 18 104 55 c 128,-1,3
 58 92 58 92 37 153 c 1,4,-1
 128 179 l 1,5,6
 140 143 140 143 166.5 120 c 128,-1,7
 193 97 193 97 225 86 c 1,8,-1
 275 319 l 1,9,10
 229 333 229 333 186 352 c 128,-1,11
 143 371 143 371 115.5 406.5 c 128,-1,12
 88 442 88 442 88 503 c 0,13,14
 88 565 88 565 122.5 606 c 128,-1,15
 157 647 157 647 211.5 667.5 c 128,-1,16
 266 688 266 688 326 688 c 0,17,18
 333 688 333 688 339.5 688 c 128,-1,19
 346 688 346 688 353 687 c 1,20,-1
 366 750 l 1,21,-1
 418 750 l 1,22,-1
 403 679 l 1,23,24
 456 667 456 667 499 638 c 128,-1,25
 542 609 542 609 563 563 c 1,26,-1
 471 537 l 1,27,28
 459 560 459 560 437 575.5 c 128,-1,29
 415 591 415 591 386 599 c 1,30,-1
 341 388 l 1,31,32
 378 377 378 377 414 363.5 c 128,-1,33
 450 350 450 350 480 330 c 128,-1,34
 510 310 510 310 528 279.5 c 128,-1,35
 546 249 546 249 546 204 c 0,36,37
 546 154 546 154 524 115 c 128,-1,38
 502 76 502 76 465 49.5 c 128,-1,39
 428 23 428 23 382 9 c 128,-1,40
 336 -5 336 -5 287 -5 c 0,41,42
 280 -5 280 -5 273 -5 c 128,-1,43
 266 -5 266 -5 258 -4 c 1,44,-1
 242 -80 l 1,45,-1
 190 -80 l 1,0,-1
293 403 m 1,46,-1
 336 608 l 1,47,48
 299 611 299 611 263.5 600.5 c 128,-1,49
 228 590 228 590 205.5 566.5 c 128,-1,50
 183 543 183 543 183 505 c 0,51,52
 183 463 183 463 215 440.5 c 128,-1,53
 247 418 247 418 293 403 c 1,46,-1
296 74 m 0,54,55
 335 74 335 74 370 87.5 c 128,-1,56
 405 101 405 101 426.5 127.5 c 128,-1,57
 448 154 448 154 448 191 c 0,58,59
 448 224 448 224 431 245 c 128,-1,60
 414 266 414 266 386 279.5 c 128,-1,61
 358 293 358 293 324 304 c 1,62,-1
 275 75 l 1,63,64
 280 74 280 74 285.5 74 c 128,-1,65
 291 74 291 74 296 74 c 0,54,55
EndSplineSet
EndChar

StartChar: percent
Encoding: 37 37 124
Width: 1000
GlyphClass: 1
Flags: W
HStem: -12 74<679.188 808.625> 0 21G<231 333.012> 277 74<696.257 827.077> 317 74<191.188 320.625> 606 74<208.257 339.077> 648 20G<684.988 787>
VStem: 82 74<426.039 553.766> 373 75<443.124 572.434> 570 74<97.0391 224.766> 861 75<114.124 243.434>
LayerCount: 2
Fore
SplineSet
246 317 m 0,0,1
 199 317 199 317 162 338.5 c 128,-1,2
 125 360 125 360 103.5 397 c 128,-1,3
 82 434 82 434 82 479 c 0,4,5
 82 534 82 534 110 579.5 c 128,-1,6
 138 625 138 625 184.5 652.5 c 128,-1,7
 231 680 231 680 284 680 c 0,8,9
 331 680 331 680 368 658.5 c 128,-1,10
 405 637 405 637 426.5 600.5 c 128,-1,11
 448 564 448 564 448 519 c 0,12,13
 448 464 448 464 419.5 418 c 128,-1,14
 391 372 391 372 345 344.5 c 128,-1,15
 299 317 299 317 246 317 c 0,0,1
231 0 m 1,16,-1
 699 668 l 1,17,-1
 787 668 l 1,18,-1
 319 0 l 1,19,-1
 231 0 l 1,16,-1
254 391 m 0,20,21
 286 391 286 391 313 407.5 c 128,-1,22
 340 424 340 424 356.5 451.5 c 128,-1,23
 373 479 373 479 373 512 c 0,24,25
 373 552 373 552 345.5 579 c 128,-1,26
 318 606 318 606 276 606 c 0,27,28
 245 606 245 606 217.5 590 c 128,-1,29
 190 574 190 574 173 547 c 128,-1,30
 156 520 156 520 156 488 c 0,31,32
 156 447 156 447 184 419 c 128,-1,33
 212 391 212 391 254 391 c 0,20,21
734 -12 m 0,34,35
 687 -12 687 -12 650 9.5 c 128,-1,36
 613 31 613 31 591.5 68 c 128,-1,37
 570 105 570 105 570 150 c 0,38,39
 570 205 570 205 598 250.5 c 128,-1,40
 626 296 626 296 672.5 323.5 c 128,-1,41
 719 351 719 351 772 351 c 0,42,43
 819 351 819 351 856 329.5 c 128,-1,44
 893 308 893 308 914.5 271.5 c 128,-1,45
 936 235 936 235 936 190 c 0,46,47
 936 135 936 135 907.5 89 c 128,-1,48
 879 43 879 43 833 15.5 c 128,-1,49
 787 -12 787 -12 734 -12 c 0,34,35
742 62 m 0,50,51
 774 62 774 62 801 78.5 c 128,-1,52
 828 95 828 95 844.5 122.5 c 128,-1,53
 861 150 861 150 861 183 c 0,54,55
 861 223 861 223 833.5 250 c 128,-1,56
 806 277 806 277 764 277 c 0,57,58
 733 277 733 277 705.5 261 c 128,-1,59
 678 245 678 245 661 218 c 128,-1,60
 644 191 644 191 644 159 c 0,61,62
 644 118 644 118 672 90 c 128,-1,63
 700 62 700 62 742 62 c 0,50,51
EndSplineSet
EndChar

StartChar: ampersand
Encoding: 38 38 125
Width: 691
GlyphClass: 1
Flags: W
HStem: -12 78<136.268 311.159> 0 21G<492.116 619> 609 70<300.584 434.81>
VStem: 15 86<100.16 240.363> 182 88<447.566 578.389> 454 83<485.944 588.921>
LayerCount: 2
Fore
SplineSet
204 -12 m 0,0,1
 141 -12 141 -12 99 11.5 c 128,-1,2
 57 35 57 35 36 74.5 c 128,-1,3
 15 114 15 114 15 162 c 0,4,5
 15 215 15 215 43 260 c 128,-1,6
 71 305 71 305 118 338 c 128,-1,7
 165 371 165 371 222 389 c 1,8,9
 204 418 204 418 193 449.5 c 128,-1,10
 182 481 182 481 182 513 c 0,11,12
 182 564 182 564 206.5 601.5 c 128,-1,13
 231 639 231 639 274 659 c 128,-1,14
 317 679 317 679 371 679 c 0,15,16
 417 679 417 679 454.5 664.5 c 128,-1,17
 492 650 492 650 514.5 622 c 128,-1,18
 537 594 537 594 537 552 c 0,19,20
 537 502 537 502 510.5 466.5 c 128,-1,21
 484 431 484 431 441.5 406 c 128,-1,22
 399 381 399 381 351 362 c 1,23,-1
 456 222 l 1,24,25
 478 248 478 248 497.5 284 c 128,-1,26
 517 320 517 320 529 360 c 1,27,-1
 616 360 l 1,28,29
 600 307 600 307 569.5 254.5 c 128,-1,30
 539 202 539 202 503 157 c 1,31,-1
 619 0 l 1,32,-1
 507 0 l 1,33,-1
 443 86 l 1,34,35
 391 41 391 41 333.5 14.5 c 128,-1,36
 276 -12 276 -12 204 -12 c 0,0,1
312 416 m 1,37,38
 348 428 348 428 380.5 445.5 c 128,-1,39
 413 463 413 463 433.5 487 c 128,-1,40
 454 511 454 511 454 540 c 0,41,42
 454 567 454 567 435 588 c 128,-1,43
 416 609 416 609 373 609 c 0,44,45
 326 609 326 609 298 585 c 128,-1,46
 270 561 270 561 270 520 c 0,47,48
 270 496 270 496 279 474 c 128,-1,49
 288 452 288 452 298.5 437 c 128,-1,50
 309 422 309 422 312 416 c 1,37,38
212 66 m 0,51,52
 265 66 265 66 309.5 87 c 128,-1,53
 354 108 354 108 400 145 c 1,54,-1
 263 333 l 1,55,56
 193 311 193 311 147 269 c 128,-1,57
 101 227 101 227 101 165 c 0,58,59
 101 116 101 116 132 91 c 128,-1,60
 163 66 163 66 212 66 c 0,51,52
EndSplineSet
EndChar

StartChar: quotesingle
Encoding: 39 39 126
Width: 193
GlyphClass: 1
Flags: W
HStem: 447 221<109 161>
VStem: 109 52<447 557.5>
LayerCount: 2
Fore
SplineSet
109 447 m 1,0,-1
 95 668 l 1,1,-1
 175 668 l 1,2,-1
 161 447 l 1,3,-1
 109 447 l 1,0,-1
EndSplineSet
EndChar

StartChar: parenleft
Encoding: 40 40 127
Width: 301
GlyphClass: 1
Flags: W
HStem: -162 21G<77 170> 648 20G<202.5 337>
VStem: 29 80<-39.4957 293.251>
LayerCount: 2
Fore
SplineSet
93 -162 m 1,0,1
 61 -88 61 -88 45 -14.5 c 128,-1,2
 29 59 29 59 29 131 c 0,3,4
 29 274 29 274 88 409.5 c 128,-1,5
 147 545 147 545 258 668 c 1,6,-1
 337 668 l 1,7,8
 270 586 270 586 218.5 499 c 128,-1,9
 167 412 167 412 138 319 c 128,-1,10
 109 226 109 226 109 124 c 0,11,12
 109 57 109 57 124 -14.5 c 128,-1,13
 139 -86 139 -86 170 -162 c 1,14,-1
 93 -162 l 1,0,1
EndSplineSet
EndChar

StartChar: parenright
Encoding: 41 41 128
Width: 302
GlyphClass: 1
Flags: W
HStem: -162 21G<-53 83> 648 20G<115 224>
VStem: 176 80<215.547 545.094>
LayerCount: 2
Fore
SplineSet
-53 -162 m 1,0,1
 14 -80 14 -80 65.5 7 c 128,-1,2
 117 94 117 94 146.5 187.5 c 128,-1,3
 176 281 176 281 176 382 c 0,4,5
 176 450 176 450 161.5 521 c 128,-1,6
 147 592 147 592 115 668 c 1,7,-1
 192 668 l 1,8,9
 256 522 256 522 256 375 c 0,10,11
 256 233 256 233 197 97 c 128,-1,12
 138 -39 138 -39 28 -162 c 1,13,-1
 -53 -162 l 1,0,1
EndSplineSet
EndChar

StartChar: asterisk
Encoding: 42 42 129
Width: 439
GlyphClass: 1
Flags: W
HStem: 373 294
VStem: 106 289
LayerCount: 2
Fore
SplineSet
280 373 m 1,0,-1
 236 470 l 1,1,-1
 157 399 l 1,2,-1
 119 442 l 1,3,-1
 198 513 l 1,4,-1
 106 566 l 1,5,-1
 135 615 l 1,6,-1
 227 562 l 1,7,-1
 249 667 l 1,8,-1
 305 655 l 1,9,-1
 283 550 l 1,10,-1
 388 561 l 1,11,-1
 395 505 l 1,12,-1
 289 493 l 1,13,-1
 332 396 l 1,14,-1
 280 373 l 1,0,-1
EndSplineSet
EndChar

StartChar: plus
Encoding: 43 43 130
Width: 619
GlyphClass: 1
Flags: W
HStem: 0 21G<250 330> 208 80<42 250 330 538> 476 20G<250 330>
VStem: 250 80<0 208 288 496>
LayerCount: 2
Fore
SplineSet
250 0 m 1,0,-1
 250 208 l 1,1,-1
 42 208 l 1,2,-1
 42 288 l 1,3,-1
 250 288 l 1,4,-1
 250 496 l 1,5,-1
 330 496 l 1,6,-1
 330 288 l 1,7,-1
 538 288 l 1,8,-1
 538 208 l 1,9,-1
 330 208 l 1,10,-1
 330 0 l 1,11,-1
 250 0 l 1,0,-1
EndSplineSet
EndChar

StartChar: comma
Encoding: 44 44 131
Width: 209
GlyphClass: 1
Flags: W
HStem: -134 250
VStem: -11 129<3.05591 95.3738>
LayerCount: 2
Fore
SplineSet
-44 -134 m 1,0,-1
 32 -9 l 1,1,2
 -11 7 -11 7 -11 52 c 0,3,4
 -11 80 -11 80 8 98 c 128,-1,5
 27 116 27 116 52 116 c 0,6,7
 82 116 82 116 100 96 c 128,-1,8
 118 76 118 76 118 51 c 0,9,10
 118 39 118 39 114 29.5 c 128,-1,11
 110 20 110 20 102 7 c 2,12,-1
 17 -134 l 1,13,-1
 -44 -134 l 1,0,-1
EndSplineSet
EndChar

StartChar: hyphen
Encoding: 45 45 132
Width: 372
GlyphClass: 1
Flags: W
HStem: 208 81<49 323>
VStem: 31 310
LayerCount: 2
Fore
SplineSet
31 208 m 1,0,-1
 49 289 l 1,1,-1
 341 289 l 1,2,-1
 323 208 l 1,3,-1
 31 208 l 1,0,-1
EndSplineSet
EndChar

StartChar: period
Encoding: 46 46 133
Width: 208
GlyphClass: 1
Flags: W
HStem: -12 129<18.5955 108.404>
VStem: -1 129<7.59546 97.4043>
LayerCount: 2
Fore
SplineSet
63 -12 m 0,0,1
 37 -12 37 -12 18 7 c 128,-1,2
 -1 26 -1 26 -1 52 c 0,3,4
 -1 79 -1 79 18 98 c 128,-1,5
 37 117 37 117 63 117 c 0,6,7
 90 117 90 117 109 98 c 128,-1,8
 128 79 128 79 128 52 c 0,9,10
 128 26 128 26 109 7 c 128,-1,11
 90 -12 90 -12 63 -12 c 0,0,1
EndSplineSet
EndChar

StartChar: slash
Encoding: 47 47 134
Width: 371
GlyphClass: 1
Flags: W
HStem: 0 21G<-50 49.0359> 648 20G<339.964 439>
LayerCount: 2
Fore
SplineSet
-50 0 m 1,0,-1
 352 668 l 1,1,-1
 439 668 l 1,2,-1
 37 0 l 1,3,-1
 -50 0 l 1,0,-1
EndSplineSet
EndChar

StartChar: braceleft
Encoding: 123 123 135
Width: 322
GlyphClass: 1
Flags: W
HStem: -162 71<127.771 192> 220 67<37 74.5146> 596 72<266.865 353>
LayerCount: 2
Fore
SplineSet
149 -162 m 2,0,1
 67 -162 67 -162 46 -130 c 128,-1,2
 25 -98 25 -98 41 -25 c 2,3,-1
 73 125 l 2,4,5
 82 168 82 168 76 194 c 128,-1,6
 70 220 70 220 23 220 c 1,7,-1
 37 287 l 1,8,9
 84 287 84 287 101.5 313 c 128,-1,10
 119 339 119 339 128 382 c 2,11,-1
 163 545 l 2,12,13
 173 592 173 592 189.5 619 c 128,-1,14
 206 646 206 646 237.5 657 c 128,-1,15
 269 668 269 668 325 668 c 2,16,-1
 368 668 l 1,17,-1
 353 596 l 1,18,-1
 311 596 l 2,19,20
 278 596 278 596 266.5 583.5 c 128,-1,21
 255 571 255 571 247 533 c 2,22,-1
 214 380 l 2,23,24
 201 317 201 317 172.5 290.5 c 128,-1,25
 144 264 144 264 106 254 c 1,26,-1
 106 253 l 1,27,28
 141 243 141 243 157 216 c 128,-1,29
 173 189 173 189 160 127 c 2,30,-1
 128 -26 l 2,31,32
 119 -69 119 -69 127.5 -80 c 128,-1,33
 136 -91 136 -91 165 -91 c 2,34,-1
 207 -91 l 1,35,-1
 192 -162 l 1,36,-1
 149 -162 l 2,0,1
EndSplineSet
EndChar

StartChar: bar
Encoding: 124 124 136
Width: 289
GlyphClass: 1
Flags: W
HStem: -161 21G<96 177> 648 20G<96 177>
VStem: 96 81<-161 668>
LayerCount: 2
Fore
SplineSet
96 -161 m 1,0,-1
 96 668 l 1,1,-1
 177 668 l 1,2,-1
 177 -161 l 1,3,-1
 96 -161 l 1,0,-1
EndSplineSet
EndChar

StartChar: braceright
Encoding: 125 125 137
Width: 322
GlyphClass: 1
Flags: W
HStem: -163 72<-47 39.1354> 218 67<232.066 269> 596 71<114 178.714>
LayerCount: 2
Fore
SplineSet
-62 -163 m 1,0,-1
 -47 -91 l 1,1,-1
 -5 -91 l 2,2,3
 28 -91 28 -91 39.5 -78.5 c 128,-1,4
 51 -66 51 -66 59 -28 c 2,5,-1
 92 125 l 2,6,7
 106 188 106 188 134 214.5 c 128,-1,8
 162 241 162 241 200 251 c 1,9,-1
 200 252 l 1,10,11
 165 263 165 263 149 289.5 c 128,-1,12
 133 316 133 316 146 378 c 2,13,-1
 181 542 l 2,14,15
 188 575 188 575 179 585.5 c 128,-1,16
 170 596 170 596 141 596 c 2,17,-1
 99 596 l 1,18,-1
 114 667 l 1,19,-1
 157 667 l 2,20,21
 239 667 239 667 260 635.5 c 128,-1,22
 281 604 281 604 265 530 c 2,23,-1
 233 380 l 2,24,25
 224 337 224 337 230.5 311 c 128,-1,26
 237 285 237 285 283 285 c 1,27,-1
 269 218 l 1,28,29
 223 218 223 218 205 192 c 128,-1,30
 187 166 187 166 178 123 c 2,31,-1
 143 -40 l 2,32,33
 133 -87 133 -87 116.5 -114 c 128,-1,34
 100 -141 100 -141 68.5 -152 c 128,-1,35
 37 -163 37 -163 -19 -163 c 2,36,-1
 -62 -163 l 1,0,-1
EndSplineSet
EndChar

StartChar: asciitilde
Encoding: 126 126 138
Width: 539
GlyphClass: 1
Flags: W
HStem: 195 73<288.164 412.769> 249 74<117.517 246.562>
LayerCount: 2
Fore
SplineSet
364 195 m 0,0,1
 328 195 328 195 293.5 208.5 c 128,-1,2
 259 222 259 222 226.5 235.5 c 128,-1,3
 194 249 194 249 164 249 c 0,4,5
 139 249 139 249 122 236.5 c 128,-1,6
 105 224 105 224 100 199 c 1,7,-1
 25 221 l 1,8,9
 36 267 36 267 72 295 c 128,-1,10
 108 323 108 323 162 323 c 0,11,12
 204 323 204 323 239.5 309.5 c 128,-1,13
 275 296 275 296 306 282 c 128,-1,14
 337 268 337 268 363 268 c 0,15,16
 386 268 386 268 403.5 281 c 128,-1,17
 421 294 421 294 426 319 c 1,18,-1
 500 297 l 1,19,20
 489 251 489 251 453 223 c 128,-1,21
 417 195 417 195 364 195 c 0,0,1
EndSplineSet
EndChar

StartChar: exclamdown
Encoding: 161 161 139
Width: 283
GlyphClass: 1
Flags: W
HStem: -161 21G<0 95.2775> 390 129<131.596 221.405>
VStem: 112 129<409.596 499.405> 119 55<285.476 311>
LayerCount: 2
Fore
SplineSet
177 390 m 0,0,1
 150 390 150 390 131 409 c 128,-1,2
 112 428 112 428 112 455 c 0,3,4
 112 481 112 481 131 500 c 128,-1,5
 150 519 150 519 177 519 c 0,6,7
 203 519 203 519 222 500 c 128,-1,8
 241 481 241 481 241 455 c 0,9,10
 241 428 241 428 222 409 c 128,-1,11
 203 390 203 390 177 390 c 0,0,1
0 -161 m 1,12,-1
 37 12 l 1,13,-1
 119 311 l 1,14,-1
 174 311 l 1,15,-1
 128 12 l 1,16,-1
 91 -161 l 1,17,-1
 0 -161 l 1,12,-1
EndSplineSet
EndChar

StartChar: cent
Encoding: 162 162 140
Width: 492
GlyphClass: 1
Flags: W
HStem: -12 73<240 314.345> 427 74<332 365.978>
VStem: 25 91<108.893 312.497>
LayerCount: 2
Fore
SplineSet
157 -87 m 1,0,-1
 174 -8 l 1,1,2
 103 5 103 5 64 57.5 c 128,-1,3
 25 110 25 110 25 191 c 0,4,5
 25 205 25 205 26 219 c 128,-1,6
 27 233 27 233 29 247 c 0,7,8
 40 318 40 318 73.5 375 c 128,-1,9
 107 432 107 432 160.5 466 c 128,-1,10
 214 500 214 500 283 503 c 1,11,-1
 297 571 l 1,12,-1
 347 571 l 1,13,-1
 332 501 l 1,14,15
 436 486 436 486 480 392 c 1,16,-1
 397 364 l 1,17,18
 389 389 389 389 368 405.5 c 128,-1,19
 347 422 347 422 318 427 c 1,20,-1
 240 61 l 1,21,22
 280 62 280 62 310 79.5 c 128,-1,23
 340 97 340 97 362 127 c 1,24,-1
 433 98 l 1,25,26
 400 43 400 43 344.5 16 c 128,-1,27
 289 -11 289 -11 224 -12 c 1,28,-1
 208 -87 l 1,29,-1
 157 -87 l 1,0,-1
190 68 m 1,30,-1
 267 428 l 1,31,32
 222 421 222 421 191.5 393.5 c 128,-1,33
 161 366 161 366 144 327.5 c 128,-1,34
 127 289 127 289 120 248 c 0,35,36
 118 235 118 235 117 221.5 c 128,-1,37
 116 208 116 208 116 196 c 0,38,39
 116 150 116 150 133 116 c 128,-1,40
 150 82 150 82 190 68 c 1,30,-1
EndSplineSet
EndChar

StartChar: sterling
Encoding: 163 163 141
Width: 585
GlyphClass: 1
Flags: W
HStem: -12 78<278.391 475.428> 25 77<111.452 282.7> 317 51<86 172 276 457> 608 71<295.368 464.768>
VStem: 153 90<368.89 558.54> 192 90<188.794 316.514>
LayerCount: 2
Fore
SplineSet
35 -12 m 1,0,-1
 22 55 l 1,1,2
 39 61 39 61 67 77 c 128,-1,3
 95 93 95 93 124 118.5 c 128,-1,4
 153 144 153 144 172.5 180.5 c 128,-1,5
 192 217 192 217 192 264 c 0,6,7
 192 294 192 294 184 317 c 1,8,-1
 75 317 l 1,9,-1
 86 368 l 1,10,-1
 172 368 l 1,11,12
 164 396 164 396 158.5 424 c 128,-1,13
 153 452 153 452 153 483 c 0,14,15
 153 537 153 537 173 574.5 c 128,-1,16
 193 612 193 612 226.5 635 c 128,-1,17
 260 658 260 658 301.5 668.5 c 128,-1,18
 343 679 343 679 386 679 c 0,19,20
 466 679 466 679 520.5 646 c 128,-1,21
 575 613 575 613 591 549 c 1,22,-1
 508 526 l 1,23,24
 491 574 491 574 462.5 591 c 128,-1,25
 434 608 434 608 382 608 c 0,26,27
 351 608 351 608 318.5 597 c 128,-1,28
 286 586 286 586 264.5 558.5 c 128,-1,29
 243 531 243 531 243 480 c 0,30,31
 243 452 243 452 250 424.5 c 128,-1,32
 257 397 257 397 265 368 c 1,33,-1
 468 368 l 1,34,-1
 457 317 l 1,35,-1
 276 317 l 1,36,37
 279 309 279 309 280.5 297.5 c 128,-1,38
 282 286 282 286 282 273 c 0,39,40
 282 209 282 209 242.5 163.5 c 128,-1,41
 203 118 203 118 150 90 c 1,42,43
 168 97 168 97 183.5 99.5 c 128,-1,44
 199 102 199 102 212 102 c 0,45,46
 242 102 242 102 265 93 c 128,-1,47
 288 84 288 84 313 75 c 128,-1,48
 338 66 338 66 372 66 c 0,49,50
 395 66 395 66 423 71.5 c 128,-1,51
 451 77 451 77 487 91 c 1,52,-1
 497 18 l 1,53,54
 455 1 455 1 423.5 -5.5 c 128,-1,55
 392 -12 392 -12 366 -12 c 0,56,57
 329 -12 329 -12 300 -2.5 c 128,-1,58
 271 7 271 7 243 16 c 128,-1,59
 215 25 215 25 178 25 c 0,60,61
 150 25 150 25 116 17 c 128,-1,62
 82 9 82 9 35 -12 c 1,0,-1
EndSplineSet
EndChar

StartChar: currency
Encoding: 164 164 142
Width: 666
GlyphClass: 1
Flags: W
HStem: 103 75<263.848 414.65> 463 76<263.848 414.65>
VStem: 121 76<245.376 396.151> 481 76<245.566 396.151>
LayerCount: 2
Fore
SplineSet
138 84 m 1,0,-1
 102 119 l 1,1,-1
 168 185 l 1,2,3
 121 246 121 246 121 321 c 0,4,5
 121 357 121 357 133 392 c 128,-1,6
 145 427 145 427 168 456 c 1,7,-1
 102 522 l 1,8,-1
 138 558 l 1,9,-1
 204 492 l 1,10,11
 234 516 234 516 268.5 527.5 c 128,-1,12
 303 539 303 539 339 539 c 256,13,14
 375 539 375 539 410 527.5 c 128,-1,15
 445 516 445 516 474 492 c 1,16,-1
 540 558 l 1,17,-1
 576 522 l 1,18,-1
 510 456 l 1,19,20
 534 427 534 427 545.5 392 c 128,-1,21
 557 357 557 357 557 321 c 256,22,23
 557 285 557 285 545.5 250 c 128,-1,24
 534 215 534 215 510 185 c 1,25,-1
 576 119 l 1,26,-1
 540 84 l 1,27,-1
 474 149 l 1,28,29
 445 126 445 126 410 114.5 c 128,-1,30
 375 103 375 103 339 103 c 256,31,32
 303 103 303 103 268.5 114.5 c 128,-1,33
 234 126 234 126 204 149 c 1,34,-1
 138 84 l 1,0,-1
339 178 m 0,35,36
 379 178 379 178 411 197.5 c 128,-1,37
 443 217 443 217 462 249.5 c 128,-1,38
 481 282 481 282 481 321 c 256,39,40
 481 360 481 360 462 392 c 128,-1,41
 443 424 443 424 411 443.5 c 128,-1,42
 379 463 379 463 339 463 c 0,43,44
 300 463 300 463 267.5 443.5 c 128,-1,45
 235 424 235 424 216 392 c 128,-1,46
 197 360 197 360 197 321 c 256,47,48
 197 282 197 282 216 249.5 c 128,-1,49
 235 217 235 217 267.5 197.5 c 128,-1,50
 300 178 300 178 339 178 c 0,35,36
EndSplineSet
EndChar

StartChar: yen
Encoding: 165 165 143
Width: 598
GlyphClass: 1
Flags: W
HStem: 0 21G<178 279.186> 86 51<58 196 304 439> 223 51<87 218 352 468> 648 20G<90 192.195 538.484 668>
LayerCount: 2
Fore
SplineSet
178 0 m 1,0,-1
 196 86 l 1,1,-1
 47 86 l 1,2,-1
 58 137 l 1,3,-1
 207 137 l 1,4,-1
 225 223 l 1,5,-1
 76 223 l 1,6,-1
 87 274 l 1,7,-1
 218 274 l 1,8,-1
 90 668 l 1,9,-1
 186 668 l 1,10,-1
 291 329 l 1,11,-1
 554 668 l 1,12,-1
 668 668 l 1,13,-1
 352 274 l 1,14,-1
 479 274 l 1,15,-1
 468 223 l 1,16,-1
 322 223 l 1,17,-1
 304 137 l 1,18,-1
 450 137 l 1,19,-1
 439 86 l 1,20,-1
 293 86 l 1,21,-1
 275 0 l 1,22,-1
 178 0 l 1,0,-1
EndSplineSet
EndChar

StartChar: brokenbar
Encoding: 166 166 144
Width: 289
GlyphClass: 1
Flags: W
HStem: -161 21G<96 177> 648 20G<96 177>
VStem: 96 81<-161 149 358 668>
LayerCount: 2
Fore
SplineSet
96 358 m 1,0,-1
 96 668 l 1,1,-1
 177 668 l 1,2,-1
 177 358 l 1,3,-1
 96 358 l 1,0,-1
96 -161 m 1,4,-1
 96 149 l 1,5,-1
 177 149 l 1,6,-1
 177 -161 l 1,7,-1
 96 -161 l 1,4,-1
EndSplineSet
EndChar

StartChar: section
Encoding: 167 167 145
Width: 526
GlyphClass: 1
Flags: W
HStem: -174 72<73.0934 216.606> 612 68<291.165 437.797>
VStem: 39 86<225.47 329.674> 178 87<491.438 587.11> 251 89<-70.4772 36.4153> 397 90<188.513 293.982>
LayerCount: 2
Fore
SplineSet
135 -174 m 0,0,1
 65 -174 65 -174 17.5 -142 c 128,-1,2
 -30 -110 -30 -110 -43 -55 c 1,3,-1
 43 -32 l 1,4,5
 48 -69 48 -69 76.5 -85.5 c 128,-1,6
 105 -102 105 -102 140 -102 c 0,7,8
 183 -102 183 -102 217 -80 c 128,-1,9
 251 -58 251 -58 251 -18 c 0,10,11
 251 17 251 17 222 44 c 128,-1,12
 193 71 193 71 152 102 c 0,13,14
 121 126 121 126 95.5 148 c 128,-1,15
 70 170 70 170 54.5 195.5 c 128,-1,16
 39 221 39 221 39 256 c 0,17,18
 39 305 39 305 62.5 341.5 c 128,-1,19
 86 378 86 378 125.5 401.5 c 128,-1,20
 165 425 165 425 213 435 c 1,21,22
 196 452 196 452 187 474.5 c 128,-1,23
 178 497 178 497 178 522 c 0,24,25
 178 560 178 560 199 596 c 128,-1,26
 220 632 220 632 261.5 656 c 128,-1,27
 303 680 303 680 366 680 c 0,28,29
 402 680 402 680 437.5 670 c 128,-1,30
 473 660 473 660 500 639 c 128,-1,31
 527 618 527 618 537 584 c 1,32,-1
 454 561 l 1,33,34
 450 587 450 587 424 599.5 c 128,-1,35
 398 612 398 612 367 612 c 0,36,37
 329 612 329 612 297 594 c 128,-1,38
 265 576 265 576 265 539 c 0,39,40
 265 517 265 517 280 499 c 128,-1,41
 295 481 295 481 319 463.5 c 128,-1,42
 343 446 343 446 371 422 c 0,43,44
 401 398 401 398 427.5 377 c 128,-1,45
 454 356 454 356 470.5 331.5 c 128,-1,46
 487 307 487 307 487 272 c 0,47,48
 487 221 487 221 463.5 184 c 128,-1,49
 440 147 440 147 400.5 122.5 c 128,-1,50
 361 98 361 98 313 82 c 1,51,52
 340 49 340 49 340 2 c 0,53,54
 340 -39 340 -39 317 -79.5 c 128,-1,55
 294 -120 294 -120 248.5 -147 c 128,-1,56
 203 -174 203 -174 135 -174 c 0,0,1
266 129 m 1,57,58
 331 149 331 149 364 177.5 c 128,-1,59
 397 206 397 206 397 239 c 0,60,61
 397 281 397 281 346 323 c 0,62,63
 335 333 335 333 317.5 346.5 c 128,-1,64
 300 360 300 360 284 372.5 c 128,-1,65
 268 385 268 385 260 391 c 1,66,67
 224 384 224 384 193 366.5 c 128,-1,68
 162 349 162 349 143.5 326 c 128,-1,69
 125 303 125 303 125 277 c 0,70,71
 125 260 125 260 134.5 242.5 c 128,-1,72
 144 225 144 225 166 208 c 0,73,74
 176 201 176 201 192.5 187.5 c 128,-1,75
 209 174 209 174 226 161 c 128,-1,76
 243 148 243 148 254.5 138.5 c 128,-1,77
 266 129 266 129 266 129 c 1,57,58
EndSplineSet
EndChar

StartChar: dieresis
Encoding: 168 168 146
Width: 427
GlyphClass: 1
Flags: W
HStem: 590 107<145.501 221.014 356.986 432.014>
VStem: 129 108<606.501 681.014> 341 107<606.501 681.014>
LayerCount: 2
Fore
SplineSet
183 590 m 0,0,1
 161 590 161 590 145 606 c 128,-1,2
 129 622 129 622 129 644 c 256,3,4
 129 666 129 666 145 681.5 c 128,-1,5
 161 697 161 697 183 697 c 0,6,7
 206 697 206 697 221.5 681.5 c 128,-1,8
 237 666 237 666 237 644 c 256,9,10
 237 622 237 622 221.5 606 c 128,-1,11
 206 590 206 590 183 590 c 0,0,1
394 590 m 0,12,13
 372 590 372 590 356.5 606 c 128,-1,14
 341 622 341 622 341 644 c 256,15,16
 341 666 341 666 356.5 681.5 c 128,-1,17
 372 697 372 697 394 697 c 0,18,19
 417 697 417 697 432.5 681.5 c 128,-1,20
 448 666 448 666 448 644 c 256,21,22
 448 622 448 622 432.5 606 c 128,-1,23
 417 590 417 590 394 590 c 0,12,13
EndSplineSet
EndChar

StartChar: copyright
Encoding: 169 169 147
Width: 814
GlyphClass: 1
Flags: W
HStem: -12 62<306.396 525.604> 150 59<358.342 483.343> 473 58<357.515 477.298> 618 62<306.396 525.604>
VStem: 70 62<224.396 443.604> 244 76<249.579 432.726> 700 62<224.396 443.604>
LayerCount: 2
Fore
SplineSet
416 -12 m 256,0,1
 344 -12 344 -12 281.5 15 c 128,-1,2
 219 42 219 42 171.5 89.5 c 128,-1,3
 124 137 124 137 97 199.5 c 128,-1,4
 70 262 70 262 70 334 c 256,5,6
 70 406 70 406 97 468.5 c 128,-1,7
 124 531 124 531 171.5 578.5 c 128,-1,8
 219 626 219 626 281.5 653 c 128,-1,9
 344 680 344 680 416 680 c 256,10,11
 488 680 488 680 550.5 653 c 128,-1,12
 613 626 613 626 660.5 578.5 c 128,-1,13
 708 531 708 531 735 468.5 c 128,-1,14
 762 406 762 406 762 334 c 256,15,16
 762 262 762 262 735 199.5 c 128,-1,17
 708 137 708 137 660.5 89.5 c 128,-1,18
 613 42 613 42 550.5 15 c 128,-1,19
 488 -12 488 -12 416 -12 c 256,0,1
416 50 m 256,20,21
 475 50 475 50 526.5 72 c 128,-1,22
 578 94 578 94 617 133 c 128,-1,23
 656 172 656 172 678 223.5 c 128,-1,24
 700 275 700 275 700 334 c 256,25,26
 700 393 700 393 678 444.5 c 128,-1,27
 656 496 656 496 617 535 c 128,-1,28
 578 574 578 574 526.5 596 c 128,-1,29
 475 618 475 618 416 618 c 256,30,31
 357 618 357 618 305.5 596 c 128,-1,32
 254 574 254 574 215 535 c 128,-1,33
 176 496 176 496 154 444.5 c 128,-1,34
 132 393 132 393 132 334 c 256,35,36
 132 275 132 275 154 223.5 c 128,-1,37
 176 172 176 172 215 133 c 128,-1,38
 254 94 254 94 305.5 72 c 128,-1,39
 357 50 357 50 416 50 c 256,20,21
418 150 m 0,40,41
 334 150 334 150 289 201.5 c 128,-1,42
 244 253 244 253 244 342 c 256,43,44
 244 431 244 431 291.5 481 c 128,-1,45
 339 531 339 531 420 531 c 0,46,47
 474 531 474 531 510 508 c 128,-1,48
 546 485 546 485 565 449 c 1,49,-1
 498 424 l 1,50,51
 472 473 472 473 418 473 c 0,52,53
 375 473 375 473 347.5 441 c 128,-1,54
 320 409 320 409 320 342 c 256,55,56
 320 275 320 275 347.5 242 c 128,-1,57
 375 209 375 209 418 209 c 0,58,59
 443 209 443 209 465.5 219 c 128,-1,60
 488 229 488 229 501 254 c 1,61,-1
 567 230 l 1,62,63
 548 196 548 196 511 173 c 128,-1,64
 474 150 474 150 418 150 c 0,40,41
EndSplineSet
EndChar

StartChar: questiondown
Encoding: 191 191 148
Width: 527
GlyphClass: 1
Flags: W
HStem: -175 70<108.486 274.191> 388 129<277.565 367.404>
VStem: -14 91<-75.2627 33.682> 255 85<239.398 316> 259 128<407.595 497.404>
LayerCount: 2
Fore
SplineSet
322 388 m 256,0,1
 295 388 295 388 277 407 c 128,-1,2
 259 426 259 426 259 452 c 0,3,4
 259 479 259 479 277 498 c 128,-1,5
 295 517 295 517 322 517 c 256,6,7
 349 517 349 517 368 498 c 128,-1,8
 387 479 387 479 387 452 c 0,9,10
 387 426 387 426 368 407 c 128,-1,11
 349 388 349 388 322 388 c 256,0,1
340 316 m 1,12,13
 339 307 339 307 336.5 296.5 c 128,-1,14
 334 286 334 286 332 277 c 0,15,16
 320 221 320 221 296 185.5 c 128,-1,17
 272 150 272 150 239.5 126.5 c 128,-1,18
 207 103 207 103 168 83 c 0,19,20
 133 65 133 65 105 40 c 128,-1,21
 77 15 77 15 77 -23 c 256,22,23
 77 -61 77 -61 107.5 -83 c 128,-1,24
 138 -105 138 -105 181 -105 c 0,25,26
 307 -105 307 -105 344 4 c 1,27,-1
 421 -20 l 1,28,29
 393 -99 393 -99 328 -137 c 128,-1,30
 263 -175 263 -175 178 -175 c 0,31,32
 135 -175 135 -175 90.5 -161 c 128,-1,33
 46 -147 46 -147 16 -115 c 128,-1,34
 -14 -83 -14 -83 -14 -29 c 0,35,36
 -14 17 -14 17 6.5 50 c 128,-1,37
 27 83 27 83 61.5 108 c 128,-1,38
 96 133 96 133 138 153 c 0,39,40
 177 172 177 172 198 191.5 c 128,-1,41
 219 211 219 211 230 233 c 128,-1,42
 241 255 241 255 248 280 c 0,43,44
 253 298 253 298 255 316 c 1,45,-1
 340 316 l 1,12,13
EndSplineSet
EndChar

StartChar: germandbls
Encoding: 223 223 149
Width: 605
GlyphClass: 1
Flags: W
HStem: -13 77<239 380.441> 0 21G<14 104.248> 329 77<305 404.719> 610 70<275.724 452.481>
VStem: 454 94<132.145 286.215> 483 87<460.504 580.301>
LayerCount: 2
Fore
SplineSet
266 -13 m 0,0,1
 259 -13 259 -13 252.5 -13 c 128,-1,2
 246 -13 246 -13 239 -12 c 1,3,-1
 233 67 l 1,4,5
 257 64 257 64 280 64 c 0,6,7
 329 64 329 64 368.5 80 c 128,-1,8
 408 96 408 96 431 130 c 128,-1,9
 454 164 454 164 454 218 c 0,10,11
 454 276 454 276 415 301.5 c 128,-1,12
 376 327 376 327 303 329 c 2,13,-1
 289 329 l 1,14,-1
 305 406 l 1,15,-1
 320 406 l 2,16,17
 392 409 392 409 437.5 439.5 c 128,-1,18
 483 470 483 470 483 522 c 0,19,20
 483 563 483 563 455 586.5 c 128,-1,21
 427 610 427 610 374 610 c 0,22,23
 297 610 297 610 255.5 574 c 128,-1,24
 214 538 214 538 196 452 c 2,25,-1
 100 0 l 1,26,-1
 14 0 l 1,27,-1
 110 452 l 2,28,29
 118 488 118 488 131.5 527.5 c 128,-1,30
 145 567 145 567 172.5 601.5 c 128,-1,31
 200 636 200 636 249.5 658 c 128,-1,32
 299 680 299 680 378 680 c 0,33,34
 430 680 430 680 473.5 664.5 c 128,-1,35
 517 649 517 649 543.5 617 c 128,-1,36
 570 585 570 585 570 534 c 0,37,38
 570 498 570 498 555.5 464.5 c 128,-1,39
 541 431 541 431 512 406 c 128,-1,40
 483 381 483 381 439 372 c 1,41,42
 498 350 498 350 525 311 c 128,-1,43
 552 272 552 272 548 197 c 0,44,45
 544 123 544 123 503 76 c 128,-1,46
 462 29 462 29 399 8 c 128,-1,47
 336 -13 336 -13 266 -13 c 0,0,1
EndSplineSet
EndChar

StartChar: AE
Encoding: 198 198 150
Width: 987
GlyphClass: 1
Flags: W
HStem: 0 81<549 891> 145 81<267 466> 303 80<613 862> 586 81<656 1015>
LayerCount: 2
Fore
SplineSet
-52 0 m 1,0,-1
 577 667 l 1,1,-1
 1032 667 l 1,2,-1
 1015 586 l 1,3,-1
 656 586 l 1,4,-1
 613 383 l 1,5,-1
 879 383 l 1,6,-1
 862 303 l 1,7,-1
 596 303 l 1,8,-1
 549 81 l 1,9,-1
 908 81 l 1,10,-1
 891 0 l 1,11,-1
 435 0 l 1,12,-1
 466 145 l 1,13,-1
 194 145 l 1,14,-1
 60 0 l 1,15,-1
 -52 0 l 1,0,-1
267 226 m 1,16,-1
 483 226 l 1,17,-1
 548 529 l 1,18,-1
 267 226 l 1,16,-1
EndSplineSet
EndChar

StartChar: florin
Encoding: 279 402 151
Width: 330
GlyphClass: 1
Flags: W
HStem: -165 75<-57.4933 -22.2191> 428 68<69 138 237 325> 635 71<281.111 368>
LayerCount: 2
Fore
SplineSet
-6 -173 m 0,0,1
 -21 -173 -21 -173 -37 -171 c 128,-1,2
 -53 -169 -53 -169 -72 -165 c 1,3,-1
 -56 -90 l 1,4,5
 -46 -92 -46 -92 -37.5 -93.5 c 128,-1,6
 -29 -95 -29 -95 -22 -95 c 0,7,8
 4 -95 4 -95 19 -78.5 c 128,-1,9
 34 -62 34 -62 42 -24 c 2,10,-1
 138 428 l 1,11,-1
 54 428 l 1,12,-1
 69 496 l 1,13,-1
 153 496 l 1,14,-1
 165 555 l 2,15,16
 178 616 178 616 194.5 648.5 c 128,-1,17
 211 681 211 681 243.5 693.5 c 128,-1,18
 276 706 276 706 335 706 c 2,19,-1
 384 706 l 1,20,-1
 368 635 l 1,21,-1
 328 635 l 2,22,23
 300 635 300 635 280.5 621.5 c 128,-1,24
 261 608 261 608 253 570 c 2,25,-1
 237 496 l 1,26,-1
 339 496 l 1,27,-1
 325 428 l 1,28,-1
 224 428 l 1,29,-1
 125 -38 l 2,30,31
 111 -107 111 -107 81.5 -140 c 128,-1,32
 52 -173 52 -173 -6 -173 c 0,0,1
EndSplineSet
EndChar

StartChar: integral
Encoding: 280 8747 152
Width: 306
GlyphClass: 1
Flags: W
HStem: -173 112<-3.18579 55.076> 569 112<235.439 294.186>
VStem: -30 99<-126.225 -76.9855> 103 84<-99.4657 604.323> 221 100<584.985 634.225>
LayerCount: 2
Fore
SplineSet
55 -173 m 0,0,1
 22 -173 22 -173 -4 -159.5 c 128,-1,2
 -30 -146 -30 -146 -30 -111 c 0,3,4
 -30 -91 -30 -91 -15.5 -76 c 128,-1,5
 -1 -61 -1 -61 20 -61 c 0,6,7
 42 -61 42 -61 55.5 -76.5 c 128,-1,8
 69 -92 69 -92 69 -112 c 0,9,10
 69 -116 69 -116 69 -119.5 c 128,-1,11
 69 -123 69 -123 67 -127 c 1,12,13
 67 -127 67 -127 72.5 -126 c 128,-1,14
 78 -125 78 -125 85.5 -117 c 128,-1,15
 93 -109 93 -109 98.5 -89 c 128,-1,16
 104 -69 104 -69 104 -31 c 0,17,18
 104 93 104 93 103.5 216.5 c 128,-1,19
 103 340 103 340 103 464 c 0,20,21
 103 533 103 533 115 576 c 128,-1,22
 127 619 127 619 147 642 c 128,-1,23
 167 665 167 665 190.5 673 c 128,-1,24
 214 681 214 681 236 681 c 0,25,26
 269 681 269 681 295 667.5 c 128,-1,27
 321 654 321 654 321 619 c 0,28,29
 321 598 321 598 306.5 583.5 c 128,-1,30
 292 569 292 569 271 569 c 0,31,32
 249 569 249 569 235 584.5 c 128,-1,33
 221 600 221 600 221 619 c 0,34,35
 221 628 221 628 224 635 c 1,36,37
 224 635 224 635 218.5 634 c 128,-1,38
 213 633 213 633 205.5 625 c 128,-1,39
 198 617 198 617 192.5 596.5 c 128,-1,40
 187 576 187 576 187 538 c 0,41,42
 187 414 187 414 187.5 291 c 128,-1,43
 188 168 188 168 188 44 c 0,44,45
 188 -26 188 -26 176 -69 c 128,-1,46
 164 -112 164 -112 144 -134.5 c 128,-1,47
 124 -157 124 -157 101 -165 c 128,-1,48
 78 -173 78 -173 55 -173 c 0,0,1
EndSplineSet
EndChar

StartChar: approxequal
Encoding: 281 8776 153
Width: 605
GlyphClass: 1
Flags: W
HStem: 97 73<320.164 444.769> 151 74<149.517 278.562> 283 73<322.109 440.109> 337 74<149.433 279.012>
LayerCount: 2
Fore
SplineSet
396 283 m 0,0,1
 360 283 360 283 325.5 296.5 c 128,-1,2
 291 310 291 310 258.5 323.5 c 128,-1,3
 226 337 226 337 196 337 c 0,4,5
 171 337 171 337 154 324.5 c 128,-1,6
 137 312 137 312 132 287 c 1,7,-1
 57 309 l 1,8,9
 69 355 69 355 105 383 c 128,-1,10
 141 411 141 411 196 411 c 0,11,12
 238 411 238 411 273.5 397.5 c 128,-1,13
 309 384 309 384 339.5 370 c 128,-1,14
 370 356 370 356 396 356 c 0,15,16
 419 356 419 356 436 369 c 128,-1,17
 453 382 453 382 458 407 c 1,18,-1
 532 385 l 1,19,20
 521 339 521 339 485 311 c 128,-1,21
 449 283 449 283 396 283 c 0,0,1
396 97 m 0,22,23
 360 97 360 97 325.5 110.5 c 128,-1,24
 291 124 291 124 258.5 137.5 c 128,-1,25
 226 151 226 151 196 151 c 0,26,27
 171 151 171 151 154 138.5 c 128,-1,28
 137 126 137 126 132 101 c 1,29,-1
 57 123 l 1,30,31
 68 169 68 169 104 197 c 128,-1,32
 140 225 140 225 194 225 c 0,33,34
 236 225 236 225 271.5 211.5 c 128,-1,35
 307 198 307 198 338 184 c 128,-1,36
 369 170 369 170 395 170 c 0,37,38
 418 170 418 170 435.5 183 c 128,-1,39
 453 196 453 196 458 221 c 1,40,-1
 532 199 l 1,41,42
 521 153 521 153 485 125 c 128,-1,43
 449 97 449 97 396 97 c 0,22,23
EndSplineSet
EndChar

StartChar: notequal
Encoding: 282 8800 154
Width: 658
GlyphClass: 1
Flags: W
HStem: 0 21G<97 211.05> 121 79<73 182 337 569> 307 80<73 312 468 569> 476 20G<430.872 544>
LayerCount: 2
Fore
SplineSet
97 0 m 1,0,-1
 182 121 l 1,1,-1
 73 121 l 1,2,-1
 73 200 l 1,3,-1
 238 200 l 1,4,-1
 312 307 l 1,5,-1
 73 307 l 1,6,-1
 73 387 l 1,7,-1
 368 387 l 1,8,-1
 445 496 l 1,9,-1
 544 496 l 1,10,-1
 468 387 l 1,11,-1
 569 387 l 1,12,-1
 569 307 l 1,13,-1
 412 307 l 1,14,-1
 337 200 l 1,15,-1
 569 200 l 1,16,-1
 569 121 l 1,17,-1
 282 121 l 1,18,-1
 197 0 l 1,19,-1
 97 0 l 1,0,-1
EndSplineSet
EndChar

StartChar: lessequal
Encoding: 283 8804 155
Width: 651
GlyphClass: 1
Flags: W
HStem: 0 80<63 536> 485 20G<479.69 536>
LayerCount: 2
Fore
SplineSet
536 100 m 1,0,-1
 63 267 l 1,1,-1
 63 337 l 1,2,-1
 536 505 l 1,3,-1
 536 414 l 1,4,-1
 168 302 l 1,5,-1
 536 190 l 1,6,-1
 536 100 l 1,0,-1
63 0 m 1,7,-1
 63 80 l 1,8,-1
 536 80 l 1,9,-1
 536 0 l 1,10,-1
 63 0 l 1,7,-1
EndSplineSet
EndChar

StartChar: greaterequal
Encoding: 284 8805 156
Width: 686
GlyphClass: 1
Flags: W
HStem: 0 80<98 571> 485 20G<98 154.31>
LayerCount: 2
Fore
SplineSet
98 100 m 1,0,-1
 98 190 l 1,1,-1
 466 302 l 1,2,-1
 98 414 l 1,3,-1
 98 505 l 1,4,-1
 571 337 l 1,5,-1
 571 267 l 1,6,-1
 98 100 l 1,0,-1
98 0 m 1,7,-1
 98 80 l 1,8,-1
 571 80 l 1,9,-1
 571 0 l 1,10,-1
 98 0 l 1,7,-1
EndSplineSet
EndChar

StartChar: lozenge
Encoding: 285 9674 157
Width: 561
GlyphClass: 1
Flags: W
LayerCount: 2
Fore
SplineSet
286 -73 m 1,0,-1
 58 315 l 1,1,-1
 286 703 l 1,2,-1
 513 315 l 1,3,-1
 286 -73 l 1,0,-1
286 76 m 1,4,-1
 426 315 l 1,5,-1
 286 554 l 1,6,-1
 145 315 l 1,7,-1
 286 76 l 1,4,-1
EndSplineSet
EndChar

StartChar: summation
Encoding: 286 8721 158
Width: 763
GlyphClass: 1
Flags: W
HStem: -161 81<224 604> 587 81<224 604>
LayerCount: 2
Fore
SplineSet
123 -161 m 1,0,-1
 123 -80 l 1,1,-1
 369 254 l 1,2,-1
 123 587 l 1,3,-1
 123 668 l 1,4,-1
 604 668 l 1,5,-1
 604 587 l 1,6,-1
 224 587 l 1,7,-1
 469 254 l 1,8,-1
 224 -80 l 1,9,-1
 604 -80 l 1,10,-1
 604 -161 l 1,11,-1
 123 -161 l 1,0,-1
EndSplineSet
EndChar

StartChar: minus
Encoding: 287 8722 159
Width: 619
GlyphClass: 1
Flags: W
HStem: 209 79<42 538>
LayerCount: 2
Fore
SplineSet
42 209 m 1,0,-1
 42 288 l 1,1,-1
 538 288 l 1,2,-1
 538 209 l 1,3,-1
 42 209 l 1,0,-1
EndSplineSet
EndChar

StartChar: uni2215
Encoding: 288 8725 160
Width: 444
GlyphClass: 1
Flags: W
HStem: 0 21G<-47 55.012> 648 20G<406.988 509>
LayerCount: 2
Fore
SplineSet
-47 0 m 1,0,-1
 421 668 l 1,1,-1
 509 668 l 1,2,-1
 41 0 l 1,3,-1
 -47 0 l 1,0,-1
EndSplineSet
EndChar

StartChar: uni2219
Encoding: 289 8729 161
Width: 237
GlyphClass: 1
Flags: W
HStem: 191 129<65.5957 158.301>
VStem: 46 129<211.626 300.404>
LayerCount: 2
Fore
SplineSet
111 191 m 0,0,1
 81 191 81 191 63.5 211 c 128,-1,2
 46 231 46 231 46 255 c 0,3,4
 46 282 46 282 65 301 c 128,-1,5
 84 320 84 320 111 320 c 0,6,7
 137 320 137 320 156 301 c 128,-1,8
 175 282 175 282 175 256 c 256,9,10
 175 230 175 230 156 210.5 c 128,-1,11
 137 191 137 191 111 191 c 0,0,1
EndSplineSet
EndChar

StartChar: radical
Encoding: 290 8730 162
Width: 513
GlyphClass: 1
Flags: W
HStem: -161 21G<257.157 367.639> 145 80<39 145> 649 20G<423.516 515>
LayerCount: 2
Fore
SplineSet
265 -161 m 1,0,-1
 145 145 l 1,1,-1
 39 145 l 1,2,-1
 39 225 l 1,3,-1
 201 225 l 1,4,-1
 304 -37 l 1,5,-1
 427 669 l 1,6,-1
 515 669 l 1,7,-1
 364 -161 l 1,8,-1
 265 -161 l 1,0,-1
EndSplineSet
EndChar

StartChar: infinity
Encoding: 291 8734 163
Width: 780
GlyphClass: 1
Flags: W
HStem: 104 76<154.962 279.738 486.322 610.038> 330 76<154.478 281.527 484.79 610.522>
VStem: 49 81<205.117 307.142> 635 81<205.117 307.142>
LayerCount: 2
Fore
SplineSet
209 104 m 0,0,1
 138 104 138 104 93.5 146.5 c 128,-1,2
 49 189 49 189 49 256 c 0,3,4
 49 321 49 321 95 363.5 c 128,-1,5
 141 406 141 406 215 406 c 0,6,7
 269 406 269 406 310 379 c 128,-1,8
 351 352 351 352 383 317 c 1,9,10
 415 352 415 352 455.5 379 c 128,-1,11
 496 406 496 406 550 406 c 0,12,13
 624 406 624 406 670 363.5 c 128,-1,14
 716 321 716 321 716 256 c 0,15,16
 716 189 716 189 671.5 146.5 c 128,-1,17
 627 104 627 104 556 104 c 0,18,19
 501 104 501 104 459 132.5 c 128,-1,20
 417 161 417 161 383 198 c 1,21,22
 349 161 349 161 307 132.5 c 128,-1,23
 265 104 265 104 209 104 c 0,0,1
213 180 m 0,24,25
 245 180 245 180 273 197 c 128,-1,26
 301 214 301 214 335 256 c 1,27,28
 308 288 308 288 280.5 309 c 128,-1,29
 253 330 253 330 216 330 c 256,30,31
 179 330 179 330 154.5 310 c 128,-1,32
 130 290 130 290 130 256 c 0,33,34
 130 225 130 225 153.5 202.5 c 128,-1,35
 177 180 177 180 213 180 c 0,24,25
552 180 m 0,36,37
 588 180 588 180 611.5 202.5 c 128,-1,38
 635 225 635 225 635 256 c 0,39,40
 635 290 635 290 610.5 310 c 128,-1,41
 586 330 586 330 549 330 c 0,42,43
 513 330 513 330 485.5 309 c 128,-1,44
 458 288 458 288 431 256 c 1,45,46
 466 214 466 214 493 197 c 128,-1,47
 520 180 520 180 552 180 c 0,36,37
EndSplineSet
EndChar

StartChar: uni03A9
Encoding: 292 937 164
Width: 773
GlyphClass: 1
Flags: W
HStem: 0 81<75 226 511 662> 606 74<274.013 463.497>
VStem: 75 73<290.038 480.497> 226 85<81 142.595> 426 85<81 142.595> 589 73<290.038 480.497>
LayerCount: 2
Fore
SplineSet
75 0 m 1,0,-1
 75 81 l 1,1,-1
 226 81 l 1,2,-1
 226 130 l 1,3,4
 159 168 159 168 117 235.5 c 128,-1,5
 75 303 75 303 75 385 c 0,6,7
 75 446 75 446 97.5 499.5 c 128,-1,8
 120 553 120 553 160.5 593.5 c 128,-1,9
 201 634 201 634 254 657 c 128,-1,10
 307 680 307 680 368 680 c 256,11,12
 429 680 429 680 482.5 657 c 128,-1,13
 536 634 536 634 576 593.5 c 128,-1,14
 616 553 616 553 639 499.5 c 128,-1,15
 662 446 662 446 662 385 c 0,16,17
 662 303 662 303 620.5 235.5 c 128,-1,18
 579 168 579 168 511 130 c 1,19,-1
 511 81 l 1,20,-1
 662 81 l 1,21,-1
 662 0 l 1,22,-1
 426 0 l 1,23,-1
 426 173 l 1,24,25
 473 186 473 186 510 216.5 c 128,-1,26
 547 247 547 247 568 291 c 128,-1,27
 589 335 589 335 589 385 c 0,28,29
 589 446 589 446 559 496 c 128,-1,30
 529 546 529 546 479 576 c 128,-1,31
 429 606 429 606 368 606 c 0,32,33
 308 606 308 606 258 576 c 128,-1,34
 208 546 208 546 178 496 c 128,-1,35
 148 446 148 446 148 385 c 0,36,37
 148 335 148 335 169 291 c 128,-1,38
 190 247 190 247 227 216.5 c 128,-1,39
 264 186 264 186 311 173 c 1,40,-1
 311 0 l 1,41,-1
 75 0 l 1,0,-1
EndSplineSet
EndChar

StartChar: estimated
Encoding: 293 8494 165
Width: 628
GlyphClass: 1
Flags: W
HStem: -12 32<224.41 390.612> 248 31<156 460> 472 32<223.784 392.042>
VStem: 50 106<142.671 248 279 350.826> 460 106<279 351.003>
LayerCount: 2
Fore
SplineSet
308 -12 m 0,0,1
 262 -12 262 -12 216.5 5 c 128,-1,2
 171 22 171 22 133.5 55.5 c 128,-1,3
 96 89 96 89 73 139.5 c 128,-1,4
 50 190 50 190 50 256 c 0,5,6
 50 300 50 300 68.5 344 c 128,-1,7
 87 388 87 388 121 424 c 128,-1,8
 155 460 155 460 202.5 482 c 128,-1,9
 250 504 250 504 308 504 c 0,10,11
 379 504 379 504 437.5 469.5 c 128,-1,12
 496 435 496 435 531 377 c 128,-1,13
 566 319 566 319 566 248 c 1,14,-1
 156 248 l 1,15,-1
 156 78 l 1,16,17
 186 51 186 51 225 35.5 c 128,-1,18
 264 20 264 20 308 20 c 0,19,20
 359 20 359 20 403 41 c 128,-1,21
 447 62 447 62 478 97 c 1,22,-1
 511 87 l 1,23,24
 476 42 476 42 423 15 c 128,-1,25
 370 -12 370 -12 308 -12 c 0,0,1
156 279 m 1,26,-1
 460 279 l 1,27,-1
 460 413 l 1,28,29
 430 441 430 441 391 456.5 c 128,-1,30
 352 472 352 472 308 472 c 256,31,32
 264 472 264 472 225 456.5 c 128,-1,33
 186 441 186 441 156 413 c 1,34,-1
 156 279 l 1,26,-1
EndSplineSet
EndChar

StartChar: partialdiff
Encoding: 294 8706 166
Width: 595
GlyphClass: 1
Flags: W
HStem: -12 73<215.65 362.572> 430 74<215.65 362.119> 598 82<140 309.051>
VStem: 51 89<142.409 348.851> 437 91<141.651 349.711>
LayerCount: 2
Fore
SplineSet
289 -12 m 0,0,1
 246 -12 246 -12 203.5 3 c 128,-1,2
 161 18 161 18 126.5 49.5 c 128,-1,3
 92 81 92 81 71.5 130 c 128,-1,4
 51 179 51 179 51 246 c 0,5,6
 51 314 51 314 71.5 362.5 c 128,-1,7
 92 411 92 411 126.5 442.5 c 128,-1,8
 161 474 161 474 203.5 489 c 128,-1,9
 246 504 246 504 289 504 c 0,10,11
 320 504 320 504 358.5 492 c 128,-1,12
 397 480 397 480 421 450 c 1,13,14
 401 514 401 514 360 546.5 c 128,-1,15
 319 579 319 579 263 589.5 c 128,-1,16
 207 600 207 600 140 598 c 1,17,-1
 140 680 l 1,18,19
 170 680 170 680 210 678 c 128,-1,20
 250 676 250 676 294 665.5 c 128,-1,21
 338 655 338 655 379.5 630.5 c 128,-1,22
 421 606 421 606 454.5 562 c 128,-1,23
 488 518 488 518 508 448.5 c 128,-1,24
 528 379 528 379 528 277 c 0,25,26
 528 200 528 200 504.5 134 c 128,-1,27
 481 68 481 68 428.5 28 c 128,-1,28
 376 -12 376 -12 289 -12 c 0,0,1
289 61 m 256,29,30
 325 61 325 61 359 80.5 c 128,-1,31
 393 100 393 100 415 141 c 128,-1,32
 437 182 437 182 437 246 c 256,33,34
 437 310 437 310 415 350.5 c 128,-1,35
 393 391 393 391 359 410.5 c 128,-1,36
 325 430 325 430 289 430 c 256,37,38
 253 430 253 430 219 410.5 c 128,-1,39
 185 391 185 391 162.5 350.5 c 128,-1,40
 140 310 140 310 140 246 c 256,41,42
 140 182 140 182 162.5 141 c 128,-1,43
 185 100 185 100 219 80.5 c 128,-1,44
 253 61 253 61 289 61 c 256,29,30
EndSplineSet
EndChar

StartChar: uni0394
Encoding: 295 916 167
Width: 759
GlyphClass: 1
Flags: W
HStem: 0 78<116 518> 660 20G<307.412 326.618>
LayerCount: 2
Fore
SplineSet
-9 0 m 1,0,-1
 317 680 l 1,1,-1
 644 0 l 1,2,-1
 -9 0 l 1,0,-1
116 78 m 1,3,-1
 518 78 l 1,4,-1
 317 498 l 1,5,-1
 116 78 l 1,3,-1
EndSplineSet
EndChar

StartChar: product
Encoding: 296 8719 168
Width: 761
GlyphClass: 1
Flags: W
HStem: -161 21G<133 214 530 612> 587 81<214 530>
VStem: 133 81<-161 587> 530 82<-161 587>
LayerCount: 2
Fore
SplineSet
133 -161 m 1,0,-1
 133 668 l 1,1,-1
 612 668 l 1,2,-1
 612 -161 l 1,3,-1
 530 -161 l 1,4,-1
 530 587 l 1,5,-1
 214 587 l 1,6,-1
 214 -161 l 1,7,-1
 133 -161 l 1,0,-1
EndSplineSet
EndChar

StartChar: pi
Encoding: 297 960 169
Width: 590
GlyphClass: 1
Flags: W
HStem: 0 75<437.285 488> 416 80<63 129 212 406 492 576>
VStem: 338 90<51 194.633>
LayerCount: 2
Fore
SplineSet
41 0 m 1,0,-1
 129 416 l 1,1,-1
 46 416 l 1,2,-1
 63 496 l 1,3,-1
 594 496 l 1,4,-1
 576 416 l 1,5,-1
 492 416 l 1,6,-1
 434 140 l 2,7,8
 432 128 432 128 430 118.5 c 128,-1,9
 428 109 428 109 428 101 c 0,10,11
 428 88 428 88 437 81.5 c 128,-1,12
 446 75 446 75 472 75 c 2,13,-1
 504 75 l 1,14,-1
 488 0 l 1,15,-1
 437 0 l 2,16,17
 382 0 382 0 360 16.5 c 128,-1,18
 338 33 338 33 338 69 c 0,19,20
 338 81 338 81 340 95 c 128,-1,21
 342 109 342 109 345 125 c 2,22,-1
 406 416 l 1,23,-1
 212 416 l 1,24,-1
 124 0 l 1,25,-1
 41 0 l 1,0,-1
EndSplineSet
EndChar

StartChar: hungarumlaut
Encoding: 298 733 170
Width: 394
GlyphClass: 1
Flags: W
HStem: 572 136<249 268>
VStem: 103 329
LayerCount: 2
Fore
SplineSet
103 572 m 1,0,1
 103 572 103 572 113.5 583 c 128,-1,2
 124 594 124 594 140 611 c 128,-1,3
 156 628 156 628 173 646.5 c 128,-1,4
 190 665 190 665 204 679.5 c 128,-1,5
 218 694 218 694 224 699 c 0,6,7
 236 708 236 708 250 708 c 0,8,9
 268 708 268 708 278 696 c 0,10,11
 287 686 287 686 287 671 c 0,12,13
 287 654 287 654 275 642 c 0,14,15
 268 635 268 635 252 623.5 c 128,-1,16
 236 612 236 612 218.5 600 c 128,-1,17
 201 588 201 588 189 580 c 128,-1,18
 177 572 177 572 177 572 c 1,19,-1
 103 572 l 1,0,1
249 572 m 1,20,21
 249 572 249 572 264.5 589 c 128,-1,22
 280 606 280 606 301.5 629 c 128,-1,23
 323 652 323 652 342.5 672.5 c 128,-1,24
 362 693 362 693 370 699 c 0,25,26
 382 708 382 708 396 708 c 0,27,28
 413 708 413 708 423 696 c 0,29,30
 432 684 432 684 432 670 c 0,31,32
 432 653 432 653 420 642 c 0,33,34
 413 635 413 635 397 623.5 c 128,-1,35
 381 612 381 612 363.5 600 c 128,-1,36
 346 588 346 588 334 580 c 128,-1,37
 322 572 322 572 322 572 c 1,38,-1
 249 572 l 1,20,21
EndSplineSet
EndChar

StartChar: tilde
Encoding: 299 732 171
Width: 420
GlyphClass: 1
Flags: W
HStem: 575 63<289.547 389.277> 617 63<166.678 280.952>
LayerCount: 2
Fore
SplineSet
346 575 m 0,0,1
 317 575 317 575 298 585.5 c 128,-1,2
 279 596 279 596 261 606.5 c 128,-1,3
 243 617 243 617 217 617 c 0,4,5
 173 617 173 617 155 577 c 1,6,-1
 90 577 l 1,7,8
 110 630 110 630 144 655 c 128,-1,9
 178 680 178 680 218 680 c 0,10,11
 251 680 251 680 271.5 669.5 c 128,-1,12
 292 659 292 659 309 648.5 c 128,-1,13
 326 638 326 638 346 638 c 0,14,15
 365 638 365 638 376 647.5 c 128,-1,16
 387 657 387 657 397 667 c 0,17,18
 410 680 410 680 424 680 c 0,19,20
 437 680 437 680 445.5 671 c 128,-1,21
 454 662 454 662 454 649 c 0,22,23
 454 640 454 640 449 632 c 0,24,25
 436 612 436 612 411.5 593.5 c 128,-1,26
 387 575 387 575 346 575 c 0,0,1
EndSplineSet
EndChar

StartChar: endash
Encoding: 300 8211 172
Width: 497
GlyphClass: 1
Flags: W
HStem: 208 79<40 438>
LayerCount: 2
Fore
SplineSet
40 208 m 1,0,-1
 40 287 l 1,1,-1
 438 287 l 1,2,-1
 438 208 l 1,3,-1
 40 208 l 1,0,-1
EndSplineSet
EndChar

StartChar: emdash
Encoding: 301 8212 173
Width: 817
GlyphClass: 1
Flags: W
HStem: 208 79<40 758>
LayerCount: 2
Fore
SplineSet
40 208 m 1,0,-1
 40 287 l 1,1,-1
 758 287 l 1,2,-1
 758 208 l 1,3,-1
 40 208 l 1,0,-1
EndSplineSet
EndChar

StartChar: trademark
Encoding: 302 8482 174
Width: 928
GlyphClass: 1
Flags: W
HStem: 608 60<133 251 318 436>
VStem: 251 67<292 608> 473 67<292 571> 808 67<292 571>
LayerCount: 2
Fore
SplineSet
473 292 m 1,0,-1
 473 668 l 1,1,-1
 581 668 l 1,2,-1
 674 384 l 1,3,-1
 767 668 l 1,4,-1
 875 668 l 1,5,-1
 875 292 l 1,6,-1
 808 292 l 1,7,-1
 808 571 l 1,8,-1
 710 292 l 1,9,-1
 638 292 l 1,10,-1
 540 571 l 1,11,-1
 540 292 l 1,12,-1
 473 292 l 1,0,-1
251 292 m 1,13,-1
 251 608 l 1,14,-1
 133 608 l 1,15,-1
 133 668 l 1,16,-1
 436 668 l 1,17,-1
 436 608 l 1,18,-1
 318 608 l 1,19,-1
 318 292 l 1,20,-1
 251 292 l 1,13,-1
EndSplineSet
EndChar

StartChar: Euro
Encoding: 303 8364 175
Width: 697
GlyphClass: 1
Flags: W
HStem: -12 79<292.943 473.594> 240 51<43 117.787 208 332> 376 51<72 129 238 435> 499 21G<595 661.621> 600 79<364.241 542.632>
VStem: 116 92<160.006 240 291 374.656>
LayerCount: 2
Fore
SplineSet
364 -12 m 256,0,1
 279 -12 279 -12 225.5 23.5 c 128,-1,2
 172 59 172 59 146 117 c 128,-1,3
 120 175 120 175 116 240 c 1,4,-1
 4 240 l 1,5,-1
 43 291 l 1,6,-1
 116 291 l 1,7,8
 119 333 119 333 129 376 c 1,9,-1
 33 376 l 1,10,-1
 72 427 l 1,11,-1
 144 427 l 1,12,13
 170 502 170 502 216 559 c 128,-1,14
 262 616 262 616 325.5 647.5 c 128,-1,15
 389 679 389 679 466 679 c 0,16,17
 549 679 549 679 607.5 642 c 128,-1,18
 666 605 666 605 688 528 c 1,19,-1
 603 499 l 1,20,21
 587 549 587 549 548.5 574.5 c 128,-1,22
 510 600 510 600 456 600 c 0,23,24
 384 600 384 600 327 554 c 128,-1,25
 270 508 270 508 238 427 c 1,26,-1
 474 427 l 1,27,-1
 435 376 l 1,28,-1
 221 376 l 1,29,30
 215 353 215 353 212 333.5 c 128,-1,31
 209 314 209 314 207 291 c 1,32,-1
 370 291 l 1,33,-1
 332 240 l 1,34,-1
 208 240 l 1,35,36
 216 162 216 162 260.5 114.5 c 128,-1,37
 305 67 305 67 375 67 c 0,38,39
 437 67 437 67 479.5 91.5 c 128,-1,40
 522 116 522 116 556 169 c 1,41,-1
 631 139 l 1,42,43
 586 64 586 64 517.5 26 c 128,-1,44
 449 -12 449 -12 364 -12 c 256,0,1
EndSplineSet
EndChar

StartChar: uni2113
Encoding: 304 8467 176
Width: 451
GlyphClass: 1
Flags: W
HStem: -12 73<179.242 293.234> 609 70<281.792 359.51>
VStem: 367 80<484.747 602.401>
LayerCount: 2
Fore
SplineSet
199 -12 m 0,0,1
 140 -12 140 -12 111.5 12 c 128,-1,2
 83 36 83 36 83 88 c 0,3,4
 82 107 82 107 86 128 c 128,-1,5
 90 149 90 149 98 188 c 1,6,-1
 20 138 l 1,7,-1
 39 227 l 1,8,-1
 117 278 l 1,9,-1
 166 506 l 2,10,11
 184 589 184 589 219 634 c 128,-1,12
 254 679 254 679 331 679 c 0,13,14
 381 679 381 679 414 651.5 c 128,-1,15
 447 624 447 624 447 567 c 0,16,17
 447 497 447 497 411.5 441 c 128,-1,18
 376 385 376 385 319.5 338.5 c 128,-1,19
 263 292 263 292 198 251 c 1,20,-1
 177 151 l 2,21,22
 167 105 167 105 178.5 83 c 128,-1,23
 190 61 190 61 225 61 c 0,24,25
 251 61 251 61 275 72.5 c 128,-1,26
 299 84 299 84 321 100 c 1,27,-1
 345 42 l 1,28,29
 319 20 319 20 280 4 c 128,-1,30
 241 -12 241 -12 199 -12 c 0,0,1
218 343 m 1,31,32
 260 369 260 369 293.5 407.5 c 128,-1,33
 327 446 327 446 347 488.5 c 128,-1,34
 367 531 367 531 367 567 c 0,35,36
 367 590 367 590 356 599.5 c 128,-1,37
 345 609 345 609 326 609 c 0,38,39
 298 609 298 609 282 589.5 c 128,-1,40
 266 570 266 570 255 517 c 2,41,-1
 218 343 l 1,31,32
EndSplineSet
EndChar

StartChar: Lslash
Encoding: 305 321 177
Width: 572
GlyphClass: 1
Flags: W
HStem: 0 82<158 500> 484 20G<389.778 422.89> 648 20G<182.745 283>
LayerCount: 2
Fore
SplineSet
45 0 m 1,0,-1
 102 266 l 1,1,-1
 3 214 l 1,2,-1
 18 287 l 1,3,-1
 117 339 l 1,4,-1
 187 668 l 1,5,-1
 283 668 l 1,6,-1
 226 396 l 1,7,-1
 427 504 l 1,8,-1
 412 431 l 1,9,-1
 210 324 l 1,10,-1
 158 82 l 1,11,-1
 517 82 l 1,12,-1
 500 0 l 1,13,-1
 45 0 l 1,0,-1
EndSplineSet
EndChar

StartChar: lslash
Encoding: 306 322 178
Width: 273
GlyphClass: 1
Flags: W
HStem: 0 75<140.285 196> 648 20G<158.767 249>
VStem: 40 91<51 191.539>
LayerCount: 2
Fore
SplineSet
140 0 m 2,0,1
 82 0 82 0 61 17 c 128,-1,2
 40 34 40 34 40 68 c 0,3,4
 40 80 40 80 42 94.5 c 128,-1,5
 44 109 44 109 47 125 c 2,6,-1
 79 272 l 1,7,-1
 3 232 l 1,8,-1
 18 303 l 1,9,-1
 94 342 l 1,10,-1
 163 668 l 1,11,-1
 249 668 l 1,12,-1
 190 393 l 1,13,-1
 291 447 l 1,14,-1
 276 376 l 1,15,-1
 175 323 l 1,16,-1
 136 140 l 2,17,18
 134 130 134 130 132.5 121 c 128,-1,19
 131 112 131 112 131 105 c 0,20,21
 131 89 131 89 140 82 c 128,-1,22
 149 75 149 75 174 75 c 2,23,-1
 212 75 l 1,24,-1
 196 0 l 1,25,-1
 140 0 l 2,0,1
EndSplineSet
EndChar

StartChar: oslash
Encoding: 248 248 179
Width: 548
GlyphClass: 1
Flags: W
HStem: -12 74<163.953 316.072> 430 74<208.823 369.493>
VStem: 27 89<149.953 315.444> 413 90<181.335 347.379>
LayerCount: 2
Fore
SplineSet
231 -12 m 0,0,1
 182 -12 182 -12 145 2.5 c 128,-1,2
 108 17 108 17 82 43 c 1,3,-1
 25 -11 l 1,4,-1
 -10 26 l 1,5,-1
 52 84 l 1,6,7
 27 131 27 131 27 198 c 0,8,9
 27 284 27 284 62 353 c 128,-1,10
 97 422 97 422 159.5 463 c 128,-1,11
 222 504 222 504 303 504 c 0,12,13
 342 504 342 504 378.5 491 c 128,-1,14
 415 478 415 478 443 451 c 1,15,-1
 504 509 l 1,16,-1
 539 472 l 1,17,-1
 475 411 l 1,18,19
 488 388 488 388 495.5 360 c 128,-1,20
 503 332 503 332 503 297 c 0,21,22
 503 235 503 235 483 179.5 c 128,-1,23
 463 124 463 124 426.5 81 c 128,-1,24
 390 38 390 38 340 13 c 128,-1,25
 290 -12 290 -12 231 -12 c 0,0,1
121 149 m 1,26,-1
 384 395 l 1,27,28
 367 414 367 414 343 422 c 128,-1,29
 319 430 319 430 290 430 c 0,30,31
 231 430 231 430 192 395.5 c 128,-1,32
 153 361 153 361 134.5 307.5 c 128,-1,33
 116 254 116 254 116 196 c 0,34,35
 116 183 116 183 117 171.5 c 128,-1,36
 118 160 118 160 121 149 c 1,26,-1
238 62 m 0,37,38
 295 62 295 62 334 97 c 128,-1,39
 373 132 373 132 393 186.5 c 128,-1,40
 413 241 413 241 413 300 c 0,41,42
 413 327 413 327 407 348 c 1,43,-1
 145 102 l 1,44,45
 176 62 176 62 238 62 c 0,37,38
EndSplineSet
EndChar

StartChar: Oslash
Encoding: 216 216 180
Width: 725
GlyphClass: 1
Flags: W
HStem: -12 79<238.191 425.951> 600 79<313.522 504.201>
VStem: 53 95<182.252 396.805> 594 95<263.598 495.6>
LayerCount: 2
Fore
SplineSet
311 -12 m 0,0,1
 249 -12 249 -12 200 9.5 c 128,-1,2
 151 31 151 31 118 70 c 1,3,-1
 39 -4 l 1,4,-1
 4 32 l 1,5,-1
 89 112 l 1,6,7
 53 178 53 178 53 269 c 0,8,9
 53 285 53 285 54.5 301 c 128,-1,10
 56 317 56 317 58 333 c 0,11,12
 73 434 73 434 121.5 512 c 128,-1,13
 170 590 170 590 248.5 634.5 c 128,-1,14
 327 679 327 679 431 679 c 0,15,16
 490 679 490 679 536 660 c 128,-1,17
 582 641 582 641 615 606 c 1,18,-1
 693 679 l 1,19,-1
 728 642 l 1,20,-1
 647 566 l 1,21,22
 689 497 689 497 689 402 c 0,23,24
 689 386 689 386 688 368.5 c 128,-1,25
 687 351 687 351 684 333 c 0,26,27
 674 269 674 269 646.5 207 c 128,-1,28
 619 145 619 145 573.5 96 c 128,-1,29
 528 47 528 47 462.5 17.5 c 128,-1,30
 397 -12 397 -12 311 -12 c 0,0,1
162 181 m 1,31,-1
 547 542 l 1,32,33
 498 600 498 600 418 600 c 0,34,35
 343 600 343 600 288.5 564.5 c 128,-1,36
 234 529 234 529 200.5 468.5 c 128,-1,37
 167 408 167 408 154 333 c 0,38,39
 148 299 148 299 148 269 c 0,40,41
 148 221 148 221 162 181 c 1,31,-1
324 67 m 0,42,43
 425 67 425 67 496.5 137.5 c 128,-1,44
 568 208 568 208 589 333 c 0,45,46
 592 350 592 350 593 365.5 c 128,-1,47
 594 381 594 381 594 395 c 0,48,49
 594 454 594 454 575 498 c 1,50,-1
 187 134 l 1,51,52
 211 101 211 101 246.5 84 c 128,-1,53
 282 67 282 67 324 67 c 0,42,43
EndSplineSet
EndChar

StartChar: Thorn
Encoding: 222 222 181
Width: 583
GlyphClass: 1
Flags: W
HStem: 155 81<151 403.495> 438 81<211 437.31>
VStem: 460 102<290.078 415.803>
LayerCount: 2
Fore
SplineSet
13 -8 m 1,0,-1
 155 659 l 1,1,-1
 241 659 l 1,2,-1
 211 519 l 1,3,-1
 338 519 l 2,4,5
 405 519 405 519 455 506 c 128,-1,6
 505 493 505 493 533.5 462 c 128,-1,7
 562 431 562 431 562 378 c 0,8,9
 562 365 562 365 560.5 350 c 128,-1,10
 559 335 559 335 554 318 c 0,11,12
 531 224 531 224 459.5 189.5 c 128,-1,13
 388 155 388 155 261 155 c 2,14,-1
 134 155 l 1,15,-1
 99 -8 l 1,16,-1
 13 -8 l 1,0,-1
151 236 m 1,17,-1
 287 236 l 2,18,19
 373 236 373 236 409.5 261.5 c 128,-1,20
 446 287 446 287 454 321 c 0,21,22
 460 347 460 347 460 366 c 0,23,24
 460 404 460 404 431 421 c 128,-1,25
 402 438 402 438 329 438 c 2,26,-1
 194 438 l 1,27,-1
 151 236 l 1,17,-1
EndSplineSet
EndChar

StartChar: ae
Encoding: 230 230 182
Width: 870
GlyphClass: 1
Flags: W
HStem: -12 68<117.057 260.064 504.971 651.763> 225 67<167.528 359 456 748.951> 435 69<206.952 356.445 548.809 697.49>
VStem: 6 94<74.1628 175.78> 367 89<292 348.36> 749 88<292.232 384.523>
LayerCount: 2
Fore
SplineSet
165 -12 m 0,0,1
 94 -12 94 -12 50 21 c 128,-1,2
 6 54 6 54 6 118 c 0,3,4
 6 174 6 174 33 208.5 c 128,-1,5
 60 243 60 243 109 261 c 128,-1,6
 158 279 158 279 223.5 285.5 c 128,-1,7
 289 292 289 292 367 292 c 1,8,9
 372 311 372 311 374.5 327.5 c 128,-1,10
 377 344 377 344 377 357 c 0,11,12
 377 396 377 396 355.5 415.5 c 128,-1,13
 334 435 334 435 286 435 c 0,14,15
 241 435 241 435 208.5 414.5 c 128,-1,16
 176 394 176 394 160 358 c 1,17,-1
 84 382 l 1,18,19
 109 437 109 437 159.5 470.5 c 128,-1,20
 210 504 210 504 280 504 c 0,21,22
 347 504 347 504 387.5 485 c 128,-1,23
 428 466 428 466 446 432 c 1,24,25
 521 504 521 504 637 504 c 0,26,27
 703 504 703 504 747.5 476.5 c 128,-1,28
 792 449 792 449 814.5 402.5 c 128,-1,29
 837 356 837 356 837 299 c 0,30,31
 837 263 837 263 828 225 c 1,32,-1
 443 225 l 1,33,34
 442 218 442 218 442 211 c 128,-1,35
 442 204 442 204 442 198 c 0,36,37
 442 146 442 146 462 116.5 c 128,-1,38
 482 87 482 87 512.5 74.5 c 128,-1,39
 543 62 543 62 576 62 c 0,40,41
 617 62 617 62 647.5 75.5 c 128,-1,42
 678 89 678 89 699 111 c 1,43,-1
 777 87 l 1,44,45
 743 43 743 43 690 15.5 c 128,-1,46
 637 -12 637 -12 565 -12 c 0,47,48
 498 -12 498 -12 451.5 18.5 c 128,-1,49
 405 49 405 49 382 100 c 1,50,51
 355 58 355 58 318 33.5 c 128,-1,52
 281 9 281 9 241.5 -1.5 c 128,-1,53
 202 -12 202 -12 165 -12 c 0,0,1
456 292 m 1,54,-1
 748 292 l 1,55,56
 749 297 749 297 749 301.5 c 128,-1,57
 749 306 749 306 749 310 c 0,58,59
 749 340 749 340 736.5 368 c 128,-1,60
 724 396 724 396 696.5 414 c 128,-1,61
 669 432 669 432 625 432 c 0,62,63
 588 432 588 432 552.5 415.5 c 128,-1,64
 517 399 517 399 491.5 368 c 128,-1,65
 466 337 466 337 456 292 c 1,54,-1
175 56 m 0,66,67
 246 57 246 57 294.5 103 c 128,-1,68
 343 149 343 149 359 224 c 1,69,70
 309 224 309 224 262.5 221 c 128,-1,71
 216 218 216 218 179.5 207.5 c 128,-1,72
 143 197 143 197 121.5 176 c 128,-1,73
 100 155 100 155 100 120 c 0,74,75
 100 94 100 94 118 75 c 128,-1,76
 136 56 136 56 175 56 c 0,66,67
EndSplineSet
EndChar

StartChar: eth
Encoding: 240 240 183
Width: 569
GlyphClass: 1
Flags: W
HStem: -12 71<165.736 322.871> 370 75<187.578 348.313> 603 76<237 352.588>
VStem: 24 83<119.216 286.342> 441 85<339.5 511.323>
LayerCount: 2
Fore
SplineSet
232 -12 m 0,0,1
 173 -12 173 -12 126 17 c 128,-1,2
 79 46 79 46 51.5 93.5 c 128,-1,3
 24 141 24 141 24 198 c 0,4,5
 24 268 24 268 55.5 323.5 c 128,-1,6
 87 379 87 379 143 412 c 128,-1,7
 199 445 199 445 270 445 c 0,8,9
 314 445 314 445 348 429.5 c 128,-1,10
 382 414 382 414 405 389.5 c 128,-1,11
 428 365 428 365 437 339 c 1,12,13
 439 355 439 355 440 370 c 128,-1,14
 441 385 441 385 441 399 c 0,15,16
 441 452 441 452 428.5 489 c 128,-1,17
 416 526 416 526 394 550 c 1,18,-1
 301 473 l 1,19,-1
 273 509 l 1,20,-1
 357 579 l 1,21,22
 329 594 329 594 295 599.5 c 128,-1,23
 261 605 261 605 221 603 c 1,24,-1
 237 679 l 1,25,26
 294 681 294 681 341 671 c 128,-1,27
 388 661 388 661 425 635 c 1,28,-1
 478 679 l 1,29,-1
 507 643 l 1,30,-1
 460 605 l 1,31,32
 494 568 494 568 511 509.5 c 128,-1,33
 528 451 528 451 526 365 c 0,34,35
 525 335 525 335 518.5 288.5 c 128,-1,36
 512 242 512 242 494 190 c 128,-1,37
 476 138 476 138 443.5 92 c 128,-1,38
 411 46 411 46 359 17 c 128,-1,39
 307 -12 307 -12 232 -12 c 0,0,1
242 59 m 0,40,41
 313 59 313 59 356.5 109 c 128,-1,42
 400 159 400 159 400 238 c 0,43,44
 400 301 400 301 364 335.5 c 128,-1,45
 328 370 328 370 274 370 c 0,46,47
 222 370 222 370 184.5 346.5 c 128,-1,48
 147 323 147 323 127 283.5 c 128,-1,49
 107 244 107 244 107 196 c 0,50,51
 107 161 107 161 123 129.5 c 128,-1,52
 139 98 139 98 169 78.5 c 128,-1,53
 199 59 199 59 242 59 c 0,40,41
EndSplineSet
EndChar

StartChar: thorn
Encoding: 254 254 184
Width: 557
GlyphClass: 1
Flags: W
HStem: -161 21G<-26 64.3137> -12 72<193.206 329.75> 432 72<240.158 373.983> 648 20G<145.754 236>
VStem: 419 91<175.567 385.089>
LayerCount: 2
Fore
SplineSet
-26 -161 m 1,0,-1
 150 668 l 1,1,-1
 236 668 l 1,2,-1
 188 438 l 1,3,4
 213 470 213 470 249 487 c 128,-1,5
 285 504 285 504 328 504 c 0,6,7
 408 504 408 504 459 449.5 c 128,-1,8
 510 395 510 395 510 291 c 0,9,10
 510 196 510 196 475.5 128 c 128,-1,11
 441 60 441 60 385.5 24 c 128,-1,12
 330 -12 330 -12 265 -12 c 0,13,14
 206 -12 206 -12 167 19.5 c 128,-1,15
 128 51 128 51 115 94 c 1,16,-1
 60 -161 l 1,17,-1
 -26 -161 l 1,0,-1
262 60 m 0,18,19
 301 60 301 60 330 81.5 c 128,-1,20
 359 103 359 103 379 137.5 c 128,-1,21
 399 172 399 172 409 211.5 c 128,-1,22
 419 251 419 251 419 288 c 0,23,24
 420 363 420 363 388.5 397.5 c 128,-1,25
 357 432 357 432 309 432 c 0,26,27
 265 432 265 432 233 410 c 128,-1,28
 201 388 201 388 180.5 354.5 c 128,-1,29
 160 321 160 321 150.5 284.5 c 128,-1,30
 141 248 141 248 141 218 c 0,31,32
 141 141 141 141 174 100.5 c 128,-1,33
 207 60 207 60 262 60 c 0,18,19
EndSplineSet
EndChar

StartChar: multiply
Encoding: 215 215 185
Width: 593
GlyphClass: 1
Flags: W
LayerCount: 2
Fore
SplineSet
134 39 m 1,0,-1
 77 97 l 1,1,-1
 231 250 l 1,2,-1
 77 404 l 1,3,-1
 134 462 l 1,4,-1
 288 308 l 1,5,-1
 442 462 l 1,6,-1
 499 404 l 1,7,-1
 346 250 l 1,8,-1
 499 97 l 1,9,-1
 442 39 l 1,10,-1
 288 193 l 1,11,-1
 134 39 l 1,0,-1
EndSplineSet
EndChar

StartChar: divide
Encoding: 247 247 186
Width: 619
GlyphClass: 1
Flags: W
HStem: 14 129<254.596 344.92> 208 81<52 548> 354 129<254.596 344.92>
VStem: 235 129<33.5957 123.405 373.08 463.404>
CounterMasks: 1 e0
LayerCount: 2
Fore
SplineSet
300 354 m 256,0,1
 273 354 273 354 254 372.5 c 128,-1,2
 235 391 235 391 235 418 c 256,3,4
 235 445 235 445 254 464 c 128,-1,5
 273 483 273 483 300 483 c 256,6,7
 327 483 327 483 345.5 464 c 128,-1,8
 364 445 364 445 364 418 c 256,9,10
 364 391 364 391 345.5 372.5 c 128,-1,11
 327 354 327 354 300 354 c 256,0,1
52 208 m 1,12,-1
 52 289 l 1,13,-1
 548 289 l 1,14,-1
 548 208 l 1,15,-1
 52 208 l 1,12,-1
300 14 m 256,16,17
 273 14 273 14 254 33 c 128,-1,18
 235 52 235 52 235 79 c 0,19,20
 235 105 235 105 254 124 c 128,-1,21
 273 143 273 143 300 143 c 256,22,23
 327 143 327 143 345.5 124 c 128,-1,24
 364 105 364 105 364 79 c 0,25,26
 364 52 364 52 345.5 33 c 128,-1,27
 327 14 327 14 300 14 c 256,16,17
EndSplineSet
EndChar

StartChar: OE
Encoding: 307 338 187
Width: 1070
GlyphClass: 1
Flags: W
HStem: -12 80<237.351 426.451> 0 82<631 974> 304 80<696 944> 587 81<739 1098> 601 79<313.191 503.053>
VStem: 53 95<163.263 397.805>
LayerCount: 2
Fore
SplineSet
311 -12 m 0,0,1
 229 -12 229 -12 171 24.5 c 128,-1,2
 113 61 113 61 83 125 c 128,-1,3
 53 189 53 189 53 269 c 0,4,5
 53 285 53 285 54.5 301.5 c 128,-1,6
 56 318 56 318 58 334 c 0,7,8
 73 435 73 435 121.5 513 c 128,-1,9
 170 591 170 591 248 635.5 c 128,-1,10
 326 680 326 680 431 680 c 0,11,12
 508 680 508 680 564.5 646.5 c 128,-1,13
 621 613 621 613 652 557 c 1,14,-1
 676 668 l 1,15,-1
 1115 668 l 1,16,-1
 1098 587 l 1,17,-1
 739 587 l 1,18,-1
 696 384 l 1,19,-1
 961 384 l 1,20,-1
 944 304 l 1,21,-1
 678 304 l 1,22,-1
 631 82 l 1,23,-1
 991 82 l 1,24,-1
 974 0 l 1,25,-1
 534 0 l 1,26,-1
 551 80 l 1,27,28
 510 41 510 41 452 14.5 c 128,-1,29
 394 -12 394 -12 311 -12 c 0,0,1
324 68 m 0,30,31
 425 68 425 68 496 138.5 c 128,-1,32
 567 209 567 209 588 334 c 0,33,34
 594 369 594 369 594 398 c 0,35,36
 594 464 594 464 570.5 509 c 128,-1,37
 547 554 547 554 507 577.5 c 128,-1,38
 467 601 467 601 418 601 c 0,39,40
 343 601 343 601 288.5 565.5 c 128,-1,41
 234 530 234 530 200.5 469.5 c 128,-1,42
 167 409 167 409 154 334 c 0,43,44
 148 300 148 300 148 269 c 0,45,46
 148 204 148 204 171.5 159 c 128,-1,47
 195 114 195 114 235 91 c 128,-1,48
 275 68 275 68 324 68 c 0,30,31
EndSplineSet
EndChar

StartChar: oe
Encoding: 308 339 188
Width: 910
GlyphClass: 1
Flags: W
HStem: -12 74<165.227 313.229 534.799 704.76> 226 67<497 789.973> 430 74<209.672 368.646 579.252 746.158>
VStem: 26 88<114.789 314.527> 790 87<293.882 385.859>
LayerCount: 2
Fore
SplineSet
232 -12 m 0,0,1
 135 -12 135 -12 80.5 44 c 128,-1,2
 26 100 26 100 26 196 c 0,3,4
 26 209 26 209 27.5 221.5 c 128,-1,5
 29 234 29 234 30 247 c 0,6,7
 39 316 39 316 67 364.5 c 128,-1,8
 95 413 95 413 134 444 c 128,-1,9
 173 475 173 475 216.5 489.5 c 128,-1,10
 260 504 260 504 300 504 c 0,11,12
 352 504 352 504 395 483 c 128,-1,13
 438 462 438 462 467 406 c 1,14,15
 502 453 502 453 556.5 478.5 c 128,-1,16
 611 504 611 504 674 504 c 0,17,18
 741 504 741 504 786 477.5 c 128,-1,19
 831 451 831 451 854 405 c 128,-1,20
 877 359 877 359 877 302 c 0,21,22
 877 265 877 265 868 226 c 1,23,-1
 484 226 l 1,24,25
 483 219 483 219 483 212.5 c 128,-1,26
 483 206 483 206 483 200 c 0,27,28
 483 150 483 150 501.5 119.5 c 128,-1,29
 520 89 520 89 550 75.5 c 128,-1,30
 580 62 580 62 616 62 c 0,31,32
 658 62 658 62 688.5 75.5 c 128,-1,33
 719 89 719 89 739 111 c 1,34,-1
 817 87 l 1,35,36
 785 46 785 46 733.5 17 c 128,-1,37
 682 -12 682 -12 610 -12 c 256,38,39
 538 -12 538 -12 495 13.5 c 128,-1,40
 452 39 452 39 424 86 c 1,41,42
 394 46 394 46 346.5 17 c 128,-1,43
 299 -12 299 -12 232 -12 c 0,0,1
497 293 m 1,44,-1
 789 293 l 1,45,46
 790 298 790 298 790 303 c 128,-1,47
 790 308 790 308 790 312 c 0,48,49
 790 343 790 343 777.5 370 c 128,-1,50
 765 397 765 397 737.5 414.5 c 128,-1,51
 710 432 710 432 664 432 c 0,52,53
 608 432 608 432 559.5 395.5 c 128,-1,54
 511 359 511 359 497 293 c 1,44,-1
233 62 m 0,55,56
 301 61 301 61 348.5 113 c 128,-1,57
 396 165 396 165 408 248 c 0,58,59
 410 262 410 262 411 274.5 c 128,-1,60
 412 287 412 287 412 298 c 0,61,62
 412 373 412 373 377.5 401.5 c 128,-1,63
 343 430 343 430 292 430 c 0,64,65
 256 430 256 430 220.5 414 c 128,-1,66
 185 398 185 398 158 359 c 128,-1,67
 131 320 131 320 119 249 c 0,68,69
 117 236 117 236 115.5 223.5 c 128,-1,70
 114 211 114 211 114 199 c 0,71,72
 114 135 114 135 146 99.5 c 128,-1,73
 178 64 178 64 233 62 c 0,55,56
EndSplineSet
EndChar

StartChar: Aring
Encoding: 197 197 192
Width: 627
GlyphClass: 2
Flags: W
HStem: 0 21G<-52 67.3699 459.123 565> 146 80<184 430> 779 58<364.348 443.728>
VStem: 295 57<689.61 766.718> 456 57<689.673 766.327>
AnchorPoint: "Anchor-2" 513 10 basechar 0
AnchorPoint: "Anchor-1" 427 837 basechar 0
AnchorPoint: "Anchor-0" 261 0 basechar 0
LayerCount: 2
Fore
SplineSet
404 677 m 128,-1,1
 426 677 426 677 441 692 c 128,-1,2
 456 707 456 707 456 728 c 128,-1,3
 456 749 456 749 441 764 c 128,-1,4
 426 779 426 779 404 779 c 128,-1,5
 382 779 382 779 367 764 c 128,-1,6
 352 749 352 749 352 728 c 128,-1,7
 352 707 352 707 367 692 c 128,-1,0
 382 677 382 677 404 677 c 128,-1,1
184 226 m 1,8,-1
 430 226 l 1,9,-1
 381 573 l 1,10,-1
 184 226 l 1,8,-1
461.529416443 634.113301064 m 1,11,-1
 565 0 l 1,12,-1
 462 0 l 1,13,-1
 441 146 l 1,14,-1
 139 146 l 1,15,-1
 56 0 l 1,16,-1
 -52 0 l 1,17,-1
 329.289960047 649.749217631 l 1,18,19
 318.163889203 660.393517995 318.163889203 660.393517995 310 674 c 0,20,21
 295 699 295 699 295 728 c 0,22,23
 295 758 295 758 310 782.5 c 128,-1,24
 325 807 325 807 350 822 c 128,-1,25
 375 837 375 837 406 837 c 0,26,27
 452 837 452 837 482.5 804.5 c 128,-1,28
 513 772 513 772 513 728 c 128,-1,29
 513 684 513 684 482.5 651.5 c 0,30,31
 472.798778303 641.162632618 472.798778303 641.162632618 461.529416443 634.113301064 c 1,11,-1
EndSplineSet
EndChar

StartChar: Ccedilla
Encoding: 199 199 203
Width: 661
GlyphClass: 2
Flags: W
HStem: -181 41<179.545 297.638> -12 79<305.694 429.297> 498 21G<558 625.333> 600 80<314.286 501.398>
VStem: 53 96<165.053 400.344> 304 63<-132.12 -86.0335>
AnchorPoint: "Anchor-1" 420 668 basechar 0
AnchorPoint: "Anchor-0" 257 -181 basechar 0
LayerCount: 2
Fore
SplineSet
254 -181 m 0,0,1
 217 -181 217 -181 167 -163 c 1,2,-1
 190 -126 l 1,3,4
 207 -133 207 -133 221 -136.5 c 128,-1,5
 235 -140 235 -140 247 -140 c 0,6,7
 274 -140 274 -140 289 -128 c 128,-1,8
 304 -116 304 -116 304 -104 c 0,9,10
 304 -95 304 -95 296 -88.5 c 128,-1,11
 288 -82 288 -82 269 -82 c 0,12,13
 254 -82 254 -82 247 -84.5 c 128,-1,14
 240 -87 240 -87 234 -87 c 0,15,16
 216 -87 216 -87 216 -70 c 0,17,18
 216 -64 216 -64 221 -57 c 2,19,-1
 261.320635338 -8.37805738663 l 1,20,21
 223.158391837 -2.87286024499 223.158391837 -2.87286024499 193 11 c 0,22,23
 143 34 143 34 112 73 c 128,-1,24
 81 112 81 112 67 161.5 c 128,-1,25
 53 211 53 211 53 263 c 0,26,27
 53 346 53 346 80 421.5 c 128,-1,28
 107 497 107 497 156 555 c 128,-1,29
 205 613 205 613 272.5 646.5 c 128,-1,30
 340 680 340 680 421 680 c 0,31,32
 508 680 508 680 569.5 642.5 c 128,-1,33
 631 605 631 605 655 528 c 1,34,-1
 566 498 l 1,35,36
 550 548 550 548 509 574 c 128,-1,37
 468 600 468 600 411 600 c 0,38,39
 351 600 351 600 302.5 572 c 128,-1,40
 254 544 254 544 220 497 c 128,-1,41
 186 450 186 450 167.5 391.5 c 128,-1,42
 149 333 149 333 149 272 c 0,43,44
 149 212 149 212 170.5 165.5 c 128,-1,45
 192 119 192 119 232 93 c 128,-1,46
 272 67 272 67 325 67 c 0,47,48
 390 67 390 67 435 92 c 128,-1,49
 480 117 480 117 516 171 c 1,50,-1
 595 140 l 1,51,52
 548 64 548 64 476 26 c 128,-1,53
 404 -12 404 -12 315 -12 c 0,54,55
 310.300253077 -12 310.300253077 -12 305.6942422 -11.9020032241 c 2,56,-1
 278 -45 l 1,57,58
 285 -44 285 -44 290.5 -43.5 c 128,-1,59
 296 -43 296 -43 302 -43 c 0,60,61
 335 -43 335 -43 351 -59 c 128,-1,62
 367 -75 367 -75 367 -96 c 0,63,64
 367 -125 367 -125 338.5 -153 c 128,-1,65
 310 -181 310 -181 254 -181 c 0,0,1
EndSplineSet
EndChar

StartChar: ccedilla
Encoding: 231 231 204
Width: 495
GlyphClass: 2
Flags: W
HStem: -181 41<79.5449 197.638> -12 74<205.968 318.439> 430 74<213.851 366.033>
VStem: 26 92<109.917 313.975> 204 63<-132.12 -86.0335>
AnchorPoint: "Anchor-1" 301 496 basechar 0
AnchorPoint: "Anchor-0" 195 0 basechar 0
LayerCount: 2
Fore
SplineSet
154 -181 m 0,0,1
 117 -181 117 -181 67 -163 c 1,2,-1
 90 -126 l 1,3,4
 107 -133 107 -133 121 -136.5 c 128,-1,5
 135 -140 135 -140 147 -140 c 0,6,7
 174 -140 174 -140 189 -128 c 128,-1,8
 204 -116 204 -116 204 -104 c 0,9,10
 204 -95 204 -95 196 -88.5 c 128,-1,11
 188 -82 188 -82 169 -82 c 0,12,13
 154 -82 154 -82 147 -84.5 c 128,-1,14
 140 -87 140 -87 134 -87 c 0,15,16
 116 -87 116 -87 116 -70 c 0,17,18
 116 -64 116 -64 121 -57 c 2,19,-1
 163.584278968 -5.64836947988 l 1,20,21
 111.498773006 6.6906307707 111.498773006 6.6906307707 77.5 43 c 0,22,23
 26 98 26 98 26 192 c 0,24,25
 26 277 26 277 59.5 347.5 c 128,-1,26
 93 418 93 418 154.5 461 c 128,-1,27
 216 504 216 504 298 504 c 0,28,29
 366 504 366 504 412 475.5 c 128,-1,30
 458 447 458 447 483 393 c 1,31,-1
 400 364 l 1,32,33
 390 394 390 394 361 412 c 128,-1,34
 332 430 332 430 294 430 c 0,35,36
 237 430 237 430 198 397 c 128,-1,37
 159 364 159 364 138.5 311 c 128,-1,38
 118 258 118 258 118 197 c 0,39,40
 118 140 118 140 145.5 101 c 128,-1,41
 173 62 173 62 241 62 c 0,42,43
 282 62 282 62 312.5 79.5 c 128,-1,44
 343 97 343 97 365 127 c 1,45,-1
 436 99 l 1,46,47
 402 44 402 44 345.5 16 c 128,-1,48
 289 -12 289 -12 222 -12 c 0,49,50
 213.823593006 -12 213.823593006 -12 205.967965953 -11.5748699592 c 1,51,-1
 178 -45 l 1,52,53
 185 -44 185 -44 190.5 -43.5 c 128,-1,54
 196 -43 196 -43 202 -43 c 0,55,56
 235 -43 235 -43 251 -59 c 128,-1,57
 267 -75 267 -75 267 -96 c 0,58,59
 267 -125 267 -125 238.5 -153 c 128,-1,60
 210 -181 210 -181 154 -181 c 0,0,1
EndSplineSet
EndChar

StartChar: Eth
Encoding: 208 208 249
Width: 710
GlyphClass: 1
Flags: W
HStem: 0 79<163 391.686> 303 80<39 114 228 351> 588 80<271 485.731>
LayerCount: 2
Fore
SplineSet
50 0 m 1,0,-1
 114 303 l 1,1,-1
 22 303 l 1,2,-1
 39 383 l 1,3,-1
 131 383 l 1,4,-1
 192 668 l 1,5,-1
 376 668 l 2,6,7
 554 668 554 668 625 581 c 128,-1,8
 696 494 696 494 667 319 c 0,9,10
 649 212 649 212 590 141 c 128,-1,11
 531 70 531 70 440 35 c 128,-1,12
 349 0 349 0 235 0 c 2,13,-1
 50 0 l 1,0,-1
163 79 m 1,14,-1
 249 79 l 2,15,16
 331 79 331 79 398 102.5 c 128,-1,17
 465 126 465 126 511 180 c 128,-1,18
 557 234 557 234 572 325 c 0,19,20
 596 466 596 466 544.5 527 c 128,-1,21
 493 588 493 588 356 588 c 2,22,-1
 271 588 l 1,23,-1
 228 383 l 1,24,-1
 368 383 l 1,25,-1
 351 303 l 1,26,-1
 211 303 l 1,27,-1
 163 79 l 1,14,-1
EndSplineSet
EndChar

StartChar: one.tf
Encoding: 317 -1 251
Width: 639
GlyphClass: 1
Flags: W
HStem: 8 77<53 232 317 459> 513 67<159 304.031> 657 20G<377 442>
VStem: 384 58<643.848 677>
LayerCount: 2
Fore
SplineSet
37 8 m 1,0,-1
 53 85 l 1,1,-1
 232 85 l 1,2,-1
 322 513 l 1,3,-1
 144 513 l 1,4,-1
 159 580 l 1,5,6
 230 580 230 580 274.5 592 c 128,-1,7
 319 604 319 604 344.5 626 c 128,-1,8
 370 648 370 648 384 677 c 1,9,-1
 442 677 l 1,10,-1
 317 85 l 1,11,-1
 475 85 l 1,12,-1
 459 8 l 1,13,-1
 37 8 l 1,0,-1
EndSplineSet
Substitution2: "'pnum' Proportional Numbers lookup 13 subtable" one
Substitution2: "'aalt' Access All Alternates lookup 0 subtable" one
EndChar

StartChar: Aogonek
Encoding: 328 260 262
Width: 627
GlyphClass: 2
Flags: W
HStem: -173 57<460.856 531.099> 0 21G<-52 67.3699> 146 80<184 430> 648 20G<328.263 459.263>
VStem: 380 77<-110.566 -51.1006>
AnchorPoint: "Anchor-2" 513 10 basechar 0
AnchorPoint: "Anchor-1" 387 668 basechar 0
AnchorPoint: "Anchor-0" 261 0 basechar 0
LayerCount: 2
Fore
SplineSet
464 -173 m 0,0,1
 423 -173 423 -173 401.5 -153.5 c 128,-1,2
 380 -134 380 -134 380 -106 c 0,3,4
 380 -72 380 -72 409 -43 c 128,-1,5
 438 -14 438 -14 486 0 c 1,6,-1
 462 0 l 1,7,-1
 441 146 l 1,8,-1
 139 146 l 1,9,-1
 56 0 l 1,10,-1
 -52 0 l 1,11,-1
 340 668 l 1,12,-1
 456 668 l 1,13,-1
 565 0 l 1,14,15
 518 -17 518 -17 487.5 -40 c 128,-1,16
 457 -63 457 -63 457 -89 c 0,17,18
 457 -101 457 -101 468.5 -108.5 c 128,-1,19
 480 -116 480 -116 498 -116 c 0,20,21
 518 -116 518 -116 542 -107 c 1,22,-1
 531 -161 l 1,23,24
 492 -173 492 -173 464 -173 c 0,0,1
184 226 m 1,25,-1
 430 226 l 1,26,-1
 381 573 l 1,27,-1
 184 226 l 1,25,-1
EndSplineSet
EndChar

StartChar: aogonek
Encoding: 329 261 263
Width: 521
GlyphClass: 2
Flags: W
HStem: -173 57<303.856 374.099> -12 69<120.824 257.897> 436 68<205.059 355.656>
VStem: 5 94<75.8781 182.127> 223 77<-110.566 -51.1006> 377 85<308.437 414.041>
AnchorPoint: "Anchor-2" 408 0 basechar 0
AnchorPoint: "Anchor-1" 311 496 basechar 0
AnchorPoint: "Anchor-0" 208 0 basechar 0
LayerCount: 2
Fore
SplineSet
307 -173 m 0,0,1
 266 -173 266 -173 244.5 -153.5 c 128,-1,2
 223 -134 223 -134 223 -106 c 0,3,4
 223 -72 223 -72 252 -43 c 128,-1,5
 281 -14 281 -14 329 0 c 1,6,-1
 325 63 l 1,7,8
 292 26 292 26 252.5 7 c 128,-1,9
 213 -12 213 -12 154 -12 c 0,10,11
 90 -12 90 -12 47.5 23 c 128,-1,12
 5 58 5 58 5 117 c 0,13,14
 5 167 5 167 31.5 200 c 128,-1,15
 58 233 58 233 100.5 253 c 128,-1,16
 143 273 143 273 192.5 283.5 c 128,-1,17
 242 294 242 294 289 299 c 128,-1,18
 336 304 336 304 370 308 c 1,19,20
 373 322 373 322 375 334 c 128,-1,21
 377 346 377 346 377 357 c 0,22,23
 377 436 377 436 285 436 c 0,24,25
 239 436 239 436 207 415.5 c 128,-1,26
 175 395 175 395 158 359 c 1,27,-1
 83 382 l 1,28,29
 109 438 109 438 159 471 c 128,-1,30
 209 504 209 504 281 504 c 0,31,32
 368 504 368 504 415 469 c 128,-1,33
 462 434 462 434 462 361 c 0,34,35
 462 344 462 344 459.5 327 c 128,-1,36
 457 310 457 310 450.5 279 c 128,-1,37
 444 248 444 248 431 188 c 0,38,39
 418 126 418 126 413.5 80.5 c 128,-1,40
 409 35 409 35 408 0 c 1,41,42
 361 -17 361 -17 330.5 -40 c 128,-1,43
 300 -63 300 -63 300 -89 c 0,44,45
 300 -101 300 -101 311.5 -108.5 c 128,-1,46
 323 -116 323 -116 341 -116 c 0,47,48
 361 -116 361 -116 385 -107 c 1,49,-1
 374 -161 l 1,50,51
 335 -173 335 -173 307 -173 c 0,0,1
181 57 m 0,52,53
 249 57 249 57 297.5 102.5 c 128,-1,54
 346 148 346 148 359 224 c 2,55,-1
 362 241 l 1,56,57
 279 233 279 233 220 222.5 c 128,-1,58
 161 212 161 212 130 190 c 128,-1,59
 99 168 99 168 99 125 c 0,60,61
 99 91 99 91 123 74 c 128,-1,62
 147 57 147 57 181 57 c 0,52,53
EndSplineSet
EndChar

StartChar: Eogonek
Encoding: 334 280 268
Width: 565
GlyphClass: 2
Flags: W
HStem: -173 57<333.856 404.099> 0 81<127 359 389.171 469> 304 80<192 439> 587 81<235 594>
VStem: 253 77<-110.566 -51.1006>
AnchorPoint: "Anchor-2" 438 0 basechar 0
AnchorPoint: "Anchor-1" 381 668 basechar 0
AnchorPoint: "Anchor-0" 230 0 basechar 0
LayerCount: 2
Fore
SplineSet
337 -173 m 0,0,1
 296 -173 296 -173 274.5 -153.5 c 128,-1,2
 253 -134 253 -134 253 -106 c 0,3,4
 253 -72 253 -72 282 -43 c 128,-1,5
 311 -14 311 -14 359 0 c 1,6,-1
 14 0 l 1,7,-1
 156 668 l 1,8,-1
 611 668 l 1,9,-1
 594 587 l 1,10,-1
 235 587 l 1,11,-1
 192 384 l 1,12,-1
 457 384 l 1,13,-1
 439 304 l 1,14,-1
 175 304 l 1,15,-1
 127 81 l 1,16,-1
 486 81 l 1,17,-1
 469 0 l 1,18,-1
 438 0 l 1,19,20
 391 -17 391 -17 360.5 -40 c 128,-1,21
 330 -63 330 -63 330 -89 c 0,22,23
 330 -101 330 -101 341.5 -108.5 c 128,-1,24
 353 -116 353 -116 371 -116 c 0,25,26
 391 -116 391 -116 415 -107 c 1,27,-1
 404 -161 l 1,28,29
 365 -173 365 -173 337 -173 c 0,0,1
EndSplineSet
EndChar

StartChar: eogonek
Encoding: 335 281 269
Width: 542
GlyphClass: 2
Flags: W
HStem: -163 57<232.856 303.099> 225 68<128 421.924> 432 72<214.021 374.11>
VStem: 27 88<114.416 223.113> 152 77<-100.566 -41.1006> 422 87<293.224 384.176>
AnchorPoint: "Anchor-2" 337 10 basechar 0
AnchorPoint: "Anchor-1" 321 496 basechar 0
AnchorPoint: "Anchor-0" 218 0 basechar 0
LayerCount: 2
Fore
SplineSet
236 -163 m 0,0,1
 195 -163 195 -163 173.5 -143.5 c 128,-1,2
 152 -124 152 -124 152 -96 c 0,3,4
 152 -62 152 -62 181 -33 c 0,5,6
 193.538899446 -20.4611005538 193.538899446 -20.4611005538 209.629827414 -10.7264341515 c 1,7,8
 131.554570862 -3.47983255055 131.554570862 -3.47983255055 83.5 45 c 0,9,10
 27 102 27 102 27 199 c 0,11,12
 27 286 27 286 61.5 355 c 128,-1,13
 96 424 96 424 159.5 464 c 128,-1,14
 223 504 223 504 309 504 c 0,15,16
 376 504 376 504 420 477 c 128,-1,17
 464 450 464 450 486.5 403.5 c 128,-1,18
 509 357 509 357 509 300 c 0,19,20
 509 264 509 264 500 225 c 1,21,-1
 116 225 l 1,22,23
 115 218 115 218 115 211 c 128,-1,24
 115 204 115 204 115 197 c 0,25,26
 115 146 115 146 134.5 116.5 c 128,-1,27
 154 87 154 87 185 74.5 c 128,-1,28
 216 62 216 62 248 62 c 0,29,30
 290 62 290 62 320 75.5 c 128,-1,31
 350 89 350 89 371 111 c 1,32,-1
 449 87 l 1,33,34
 415 43 415 43 362.5 15.5 c 0,35,36
 333.1895973 0.146931919065 333.1895973 0.146931919065 297.801210301 -6.63461991197 c 1,37,38
 276.18244351 -17.4197965879 276.18244351 -17.4197965879 259.5 -30 c 0,39,40
 229 -53 229 -53 229 -79 c 0,41,42
 229 -91 229 -91 240.5 -98.5 c 128,-1,43
 252 -106 252 -106 270 -106 c 0,44,45
 290 -106 290 -106 314 -97 c 1,46,-1
 303 -151 l 1,47,48
 264 -163 264 -163 236 -163 c 0,0,1
128 293 m 1,49,-1
 421 293 l 1,50,51
 422 298 422 298 422 302 c 128,-1,52
 422 306 422 306 422 310 c 0,53,54
 422 340 422 340 409.5 368 c 128,-1,55
 397 396 397 396 369.5 414 c 128,-1,56
 342 432 342 432 297 432 c 0,57,58
 260 432 260 432 225 416 c 128,-1,59
 190 400 190 400 164 369 c 128,-1,60
 138 338 138 338 128 293 c 1,49,-1
EndSplineSet
EndChar

StartChar: Iogonek
Encoding: 342 302 276
Width: 414
GlyphClass: 2
Flags: W
HStem: -173 57<91.8564 162.099> 0 75<20 113 209 285> 593 75<146 223 318 412>
VStem: 11 77<-110.566 -51.1006>
AnchorPoint: "Anchor-2" 196 0 basechar 0
AnchorPoint: "Anchor-1" 287 668 basechar 0
AnchorPoint: "Anchor-0" 150 0 basechar 0
LayerCount: 2
Fore
SplineSet
95 -173 m 0,0,1
 54 -173 54 -173 32.5 -153.5 c 128,-1,2
 11 -134 11 -134 11 -106 c 0,3,4
 11 -72 11 -72 40 -43 c 128,-1,5
 69 -14 69 -14 117 0 c 1,6,-1
 4 0 l 1,7,-1
 20 75 l 1,8,-1
 113 75 l 1,9,-1
 223 593 l 1,10,-1
 130 593 l 1,11,-1
 146 668 l 1,12,-1
 427 668 l 1,13,-1
 412 593 l 1,14,-1
 318 593 l 1,15,-1
 209 75 l 1,16,-1
 301 75 l 1,17,-1
 285 0 l 1,18,-1
 196 0 l 1,19,20
 149 -17 149 -17 118.5 -40 c 128,-1,21
 88 -63 88 -63 88 -89 c 0,22,23
 88 -101 88 -101 99.5 -108.5 c 128,-1,24
 111 -116 111 -116 129 -116 c 0,25,26
 149 -116 149 -116 173 -107 c 1,27,-1
 162 -161 l 1,28,29
 123 -173 123 -173 95 -173 c 0,0,1
EndSplineSet
EndChar

StartChar: iogonek
Encoding: 343 303 277
Width: 270
GlyphClass: 2
Flags: W
HStem: -173 57<27.8564 98.0995> 428 68<71 137> 591 125<182.722 272.92>
VStem: -53 77<-110.566 -51.1006> 167 125<606.722 696.92>
AnchorPoint: "Anchor-2" 132 0 basechar 0
AnchorPoint: "Anchor-1" 203 691 basechar 0
AnchorPoint: "Anchor-0" 71 0 basechar 0
LayerCount: 2
Fore
SplineSet
31 -173 m 0,0,1
 -10 -173 -10 -173 -31.5 -153.5 c 128,-1,2
 -53 -134 -53 -134 -53 -106 c 0,3,4
 -53 -72 -53 -72 -24 -43 c 128,-1,5
 5 -14 5 -14 53 0 c 1,6,-1
 46 0 l 1,7,-1
 137 428 l 1,8,-1
 57 428 l 1,9,-1
 71 496 l 1,10,-1
 237 496 l 1,11,-1
 132 0 l 1,12,13
 85 -17 85 -17 54.5 -40 c 128,-1,14
 24 -63 24 -63 24 -89 c 0,15,16
 24 -101 24 -101 35.5 -108.5 c 128,-1,17
 47 -116 47 -116 65 -116 c 0,18,19
 85 -116 85 -116 109 -107 c 1,20,-1
 98 -161 l 1,21,22
 59 -173 59 -173 31 -173 c 0,0,1
229 591 m 0,23,24
 204 591 204 591 185.5 609.5 c 128,-1,25
 167 628 167 628 167 653 c 0,26,27
 167 679 167 679 185.5 697.5 c 128,-1,28
 204 716 204 716 229 716 c 0,29,30
 255 716 255 716 273.5 697.5 c 128,-1,31
 292 679 292 679 292 653 c 0,32,33
 292 628 292 628 273.5 609.5 c 128,-1,34
 255 591 255 591 229 591 c 0,23,24
EndSplineSet
EndChar

StartChar: uni0326
Encoding: 348 806 282
Width: 0
GlyphClass: 4
Flags: W
HStem: -241 36<-41 0.976562>
VStem: 37 67<-175.684 -80.4163>
AnchorPoint: "Anchor-3" 1 -251 basemark 0
AnchorPoint: "Anchor-3" 73 0 mark 0
AnchorPoint: "Anchor-0" 73 0 mark 0
LayerCount: 2
Fore
SplineSet
-41 -241 m 1,0,-1
 -66 -205 l 1,1,2
 -41 -207 -41 -207 -17.5 -197.5 c 128,-1,3
 6 -188 6 -188 21.5 -169 c 128,-1,4
 37 -150 37 -150 37 -124 c 0,5,6
 37 -89 37 -89 5 -75 c 1,7,-1
 65 -46 l 1,8,9
 85 -59 85 -59 94.5 -77.5 c 128,-1,10
 104 -96 104 -96 104 -116 c 0,11,12
 104 -152 104 -152 84 -180 c 128,-1,13
 64 -208 64 -208 31 -224.5 c 128,-1,14
 -2 -241 -2 -241 -41 -241 c 1,0,-1
EndSplineSet
EndChar

StartChar: Uogonek
Encoding: 357 370 291
Width: 693
GlyphClass: 2
Flags: W
HStem: -173 57<247.856 318.099> 648 20G<152.722 253 596.707 697>
VStem: 61 98<107.6 316.375> 167 77<-110.566 -51.1006>
AnchorPoint: "Anchor-2" 352 0 basechar 0
AnchorPoint: "Anchor-1" 415 668 basechar 0
AnchorPoint: "Anchor-0" 294 0 basechar 0
LayerCount: 2
Fore
SplineSet
251 -173 m 0,0,1
 210 -173 210 -173 188.5 -153.5 c 128,-1,2
 167 -134 167 -134 167 -106 c 0,3,4
 167 -72 167 -72 196 -43 c 0,5,6
 215.865596445 -23.134403555 215.865596445 -23.134403555 244.647003259 -10.3076047696 c 1,7,8
 163.042964032 -3.27315719358 163.042964032 -3.27315719358 117.5 33 c 0,9,10
 61 78 61 78 61 175 c 0,11,12
 61 198 61 198 64.5 224.5 c 128,-1,13
 68 251 68 251 74 280 c 2,14,-1
 157 668 l 1,15,-1
 253 668 l 1,16,-1
 169 272 l 2,17,18
 164 247 164 247 161.5 225.5 c 128,-1,19
 159 204 159 204 159 186 c 0,20,21
 159 125 159 125 190 97 c 128,-1,22
 221 69 221 69 291 69 c 0,23,24
 352 69 352 69 396 87 c 128,-1,25
 440 105 440 105 469.5 149.5 c 128,-1,26
 499 194 499 194 516 272 c 2,27,-1
 601 668 l 1,28,-1
 697 668 l 1,29,-1
 614 280 l 2,30,31
 593 180 593 180 557 121 c 128,-1,32
 521 62 521 62 476 33.5 c 128,-1,33
 431 5 431 5 382 -3.5 c 0,34,35
 353.573159456 -8.431186625 353.573159456 -8.431186625 325.819442827 -10.5015965694 c 1,36,37
 296.04358185 -23.7540202761 296.04358185 -23.7540202761 274.5 -40 c 0,38,39
 244 -63 244 -63 244 -89 c 0,40,41
 244 -101 244 -101 255.5 -108.5 c 128,-1,42
 267 -116 267 -116 285 -116 c 0,43,44
 305 -116 305 -116 329 -107 c 1,45,-1
 318 -161 l 1,46,47
 279 -173 279 -173 251 -173 c 0,0,1
EndSplineSet
EndChar

StartChar: uogonek
Encoding: 358 371 292
Width: 540
GlyphClass: 2
Flags: W
HStem: -173 57<303.856 374.099> -11 73<143.071 271.142> 476 20G<106.768 197 423.692 513>
VStem: 40 86<81.0458 263.312> 223 77<-110.566 -51.1006>
AnchorPoint: "Anchor-2" 408 0 basechar 0
AnchorPoint: "Anchor-1" 308 496 basechar 0
AnchorPoint: "Anchor-0" 217 0 basechar 0
LayerCount: 2
Fore
SplineSet
307 -173 m 0,0,1
 266 -173 266 -173 244.5 -153.5 c 128,-1,2
 223 -134 223 -134 223 -106 c 0,3,4
 223 -72 223 -72 252 -43 c 0,5,6
 278.964677726 -16.0353222742 278.964677726 -16.0353222742 342.83260958 1.95288823117 c 1,7,-1
 337 70 l 1,8,9
 305 28 305 28 267.5 8.5 c 128,-1,10
 230 -11 230 -11 173 -11 c 0,11,12
 100 -11 100 -11 70 29 c 128,-1,13
 40 69 40 69 40 128 c 0,14,15
 40 164 40 164 49 203 c 2,16,-1
 111 496 l 1,17,-1
 197 496 l 1,18,-1
 135 205 l 2,19,20
 131 187 131 187 128.5 169.5 c 128,-1,21
 126 152 126 152 126 137 c 0,22,23
 126 104 126 104 142.5 83 c 128,-1,24
 159 62 159 62 203 62 c 0,25,26
 262 62 262 62 307 102.5 c 128,-1,27
 352 143 352 143 372 236 c 2,28,-1
 428 496 l 1,29,-1
 513 496 l 1,30,-1
 408 0 l 1,31,32
 361 -17 361 -17 330.5 -40 c 128,-1,33
 300 -63 300 -63 300 -89 c 0,34,35
 300 -101 300 -101 311.5 -108.5 c 128,-1,36
 323 -116 323 -116 341 -116 c 0,37,38
 361 -116 361 -116 385 -107 c 1,39,-1
 374 -161 l 1,40,41
 335 -173 335 -173 307 -173 c 0,0,1
EndSplineSet
EndChar

StartChar: Hbar
Encoding: 367 294 301
Width: 710
GlyphClass: 1
Flags: W
HStem: 0 21G<23 123.276 469 569.246> 304 80<201 533> 504 79<72 130 243 576 689 745> 648 20G<160.765 261 606.765 707>
LayerCount: 2
Fore
SplineSet
23 0 m 1,0,-1
 130 504 l 1,1,-1
 55 504 l 1,2,-1
 72 583 l 1,3,-1
 147 583 l 1,4,-1
 165 668 l 1,5,-1
 261 668 l 1,6,-1
 243 583 l 1,7,-1
 593 583 l 1,8,-1
 611 668 l 1,9,-1
 707 668 l 1,10,-1
 689 583 l 1,11,-1
 762 583 l 1,12,-1
 745 504 l 1,13,-1
 672 504 l 1,14,-1
 565 0 l 1,15,-1
 469 0 l 1,16,-1
 533 304 l 1,17,-1
 184 304 l 1,18,-1
 119 0 l 1,19,-1
 23 0 l 1,0,-1
201 384 m 1,20,-1
 551 384 l 1,21,-1
 576 504 l 1,22,-1
 226 504 l 1,23,-1
 201 384 l 1,20,-1
EndSplineSet
EndChar

StartChar: hbar
Encoding: 368 295 302
Width: 580
GlyphClass: 1
Flags: W
HStem: 0 21G<39 129.202 365 454.306> 430 74<281.934 414.575> 548 67<88 155 256 403> 648 20G<176.849 267>
VStem: 365 85<0 32.5161> 433 88<230.688 412.962>
LayerCount: 2
Fore
SplineSet
39 0 m 1,0,-1
 155 548 l 1,1,-1
 74 548 l 1,2,-1
 88 615 l 1,3,-1
 170 615 l 1,4,-1
 181 668 l 1,5,-1
 267 668 l 1,6,-1
 256 615 l 1,7,-1
 417 615 l 1,8,-1
 403 548 l 1,9,-1
 242 548 l 1,10,-1
 216 427 l 1,11,12
 241 459 241 459 280.5 481.5 c 128,-1,13
 320 504 320 504 387 504 c 0,14,15
 450 504 450 504 485.5 470.5 c 128,-1,16
 521 437 521 437 521 366 c 0,17,18
 521 332 521 332 512 288 c 2,19,-1
 450 0 l 1,20,-1
 365 0 l 1,21,-1
 424 280 l 2,22,23
 433 324 433 324 433 352 c 0,24,25
 433 395 433 395 413 412.5 c 128,-1,26
 393 430 393 430 350 430 c 0,27,28
 314 430 314 430 280 414 c 128,-1,29
 246 398 246 398 219.5 360 c 128,-1,30
 193 322 193 322 179 257 c 2,31,-1
 125 0 l 1,32,-1
 39 0 l 1,0,-1
EndSplineSet
EndChar

StartChar: dcroat
Encoding: 384 273 318
Width: 602
GlyphClass: 1
Flags: W
HStem: -12 72<163.435 297.71> 0 21G<359.361 442.5> 432 72<207.255 348.861> 548 67<308 456 556 623> 648 20G<476.849 567>
VStem: 27 90<109.02 316.004> 398 44<0 281>
LayerCount: 2
Fore
SplineSet
205 -12 m 0,0,1
 149 -12 149 -12 109 15 c 128,-1,2
 69 42 69 42 48 89.5 c 128,-1,3
 27 137 27 137 27 198 c 0,4,5
 27 258 27 258 44 312.5 c 128,-1,6
 61 367 61 367 92.5 410.5 c 128,-1,7
 124 454 124 454 169 479 c 128,-1,8
 214 504 214 504 271 504 c 0,9,10
 330 504 330 504 370 473.5 c 128,-1,11
 410 443 410 443 424 398 c 1,12,-1
 456 548 l 1,13,-1
 294 548 l 1,14,-1
 308 615 l 1,15,-1
 470 615 l 1,16,-1
 481 668 l 1,17,-1
 567 668 l 1,18,19
 567 668 567 668 564 653.5 c 128,-1,20
 561 639 561 639 556 615 c 1,21,-1
 637 615 l 1,22,-1
 623 548 l 1,23,-1
 541 548 l 1,24,25
 532 504 532 504 521 453.5 c 128,-1,26
 510 403 510 403 499.5 352.5 c 128,-1,27
 489 302 489 302 480 259 c 128,-1,28
 471 216 471 216 465 188 c 0,29,30
 460 163 460 163 451.5 114 c 128,-1,31
 443 65 443 65 442 0 c 1,32,-1
 361 0 l 1,33,-1
 356 61 l 1,34,35
 331 29 331 29 295.5 8.5 c 128,-1,36
 260 -12 260 -12 205 -12 c 0,0,1
226 60 m 0,37,38
 278 60 278 60 316.5 90.5 c 128,-1,39
 355 121 355 121 376.5 171.5 c 128,-1,40
 398 222 398 222 398 281 c 0,41,42
 398 350 398 350 368 391 c 128,-1,43
 338 432 338 432 280 432 c 0,44,45
 228 432 228 432 191.5 397.5 c 128,-1,46
 155 363 155 363 136 309.5 c 128,-1,47
 117 256 117 256 117 199 c 0,48,49
 117 129 117 129 149.5 94.5 c 128,-1,50
 182 60 182 60 226 60 c 0,37,38
EndSplineSet
EndChar

StartChar: Scedilla
Encoding: 389 350 323
Width: 609
GlyphClass: 2
Flags: W
HStem: -181 41<161.545 279.638> -11.99 78.99<287.621 384.293> 601 79<229.674 415.29>
VStem: 87 95<441.809 558.467> 286 63<-132.12 -86.0335> 446 98<121.118 243.68>
AnchorPoint: "Anchor-1" 359 668 basechar 0
AnchorPoint: "Anchor-0" 239 -181 basechar 0
LayerCount: 2
Fore
SplineSet
236 -181 m 0,0,1
 199 -181 199 -181 149 -163 c 1,2,-1
 172 -126 l 1,3,4
 189 -133 189 -133 203 -136.5 c 128,-1,5
 217 -140 217 -140 229 -140 c 0,6,7
 256 -140 256 -140 271 -128 c 128,-1,8
 286 -116 286 -116 286 -104 c 0,9,10
 286 -95 286 -95 278 -88.5 c 128,-1,11
 270 -82 270 -82 251 -82 c 0,12,13
 236 -82 236 -82 229 -84.5 c 128,-1,14
 222 -87 222 -87 216 -87 c 0,15,16
 198 -87 198 -87 198 -70 c 0,17,18
 198 -64 198 -64 203 -57 c 2,19,-1
 242.622741793 -9.21963489647 l 1,20,21
 211.779287324 -5.12495769031 211.779287324 -5.12495769031 182 5 c 0,22,23
 132 22 132 22 93.5 57.5 c 128,-1,24
 55 93 55 93 36 147 c 1,25,-1
 127 172 l 1,26,27
 146 118 146 118 193.5 92.5 c 128,-1,28
 241 67 241 67 293 67 c 0,29,30
 332 67 332 67 367 80.5 c 128,-1,31
 402 94 402 94 424 120.5 c 128,-1,32
 446 147 446 147 446 184 c 0,33,34
 446 220 446 220 426.5 241.5 c 128,-1,35
 407 263 407 263 375 277 c 128,-1,36
 343 291 343 291 305 302 c 128,-1,37
 267 313 267 313 228.5 326 c 128,-1,38
 190 339 190 339 158 359 c 128,-1,39
 126 379 126 379 106.5 411.5 c 128,-1,40
 87 444 87 444 87 495 c 0,41,42
 87 557 87 557 121.5 598 c 128,-1,43
 156 639 156 639 210 659.5 c 128,-1,44
 264 680 264 680 324 680 c 0,45,46
 373 680 373 680 420 666 c 128,-1,47
 467 652 467 652 504.5 624.5 c 128,-1,48
 542 597 542 597 561 555 c 1,49,-1
 469 529 l 1,50,51
 451 564 451 564 408.5 582.5 c 128,-1,52
 366 601 366 601 320 601 c 0,53,54
 284 601 284 601 252.5 590 c 128,-1,55
 221 579 221 579 201.5 556 c 128,-1,56
 182 533 182 533 182 498 c 0,57,58
 182 465 182 465 201.5 444 c 128,-1,59
 221 423 221 423 253.5 409.5 c 128,-1,60
 286 396 286 396 324.5 385 c 128,-1,61
 363 374 363 374 401.5 360.5 c 128,-1,62
 440 347 440 347 472.5 327 c 128,-1,63
 505 307 505 307 524.5 276 c 128,-1,64
 544 245 544 245 544 197 c 0,65,66
 544 147 544 147 522 108 c 128,-1,67
 500 69 500 69 463 42.5 c 128,-1,68
 426 16 426 16 380 2 c 0,69,70
 335.231102791 -11.6253165418 335.231102791 -11.6253165418 287.620635416 -11.9899723076 c 1,71,-1
 260 -45 l 1,72,73
 267 -44 267 -44 272.5 -43.5 c 128,-1,74
 278 -43 278 -43 284 -43 c 0,75,76
 317 -43 317 -43 333 -59 c 128,-1,77
 349 -75 349 -75 349 -96 c 0,78,79
 349 -125 349 -125 320.5 -153 c 128,-1,80
 292 -181 292 -181 236 -181 c 0,0,1
EndSplineSet
Substitution2: "'locl' Localized Forms in Latin lookup 8 subtable" uni0218
Substitution2: "'aalt' Access All Alternates lookup 0 subtable" uni0218
EndChar

StartChar: scedilla
Encoding: 390 351 324
Width: 479
GlyphClass: 2
Flags: W
HStem: -181 41<91.5449 209.638> -11.9697 67.9697<217.638 291.804> 435 69<155.519 317.903>
VStem: 49 85<326.413 413.12> 216 63<-132.12 -86.0335> 325 88<86.6224 181.532>
AnchorPoint: "Anchor-1" 260 496 basechar 0
AnchorPoint: "Anchor-0" 169 -181 basechar 0
LayerCount: 2
Fore
SplineSet
166 -181 m 0,0,1
 129 -181 129 -181 79 -163 c 1,2,-1
 102 -126 l 1,3,4
 119 -133 119 -133 133 -136.5 c 128,-1,5
 147 -140 147 -140 159 -140 c 0,6,7
 186 -140 186 -140 201 -128 c 128,-1,8
 216 -116 216 -116 216 -104 c 0,9,10
 216 -95 216 -95 208 -88.5 c 128,-1,11
 200 -82 200 -82 181 -82 c 0,12,13
 166 -82 166 -82 159 -84.5 c 128,-1,14
 152 -87 152 -87 146 -87 c 0,15,16
 128 -87 128 -87 128 -70 c 0,17,18
 128 -64 128 -64 133 -57 c 2,19,-1
 172.263950366 -9.65229514637 l 1,20,21
 123.489147552 -3.74873096093 123.489147552 -3.74873096093 87 17 c 0,22,23
 36 46 36 46 10 113 c 1,24,-1
 96 142 l 1,25,26
 104 98 104 98 140 77 c 128,-1,27
 176 56 176 56 216 56 c 0,28,29
 257 56 257 56 291 77 c 128,-1,30
 325 98 325 98 325 137 c 0,31,32
 325 165 325 165 305 180.5 c 128,-1,33
 285 196 285 196 253.5 206 c 128,-1,34
 222 216 222 216 187 225.5 c 128,-1,35
 152 235 152 235 120.5 250.5 c 128,-1,36
 89 266 89 266 69 293 c 128,-1,37
 49 320 49 320 49 365 c 0,38,39
 49 412 49 412 77 442.5 c 128,-1,40
 105 473 105 473 148.5 488.5 c 128,-1,41
 192 504 192 504 240 504 c 0,42,43
 281 504 281 504 320 492.5 c 128,-1,44
 359 481 359 481 389 458.5 c 128,-1,45
 419 436 419 436 431 402 c 1,46,-1
 351 374 l 1,47,48
 341 404 341 404 306 419.5 c 128,-1,49
 271 435 271 435 233 435 c 128,-1,50
 195 435 195 435 164.5 419 c 128,-1,51
 134 403 134 403 134 370 c 0,52,53
 134 343 134 343 154 327.5 c 128,-1,54
 174 312 174 312 206 302 c 128,-1,55
 238 292 238 292 273.5 282.5 c 128,-1,56
 309 273 309 273 341 257 c 128,-1,57
 373 241 373 241 393 214.5 c 128,-1,58
 413 188 413 188 413 143 c 0,59,60
 413 92 413 92 386 57.5 c 128,-1,61
 359 23 359 23 314 5.5 c 0,62,63
 270.870943843 -11.2724107279 270.870943843 -11.2724107279 217.637556656 -11.9697493629 c 1,64,-1
 190 -45 l 1,65,66
 197 -44 197 -44 202.5 -43.5 c 128,-1,67
 208 -43 208 -43 214 -43 c 0,68,69
 247 -43 247 -43 263 -59 c 128,-1,70
 279 -75 279 -75 279 -96 c 0,71,72
 279 -125 279 -125 250.5 -153 c 128,-1,73
 222 -181 222 -181 166 -181 c 0,0,1
EndSplineSet
Substitution2: "'locl' Localized Forms in Latin lookup 8 subtable" uni0219
Substitution2: "'aalt' Access All Alternates lookup 0 subtable" uni0219
EndChar

StartChar: uni0162
Encoding: 395 354 329
Width: 558
GlyphClass: 2
Flags: W
HStem: -181 41<102.545 220.638> 0 21G<238.653 270.191> 587 81<90 293 389 611>
VStem: 227 63<-132.12 -86.0335>
AnchorPoint: "Anchor-1" 356 668 basechar 0
AnchorPoint: "Anchor-0" 146 -251 basechar 0
LayerCount: 2
Fore
SplineSet
177 -181 m 0,0,1
 140 -181 140 -181 90 -163 c 1,2,-1
 113 -126 l 1,3,4
 130 -133 130 -133 144 -136.5 c 128,-1,5
 158 -140 158 -140 170 -140 c 0,6,7
 197 -140 197 -140 212 -128 c 128,-1,8
 227 -116 227 -116 227 -104 c 0,9,10
 227 -95 227 -95 219 -88.5 c 128,-1,11
 211 -82 211 -82 192 -82 c 0,12,13
 177 -82 177 -82 170 -84.5 c 128,-1,14
 163 -87 163 -87 157 -87 c 0,15,16
 139 -87 139 -87 139 -70 c 0,17,18
 139 -64 139 -64 144 -57 c 2,19,-1
 191.268292683 -3.5527136788e-15 l 1,20,-1
 169 0 l 1,21,-1
 293 587 l 1,22,-1
 73 587 l 1,23,-1
 90 668 l 1,24,-1
 628 668 l 1,25,-1
 611 587 l 1,26,-1
 389 587 l 1,27,-1
 266 0 l 1,28,-1
 238.653061224 2.22044604925e-16 l 1,29,-1
 201 -45 l 1,30,31
 208 -44 208 -44 213.5 -43.5 c 128,-1,32
 219 -43 219 -43 225 -43 c 0,33,34
 258 -43 258 -43 274 -59 c 128,-1,35
 290 -75 290 -75 290 -96 c 0,36,37
 290 -125 290 -125 261.5 -153 c 128,-1,38
 233 -181 233 -181 177 -181 c 0,0,1
EndSplineSet
Substitution2: "'locl' Localized Forms in Latin lookup 8 subtable" uni021A
Substitution2: "'aalt' Access All Alternates lookup 0 subtable" uni021A
EndChar

StartChar: acutecomb.case
Encoding: 398 -1 332
Width: 0
GlyphClass: 4
Flags: W
HStem: 744 120
VStem: 135 198
AnchorPoint: "Anchor-4" 251 864 basemark 0
AnchorPoint: "Anchor-4" 185 668 mark 0
AnchorPoint: "Anchor-1" 185 668 mark 0
LayerCount: 2
Fore
SplineSet
135 744 m 1,0,1
 139 747 139 747 157.5 762.5 c 128,-1,2
 176 778 176 778 199.5 797.5 c 128,-1,3
 223 817 223 817 243.5 833.5 c 128,-1,4
 264 850 264 850 271 855 c 0,5,6
 285 864 285 864 297 864 c 0,7,8
 312 864 312 864 322.5 853.5 c 128,-1,9
 333 843 333 843 333 828 c 0,10,11
 333 815 333 815 327 807 c 128,-1,12
 321 799 321 799 314 794 c 0,13,14
 308 790 308 790 294 782.5 c 128,-1,15
 280 775 280 775 263 767 c 128,-1,16
 246 759 246 759 233 752.5 c 128,-1,17
 220 746 220 746 216 744 c 2,18,-1
 135 744 l 1,0,1
EndSplineSet
EndChar

StartChar: caron.alt
Encoding: 401 -1 335
Width: 206
GlyphClass: 1
Flags: W
HStem: 495 183
VStem: 155 74<603.5 669.749>
LayerCount: 2
Fore
SplineSet
96 495 m 1,0,1
 98 500 98 500 105.5 520.5 c 128,-1,2
 113 541 113 541 123 567.5 c 128,-1,3
 133 594 133 594 141.5 617 c 128,-1,4
 150 640 150 640 155 649 c 0,5,6
 158 657 158 657 169 667.5 c 128,-1,7
 180 678 180 678 197 678 c 0,8,9
 211 678 211 678 220 670 c 128,-1,10
 229 662 229 662 229 648 c 0,11,12
 229 640 229 640 217 619 c 2,13,-1
 145 495 l 1,14,-1
 96 495 l 1,0,1
EndSplineSet
EndChar

StartChar: uni2074
Encoding: 411 8308 345
Width: 397
GlyphClass: 1
Flags: W
HStem: 489 57<169 269 351 404>
LayerCount: 2
Fore
SplineSet
251 403 m 1,0,-1
 269 489 l 1,1,-1
 76 489 l 1,2,-1
 88 543 l 1,3,-1
 324 778 l 1,4,-1
 401 778 l 1,5,-1
 351 546 l 1,6,-1
 416 546 l 1,7,-1
 404 489 l 1,8,-1
 339 489 l 1,9,-1
 321 403 l 1,10,-1
 251 403 l 1,0,-1
169 546 m 1,11,-1
 281 546 l 1,12,-1
 313 692 l 1,13,-1
 169 546 l 1,11,-1
EndSplineSet
EndChar

StartChar: gravecomb.case
Encoding: 414 -1 348
Width: 0
GlyphClass: 4
Flags: W
HStem: 744 120<218.762 240.578>
VStem: 168 153
AnchorPoint: "Anchor-4" 261 864 basemark 0
AnchorPoint: "Anchor-4" 239 668 mark 0
AnchorPoint: "Anchor-1" 239 668 mark 0
LayerCount: 2
Fore
SplineSet
248 744 m 1,0,1
 214 769 214 769 192 787 c 0,2,3
 168 807 168 807 168 828 c 0,4,5
 168 837 168 837 176 850.5 c 128,-1,6
 184 864 184 864 204 864 c 0,7,8
 222 864 222 864 236 848 c 0,9,10
 254 826 254 826 277 798 c 128,-1,11
 300 770 300 770 321 744 c 1,12,-1
 248 744 l 1,0,1
EndSplineSet
EndChar

StartChar: uni030B
Encoding: 415 779 349
Width: 4
GlyphClass: 4
Flags: W
HStem: 572 136<217 236>
VStem: 71 329
AnchorPoint: "Anchor-4" 254 708 basemark 0
AnchorPoint: "Anchor-4" 189 496 mark 0
AnchorPoint: "Anchor-1" 189 496 mark 0
LayerCount: 2
Fore
SplineSet
71 572 m 1,0,1
 71 572 71 572 81.5 583 c 128,-1,2
 92 594 92 594 108 611 c 128,-1,3
 124 628 124 628 141 646.5 c 128,-1,4
 158 665 158 665 172 679.5 c 128,-1,5
 186 694 186 694 192 699 c 0,6,7
 204 708 204 708 218 708 c 0,8,9
 236 708 236 708 246 696 c 0,10,11
 255 686 255 686 255 671 c 0,12,13
 255 654 255 654 243 642 c 0,14,15
 236 635 236 635 220 623.5 c 128,-1,16
 204 612 204 612 186.5 600 c 128,-1,17
 169 588 169 588 157 580 c 128,-1,18
 145 572 145 572 145 572 c 1,19,-1
 71 572 l 1,0,1
217 572 m 1,20,21
 217 572 217 572 232.5 589 c 128,-1,22
 248 606 248 606 269.5 629 c 128,-1,23
 291 652 291 652 310.5 672.5 c 128,-1,24
 330 693 330 693 338 699 c 0,25,26
 350 708 350 708 364 708 c 0,27,28
 381 708 381 708 391 696 c 0,29,30
 400 684 400 684 400 670 c 0,31,32
 400 653 400 653 388 642 c 0,33,34
 381 635 381 635 365 623.5 c 128,-1,35
 349 612 349 612 331.5 600 c 128,-1,36
 314 588 314 588 302 580 c 128,-1,37
 290 572 290 572 290 572 c 1,38,-1
 217 572 l 1,20,21
EndSplineSet
Substitution2: "'case' Case-Sensitive Forms lookup 15 subtable" uni030B.case
Substitution2: "Single Substitution lookup 7 subtable" uni030B.case
Substitution2: "Single Substitution lookup 6 subtable" uni030B.case
Substitution2: "Single Substitution lookup 4 subtable" uni030B.case
Substitution2: "Single Substitution lookup 3 subtable" uni030B.case
Substitution2: "'aalt' Access All Alternates lookup 0 subtable" uni030B.case
EndChar

StartChar: dotlessi
Encoding: 417 305 351
Width: 248
GlyphClass: 2
Flags: W
HStem: 0 21G<46 136.234> 428 68<71 137>
VStem: 46 191
AnchorPoint: "Anchor-2" 132 0 basechar 0
AnchorPoint: "Anchor-1" 167 496 basechar 0
AnchorPoint: "Anchor-0" 71 0 basechar 0
LayerCount: 2
Fore
SplineSet
46 0 m 1,0,-1
 137 428 l 1,1,-1
 57 428 l 1,2,-1
 71 496 l 1,3,-1
 237 496 l 1,4,-1
 132 0 l 1,5,-1
 46 0 l 1,0,-1
EndSplineSet
EndChar

StartChar: uni00B5
Encoding: 181 181 356
Width: 554
GlyphClass: 2
Flags: W
HStem: -162 21G<-28 62.0404> -11 73<142.583 268.244> 476 20G<106.775 197 423.692 513>
AnchorPoint: "Anchor-2" 435 10 basechar 0
LayerCount: 2
Fore
SplineSet
-28 -162 m 1,0,-1
 111 496 l 1,1,-1
 197 496 l 1,2,-1
 135 205 l 2,3,4
 131 187 131 187 128.5 169.5 c 128,-1,5
 126 152 126 152 126 137 c 0,6,7
 126 104 126 104 142.5 83 c 128,-1,8
 159 62 159 62 203 62 c 0,9,10
 262 62 262 62 307 102.5 c 128,-1,11
 352 143 352 143 372 236 c 2,12,-1
 428 496 l 1,13,-1
 513 496 l 1,14,-1
 433 122 l 2,15,16
 427 94 427 94 433.5 84.5 c 128,-1,17
 440 75 440 75 462 75 c 0,18,19
 473 75 473 75 480 77 c 128,-1,20
 487 79 487 79 494 80 c 1,21,-1
 478 7 l 1,22,23
 468 5 468 5 454 2.5 c 128,-1,24
 440 0 440 0 417 0 c 0,25,26
 382 0 382 0 363 20 c 128,-1,27
 344 40 344 40 342 73 c 1,28,29
 313 35 313 35 271 12 c 128,-1,30
 229 -11 229 -11 173 -11 c 0,31,32
 138 -11 138 -11 116 -1.5 c 128,-1,33
 94 8 94 8 81 24 c 1,34,35
 82 1 82 1 82 -21.5 c 128,-1,36
 82 -44 82 -44 78 -63 c 2,37,-1
 58 -162 l 1,38,-1
 -28 -162 l 1,0,-1
EndSplineSet
EndChar

StartChar: uni0328.case
Encoding: 423 -1 358
Width: 0
GlyphClass: 4
Flags: W
HStem: -173 57<36.8564 107.099> -20 20G<38 141>
VStem: -44 77<-110.566 -51.1006>
AnchorPoint: "Anchor-2" 141 0 mark 0
LayerCount: 2
Fore
SplineSet
40 -173 m 0,0,1
 -1 -173 -1 -173 -22.5 -153.5 c 128,-1,2
 -44 -134 -44 -134 -44 -106 c 0,3,4
 -44 -72 -44 -72 -15 -43 c 128,-1,5
 14 -14 14 -14 62 0 c 1,6,-1
 141 0 l 1,7,8
 94 -17 94 -17 63.5 -40 c 128,-1,9
 33 -63 33 -63 33 -89 c 0,10,11
 33 -101 33 -101 44.5 -108.5 c 128,-1,12
 56 -116 56 -116 74 -116 c 0,13,14
 94 -116 94 -116 118 -107 c 1,15,-1
 107 -161 l 1,16,17
 68 -173 68 -173 40 -173 c 0,0,1
EndSplineSet
EndChar

StartChar: uni0163
Encoding: 427 355 363
Width: 324
GlyphClass: 2
Flags: W
HStem: -181 41<-6.45508 111.638> 0 75<160.285 222> 428 68<63 132 232 313>
VStem: 59 92<50 189.18> 118 63<-132.12 -86.0335>
AnchorPoint: "Anchor-1" 215 496 basechar 0
AnchorPoint: "Anchor-0" 37 -251 basechar 0
LayerCount: 2
Fore
SplineSet
68 -181 m 0,0,1
 31 -181 31 -181 -19 -163 c 1,2,-1
 4 -126 l 1,3,4
 21 -133 21 -133 35 -136.5 c 128,-1,5
 49 -140 49 -140 61 -140 c 0,6,7
 88 -140 88 -140 103 -128 c 128,-1,8
 118 -116 118 -116 118 -104 c 0,9,10
 118 -95 118 -95 110 -88.5 c 128,-1,11
 102 -82 102 -82 83 -82 c 0,12,13
 68 -82 68 -82 61 -84.5 c 128,-1,14
 54 -87 54 -87 48 -87 c 0,15,16
 30 -87 30 -87 30 -70 c 0,17,18
 30 -64 30 -64 35 -57 c 2,19,-1
 90.8978837741 10.4062716099 l 1,20,21
 84.925654453 13.1035675128 84.925654453 13.1035675128 80.5 16.5 c 0,22,23
 59 33 59 33 59 67 c 0,24,25
 59 89 59 89 69 135 c 2,26,-1
 132 428 l 1,27,-1
 49 428 l 1,28,-1
 63 496 l 1,29,-1
 146 496 l 1,30,-1
 173 620 l 1,31,-1
 259 620 l 1,32,-1
 232 496 l 1,33,-1
 327 496 l 1,34,-1
 313 428 l 1,35,-1
 218 428 l 1,36,-1
 160 159 l 2,37,38
 156 141 156 141 153.5 126.5 c 128,-1,39
 151 112 151 112 151 104 c 0,40,41
 151 88 151 88 160 81.5 c 128,-1,42
 169 75 169 75 194 75 c 2,43,-1
 238 75 l 1,44,-1
 222 0 l 1,45,-1
 160 0 l 2,46,47
 143.958550126 0 143.958550126 0 130.709156187 1.26216227168 c 1,48,-1
 92 -45 l 1,49,50
 99 -44 99 -44 104.5 -43.5 c 128,-1,51
 110 -43 110 -43 116 -43 c 0,52,53
 149 -43 149 -43 165 -59 c 128,-1,54
 181 -75 181 -75 181 -96 c 0,55,56
 181 -125 181 -125 152.5 -153 c 128,-1,57
 124 -181 124 -181 68 -181 c 0,0,1
EndSplineSet
Substitution2: "'locl' Localized Forms in Latin lookup 8 subtable" uni021B
Substitution2: "'aalt' Access All Alternates lookup 0 subtable" uni021B
EndChar

